<svg width="1085" height="237" viewBox="0 0 1085 237" fill="none" xmlns="http://www.w3.org/2000/svg">
<path d="M0.35806 207.034C-3.24194 223.034 21.1914 233.367 33.8581 236.534H49.358L45.858 230.534C30.5247 226.701 9.95803 216.634 26.358 207.034C46.858 195.034 102.358 173.534 96.358 155.534C90.358 137.534 400.858 178.534 459.858 178.534C518.858 178.534 789.358 180.031 808.858 165.534C828.858 162.034 980.358 68.0341 960.858 57.0341C941.358 46.0341 1019.69 27.2007 1057.86 28.0341L1004.86 156.534C1004.86 156.534 1016.36 171.034 1001.86 184.534C987.358 198.034 1050.26 153.934 1049.86 165.534C1049.46 177.134 1016.36 198.034 1016.36 198.034L1038.36 195.034C1055.36 182.201 1084.56 156.534 1065.36 156.534C1046.16 156.534 1028.86 168.034 1022.86 162.034C1016.86 156.034 1022.86 156.534 1022.86 156.534L1084.36 2.53407C1058.69 -4.46593 993.658 -1.16592 938.858 68.0341C883.858 128.034 825.691 157.867 804.358 156.534C741.358 157.367 596.058 158.534 518.858 156.534C422.358 154.034 413.358 140.034 300.358 140.534C187.358 141.034 107.358 145.534 101.358 145.034C95.358 144.534 81.358 152.034 60.858 167.534C40.358 183.034 4.85806 187.034 0.35806 207.034Z" fill="url(#paint0_linear_32_4)"/>
<defs>
<linearGradient id="paint0_linear_32_4" x1="542.179" y1="0" x2="542.179" y2="236.534" gradientUnits="userSpaceOnUse">
<stop offset="0.173651" stop-color="#FF05C8"/>
<stop offset="1" stop-color="#FF05C8" stop-opacity="0"/>
</linearGradient>
</defs>
</svg>
