<svg width="601" height="59" viewBox="0 0 601 59" fill="none" xmlns="http://www.w3.org/2000/svg">
<path d="M94.2745 57.648H28.8676L39.3764 43.1878H53.5003C56.8631 43.1878 60.8144 43.1878 63.5046 43.356C61.9914 41.3383 59.6374 37.8914 57.7879 35.2011L47.6994 20.3206L21.3013 57.648H0.703979L36.7702 6.7853C39.1242 3.50655 42.5711 0.480011 48.0357 0.480011C53.248 0.480011 56.6949 3.25434 59.133 6.7853L94.2745 57.648Z" fill="white"/>
<path d="M118.131 1.40478V57.648H100.728V1.40478H118.131Z" fill="white"/>
<path d="M198.407 46.7188L208.748 57.648H185.46L172.934 42.7675H146.199V57.648H128.797V28.8958H177.726C183.106 28.8958 187.31 26.4578 187.31 22.5906C187.31 18.2189 183.695 16.0331 177.726 16.0331H128.797L140.146 1.40478H176.296C189.075 1.40478 205.217 5.44017 205.217 21.4976C205.217 30.241 199.752 37.471 190.504 39.3206C192.438 40.7498 194.54 42.7675 198.407 46.7188Z" fill="white"/>
<path d="M272.005 58.5727C269.82 58.5727 267.718 58.0683 265.028 55.5462L230.559 24.6082V57.648H214.753V10.9888C214.753 3.50655 219.293 0.480011 224.253 0.480011C226.355 0.480011 228.457 0.984433 231.231 3.50655L265.7 34.4445V1.40478H281.589V47.9798C281.589 55.4621 277.05 58.5727 272.005 58.5727Z" fill="white"/>
<path d="M331.196 0.480011C358.519 0.480011 372.307 9.39148 372.307 29.4843C372.307 49.5772 358.519 58.5727 331.196 58.5727C303.789 58.5727 290.086 49.5772 290.086 29.4843C290.086 9.39148 303.789 0.480011 331.196 0.480011ZM331.196 43.9445C348.683 43.9445 354.988 41.5905 354.988 29.4843C354.988 17.3782 348.683 15.1083 331.196 15.1083C313.71 15.1083 307.404 17.3782 307.404 29.4843C307.404 41.5905 313.71 43.9445 331.196 43.9445Z" fill="white"/>
<path d="M387.063 1.40478H450.957L439.691 16.0331H419.598V57.648H402.196V16.0331H375.798L387.063 1.40478Z" fill="white"/>
<path d="M473.702 43.1878H521.538L510.357 57.648H456.216V1.40478H521.37L510.105 16.0331H473.702V22.7587H518.26L508.255 35.5374H473.702V43.1878Z" fill="white"/>
<path d="M549.001 23.8516H579.602C593.306 23.8516 600.704 28.9799 600.704 39.2365C600.704 50.7542 593.726 57.648 576.576 57.648H524.2L535.381 43.1878H577.921C582.04 43.1878 583.89 42.0108 583.89 39.0684C583.89 36.21 582.04 35.033 577.921 35.033H547.319C532.859 35.033 526.218 28.5596 526.218 18.8914C526.218 8.29857 533.279 1.40478 550.346 1.40478H599.191L588.009 16.0331H549.001C544.965 16.0331 543.032 17.0419 543.032 19.9003C543.032 22.7587 544.965 23.8516 549.001 23.8516Z" fill="white"/>
<path d="M94.2745 57.648H28.8676L39.3764 43.1878H53.5003C56.8631 43.1878 60.8144 43.1878 63.5046 43.356C61.9914 41.3383 59.6374 37.8914 57.7879 35.2011L47.6994 20.3206L21.3013 57.648H0.703979L36.7702 6.7853C39.1242 3.50655 42.5711 0.480011 48.0357 0.480011C53.248 0.480011 56.6949 3.25434 59.133 6.7853L94.2745 57.648Z" fill="url(#paint0_linear_34_19)"/>
<path d="M118.131 1.40478V57.648H100.728V1.40478H118.131Z" fill="url(#paint1_linear_34_19)"/>
<path d="M198.407 46.7188L208.748 57.648H185.46L172.934 42.7675H146.199V57.648H128.797V28.8958H177.726C183.106 28.8958 187.31 26.4578 187.31 22.5906C187.31 18.2189 183.695 16.0331 177.726 16.0331H128.797L140.146 1.40478H176.296C189.075 1.40478 205.217 5.44017 205.217 21.4976C205.217 30.241 199.752 37.471 190.504 39.3206C192.438 40.7498 194.54 42.7675 198.407 46.7188Z" fill="url(#paint2_linear_34_19)"/>
<path d="M272.005 58.5727C269.82 58.5727 267.718 58.0683 265.028 55.5462L230.559 24.6082V57.648H214.753V10.9888C214.753 3.50655 219.293 0.480011 224.253 0.480011C226.355 0.480011 228.457 0.984433 231.231 3.50655L265.7 34.4445V1.40478H281.589V47.9798C281.589 55.4621 277.05 58.5727 272.005 58.5727Z" fill="url(#paint3_linear_34_19)"/>
<path d="M331.196 0.480011C358.519 0.480011 372.307 9.39148 372.307 29.4843C372.307 49.5772 358.519 58.5727 331.196 58.5727C303.789 58.5727 290.086 49.5772 290.086 29.4843C290.086 9.39148 303.789 0.480011 331.196 0.480011ZM331.196 43.9445C348.683 43.9445 354.988 41.5905 354.988 29.4843C354.988 17.3782 348.683 15.1083 331.196 15.1083C313.71 15.1083 307.404 17.3782 307.404 29.4843C307.404 41.5905 313.71 43.9445 331.196 43.9445Z" fill="url(#paint4_linear_34_19)"/>
<path d="M387.063 1.40478H450.957L439.691 16.0331H419.598V57.648H402.196V16.0331H375.798L387.063 1.40478Z" fill="url(#paint5_linear_34_19)"/>
<path d="M473.702 43.1878H521.538L510.357 57.648H456.216V1.40478H521.37L510.105 16.0331H473.702V22.7587H518.26L508.255 35.5374H473.702V43.1878Z" fill="url(#paint6_linear_34_19)"/>
<path d="M549.001 23.8516H579.602C593.306 23.8516 600.704 28.9799 600.704 39.2365C600.704 50.7542 593.726 57.648 576.576 57.648H524.2L535.381 43.1878H577.921C582.04 43.1878 583.89 42.0108 583.89 39.0684C583.89 36.21 582.04 35.033 577.921 35.033H547.319C532.859 35.033 526.218 28.5596 526.218 18.8914C526.218 8.29857 533.279 1.40478 550.346 1.40478H599.191L588.009 16.0331H549.001C544.965 16.0331 543.032 17.0419 543.032 19.9003C543.032 22.7587 544.965 23.8516 549.001 23.8516Z" fill="url(#paint7_linear_34_19)"/>
<path d="M94.2745 57.648H28.8676L39.3764 43.1878H53.5003C56.8631 43.1878 60.8144 43.1878 63.5046 43.356C61.9914 41.3383 59.6374 37.8914 57.7879 35.2011L47.6994 20.3206L21.3013 57.648H0.703979L36.7702 6.7853C39.1242 3.50655 42.5711 0.480011 48.0357 0.480011C53.248 0.480011 56.6949 3.25434 59.133 6.7853L94.2745 57.648ZM118.131 1.40478V57.648H100.728V1.40478H118.131ZM198.407 46.7188L208.748 57.648H185.46L172.934 42.7675H146.199V57.648H128.797V28.8958H177.726C183.106 28.8958 187.31 26.4578 187.31 22.5906C187.31 18.2189 183.695 16.0331 177.726 16.0331H128.797L140.146 1.40478H176.296C189.075 1.40478 205.217 5.44017 205.217 21.4976C205.217 30.241 199.752 37.471 190.504 39.3206C192.438 40.7498 194.54 42.7675 198.407 46.7188ZM272.005 58.5727C269.82 58.5727 267.718 58.0683 265.028 55.5462L230.559 24.6082V57.648H214.753V10.9888C214.753 3.50655 219.293 0.480011 224.253 0.480011C226.355 0.480011 228.457 0.984433 231.231 3.50655L265.7 34.4445V1.40478H281.589V47.9798C281.589 55.4621 277.05 58.5727 272.005 58.5727ZM331.196 0.480011C358.519 0.480011 372.307 9.39148 372.307 29.4843C372.307 49.5772 358.519 58.5727 331.196 58.5727C303.789 58.5727 290.086 49.5772 290.086 29.4843C290.086 9.39148 303.789 0.480011 331.196 0.480011ZM331.196 43.9445C348.683 43.9445 354.988 41.5905 354.988 29.4843C354.988 17.3782 348.683 15.1083 331.196 15.1083C313.71 15.1083 307.404 17.3782 307.404 29.4843C307.404 41.5905 313.71 43.9445 331.196 43.9445ZM387.063 1.40478H450.957L439.691 16.0331H419.598V57.648H402.196V16.0331H375.798L387.063 1.40478ZM473.702 43.1878H521.538L510.357 57.648H456.216V1.40478H521.37L510.105 16.0331H473.702V22.7587H518.26L508.255 35.5374H473.702V43.1878ZM549.001 23.8516H579.602C593.306 23.8516 600.704 28.9799 600.704 39.2365C600.704 50.7542 593.726 57.648 576.576 57.648H524.2L535.381 43.1878H577.921C582.04 43.1878 583.89 42.0108 583.89 39.0684C583.89 36.21 582.04 35.033 577.921 35.033H547.319C532.859 35.033 526.218 28.5596 526.218 18.8914C526.218 8.29857 533.279 1.40478 550.346 1.40478H599.191L588.009 16.0331H549.001C544.965 16.0331 543.032 17.0419 543.032 19.9003C543.032 22.7587 544.965 23.8516 549.001 23.8516Z" stroke="black" stroke-width="0.5"/>
<defs>
<linearGradient id="paint0_linear_34_19" x1="301.908" y1="-22.4818" x2="301.908" y2="78.6656" gradientUnits="userSpaceOnUse">
<stop stop-color="#FF00E6"/>
<stop offset="0.915483" stop-color="#6D0062" stop-opacity="0.46"/>
</linearGradient>
<linearGradient id="paint1_linear_34_19" x1="301.908" y1="-22.4818" x2="301.908" y2="78.6656" gradientUnits="userSpaceOnUse">
<stop stop-color="#FF00E6"/>
<stop offset="0.915483" stop-color="#6D0062" stop-opacity="0.46"/>
</linearGradient>
<linearGradient id="paint2_linear_34_19" x1="301.908" y1="-22.4818" x2="301.908" y2="78.6656" gradientUnits="userSpaceOnUse">
<stop stop-color="#FF00E6"/>
<stop offset="0.915483" stop-color="#6D0062" stop-opacity="0.46"/>
</linearGradient>
<linearGradient id="paint3_linear_34_19" x1="301.908" y1="-22.4818" x2="301.908" y2="78.6656" gradientUnits="userSpaceOnUse">
<stop stop-color="#FF00E6"/>
<stop offset="0.915483" stop-color="#6D0062" stop-opacity="0.46"/>
</linearGradient>
<linearGradient id="paint4_linear_34_19" x1="301.908" y1="-22.4818" x2="301.908" y2="78.6656" gradientUnits="userSpaceOnUse">
<stop stop-color="#FF00E6"/>
<stop offset="0.915483" stop-color="#6D0062" stop-opacity="0.46"/>
</linearGradient>
<linearGradient id="paint5_linear_34_19" x1="301.908" y1="-22.4818" x2="301.908" y2="78.6656" gradientUnits="userSpaceOnUse">
<stop stop-color="#FF00E6"/>
<stop offset="0.915483" stop-color="#6D0062" stop-opacity="0.46"/>
</linearGradient>
<linearGradient id="paint6_linear_34_19" x1="301.908" y1="-22.4818" x2="301.908" y2="78.6656" gradientUnits="userSpaceOnUse">
<stop stop-color="#FF00E6"/>
<stop offset="0.915483" stop-color="#6D0062" stop-opacity="0.46"/>
</linearGradient>
<linearGradient id="paint7_linear_34_19" x1="301.908" y1="-22.4818" x2="301.908" y2="78.6656" gradientUnits="userSpaceOnUse">
<stop stop-color="#FF00E6"/>
<stop offset="0.915483" stop-color="#6D0062" stop-opacity="0.46"/>
</linearGradient>
</defs>
</svg>
