<svg width="1002" height="480" viewBox="0 0 1002 480" fill="none" xmlns="http://www.w3.org/2000/svg">
<path d="M191.335 370.135V378.209H249.012V370.135M574.312 370.135V378.209H635.45V370.135" stroke="white" stroke-width="0.6"/>
<path d="M988.311 183.26L961.779 200.563L864.882 205.178H857.96L854.5 204.024V200.563L856.807 195.949L862.575 193.642L887.953 191.335L914.484 187.874L939.862 184.414L958.319 180.953H987.157L988.311 183.26Z" fill="black"/>
<path d="M405.771 235.17C405.771 235.17 409.441 239.591 412.692 240.937C414.814 241.817 416.152 242.091 419.613 242.091C423.074 242.091 423.074 242.091 426.534 243.245C429.995 244.398 428.841 245.552 435.763 245.552C442.684 245.552 534.968 245.552 534.968 245.552M526.893 235.17L514.204 228.248L576.495 221.327M498.054 259.394L515.357 258.241M961.779 200.563L988.311 183.26L987.157 180.953H958.319L939.862 184.414L914.484 187.874L887.953 191.335L862.575 193.642L856.807 195.949L854.5 200.563V204.024L857.96 205.178H864.882L961.779 200.563Z" stroke="black"/>
<path d="M305.412 280.158C305.412 280.158 304.258 253.626 305.412 252.473C306.566 251.319 315.794 245.552 315.794 245.552M315.794 245.552C315.794 245.552 333.097 244.398 340.018 245.552C346.94 246.705 342.325 246.705 360.782 247.859C379.239 249.012 373.496 247.941 381.546 249.012C386.538 249.677 394.235 251.319 394.235 251.319V302.075M315.794 245.552L330.79 238.63L405.77 235.17L545.349 207.485H553.424H575.342H605.334L576.495 221.327M394.235 259.394L443.837 269.776L444.991 285.926M493.44 245.552L444.991 270.93L469.215 272.083L485.365 270.93L500.361 267.469M469.215 258.241H496.9M514.204 266.315V258.241L533.814 252.473L534.967 245.552L548.81 243.245M548.81 243.245V236.323M548.81 243.245L566.113 245.552L576.495 249.012L589.184 253.626L596.105 257.087L598.412 260.548V264.008V266.315L589.184 270.93L569.574 275.544L543.042 282.465M498.054 235.17H762.216V255.934L696.464 267.469H498.054V235.17Z" stroke="white"/>
<rect x="197.103" y="232.012" width="135.659" height="41.8753" transform="rotate(-0.12801 197.103 232.012)" fill="black"/>
<rect x="198.105" y="233.01" width="133.659" height="39.8753" transform="rotate(-0.12801 198.105 233.01)" stroke="white" stroke-opacity="0.89" stroke-width="2"/>
<path d="M497.024 273.237V236.323H762.34V259.565L696.301 273.237H497.024Z" fill="black" stroke="white" stroke-width="2"/>
<path d="M37.7895 207.485C34.3289 210.945 3.9523 227.864 2.02972 231.709C2.02972 232.863 -1.43108 244.398 4.33653 251.319C7.79729 254.78 34.403 266.553 55.0927 272.083C81.0164 279.012 117.635 279.006 124.081 279.004H124.305C130.073 279.004 191.211 280.158 191.211 280.158C191.211 280.158 305.412 279.004 305.412 280.158V302.075C305.412 303.229 311.18 310.15 315.794 310.15H350.4C351.554 310.15 385.391 305.151 396.542 302.075V296.308C416.101 293.527 443.838 289.386 443.838 289.386L447.298 284.772H504.975C513.05 284.772 545.35 282.465 556.885 281.312C560.346 281.312 584.57 279.004 633.019 279.004C659.551 279.004 648.015 283.619 784.133 262.855C893.028 246.244 974.084 217.482 1001 205.178V184.414L947.937 171.725L980.236 1H935.248C920.252 18.6877 880.801 65.8293 842.964 112.894C805.128 159.959 784.133 166.342 778.366 163.65H427.688C427.688 163.65 130.073 164.803 117.384 165.957C104.695 167.111 92.499 168.698 78.1636 175.185C59.7677 183.51 41.2501 204.024 37.7895 207.485Z" fill="url(#paint0_linear_8_30)" stroke="#FF09C9"/>
<path d="M56.2463 205.178H40.0966L47.0179 198.256L50.4785 194.796L78.1636 195.949V197.103V207.485H58.5533L57.3998 206.331L56.2463 205.178Z" fill="#FFE712"/>
<path d="M946.783 170.571H919.098M919.098 170.571L911.023 167.111L904.102 162.496L964.087 3.3071M919.098 170.571H896.027H881.031L786.441 164.803M50.4785 194.796L78.1636 195.949V207.485H58.5533L56.2463 205.178H40.0966L47.0179 198.256L50.4785 194.796ZM50.4785 194.796L59.7069 197.103V200.563H57.3998V206.331M66.6282 206.331V201.717H68.9353V197.103H75.8565H78.1636" stroke="#FF09C9"/>
<path d="M5.6142 416.125C8.01443 412.656 48.8184 374.496 124.426 369.871C184.912 366.17 585.671 368.329 778.49 369.871V478.568C768.889 478.568 773.689 478.568 752.087 478.568H678.88H388.452H131.627C74.6657 468.932 5.6142 453.128 5.6142 418.437" stroke="#FF09C9"/>
<rect x="628.779" y="386.534" width="45.6418" height="71.0198" fill="#606060" fill-opacity="0.42" stroke="white" stroke-width="0.5"/>
<rect x="584.944" y="386.534" width="45.6418" height="71.0198" fill="#606060" fill-opacity="0.42" stroke="white" stroke-width="0.5"/>
<rect x="543.417" y="386.534" width="43.3347" height="71.0198" fill="#606060" fill-opacity="0.42" stroke="white" stroke-width="0.5"/>
<rect x="499.582" y="386.534" width="45.6418" height="71.0198" fill="#606060" fill-opacity="0.42" stroke="white" stroke-width="0.5"/>
<path d="M676.978 456.65V394.359V392.052H701.202L742.73 408.202V440.501L712.738 456.65H676.978Z" fill="#2E2E2E" fill-opacity="0.42"/>
<path d="M676.978 390.898V370.135H703.509V390.898L745.037 407.048V441.654L712.738 458.958M676.978 394.359V456.65H712.738L742.73 440.501V408.202L701.202 392.052H676.978V394.359Z" stroke="white" stroke-width="0.5"/>
<rect x="241.188" y="386.534" width="43.3347" height="71.0198" fill="#6A6868" fill-opacity="0.42" stroke="white" stroke-width="0.5"/>
<rect x="285.022" y="386.534" width="45.6418" height="71.0198" fill="#6A6868" fill-opacity="0.42" stroke="white" stroke-width="0.5"/>
<rect x="195.046" y="386.534" width="45.6418" height="71.0198" fill="#6A6868" fill-opacity="0.42" stroke="white" stroke-width="0.5"/>
<defs>
<linearGradient id="paint0_linear_8_30" x1="501" y1="1" x2="501" y2="310.15" gradientUnits="userSpaceOnUse">
<stop stop-color="#06A5FF"/>
<stop offset="1" stop-color="#4A4B4B" stop-opacity="0.69"/>
</linearGradient>
</defs>
</svg>
