<svg width="1002" height="542" viewBox="0 0 1002 542" fill="none" xmlns="http://www.w3.org/2000/svg">
<path d="M191.335 417.618V426.732H249.012V417.618M574.312 417.618V426.732H635.45V417.618" stroke="#64748B" stroke-width="0.6"/>
<path d="M988.311 206.705L961.779 226.234L864.882 231.442H857.96L854.5 230.14V226.234L856.807 221.027L862.575 218.423L887.953 215.819L914.484 211.913L939.862 208.007L958.319 204.101H987.157L988.311 206.705Z" fill="#77808C" fill-opacity="0.47"/>
<path d="M405.771 265.292C405.771 265.292 409.441 270.282 412.692 271.802C414.814 272.794 416.152 273.104 419.613 273.104C423.074 273.104 423.074 273.104 426.534 274.406C429.995 275.708 428.841 277.01 435.763 277.01C442.684 277.01 501 277 501 277M526 264.5L514.204 257.481L576.495 249.669M961.779 226.234L988.311 206.705L987.157 204.101H958.319L939.862 208.007L914.484 211.913L887.953 215.819L862.575 218.423L856.807 221.027L854.5 226.234V230.14L857.96 231.442H864.882L961.779 226.234Z" stroke="#FF09C9"/>
<path d="M305.412 284.821L305.786 285.153L305.412 284.821ZM315.794 277.01L315.563 276.566C315.543 276.577 315.524 276.588 315.506 276.601L315.794 277.01ZM340.018 277.01L339.926 277.501L340.018 277.01ZM360.782 279.614L360.817 279.115L360.782 279.614ZM381.546 280.915L381.472 281.41L381.546 280.915ZM394.235 283.519H394.735C394.735 283.288 394.577 283.087 394.352 283.033L394.235 283.519ZM443.837 304.35L444.336 304.319C444.322 304.099 444.167 303.914 443.952 303.864L443.837 304.35ZM444.991 305.652L444.736 305.222C444.547 305.334 444.453 305.557 444.505 305.771C444.558 305.985 444.744 306.14 444.964 306.151L444.991 305.652ZM469.215 306.954L469.189 307.453C469.224 307.455 469.259 307.453 469.294 307.448L469.215 306.954ZM500.578 302.494C500.851 302.451 501.037 302.195 500.994 301.922C500.951 301.649 500.695 301.463 500.422 301.506L500.578 302.494ZM591.678 302.967C591.936 302.869 592.066 302.58 591.967 302.322C591.869 302.064 591.58 301.934 591.322 302.033L591.678 302.967ZM569.574 310.86L569.715 311.34C569.728 311.336 569.74 311.332 569.752 311.327L569.574 310.86ZM605.334 234.046L605.572 234.486C605.773 234.377 605.875 234.145 605.818 233.923C605.762 233.701 605.563 233.546 605.334 233.546V234.046ZM545.349 234.046V233.546C545.313 233.546 545.276 233.55 545.24 233.558L545.349 234.046ZM405.77 265.292L405.796 265.792C405.824 265.79 405.852 265.786 405.88 265.78L405.77 265.292ZM330.79 269.198L330.764 268.699C330.692 268.702 330.622 268.722 330.559 268.755L330.79 269.198ZM784 416L784.063 415.504C783.92 415.486 783.777 415.53 783.669 415.625C783.562 415.72 783.5 415.856 783.5 416H784ZM997.5 443H998C998 442.748 997.813 442.536 997.563 442.504L997.5 443ZM997.5 488L997.62 488.485C997.843 488.43 998 488.23 998 488H997.5ZM784 541H783.5C783.5 541.154 783.571 541.299 783.692 541.394C783.813 541.489 783.971 541.522 784.12 541.485L784 541ZM305.412 316.068C305.912 316.048 305.912 316.048 305.912 316.048C305.912 316.048 305.912 316.048 305.912 316.048C305.912 316.048 305.912 316.048 305.912 316.048C305.912 316.048 305.912 316.048 305.912 316.048C305.912 316.048 305.912 316.048 305.912 316.047C305.911 316.047 305.911 316.046 305.911 316.044C305.911 316.042 305.911 316.038 305.911 316.033C305.911 316.022 305.91 316.006 305.909 315.985C305.908 315.943 305.905 315.881 305.902 315.8C305.896 315.637 305.887 315.397 305.876 315.089L304.877 315.125C304.888 315.434 304.897 315.674 304.903 315.837C304.906 315.919 304.908 315.981 304.91 316.023C304.911 316.044 304.911 316.06 304.912 316.071C304.912 316.076 304.912 316.08 304.912 316.083C304.912 316.084 304.912 316.085 304.912 316.086C304.912 316.086 304.912 316.086 304.912 316.087C304.912 316.087 304.912 316.087 304.912 316.087C304.912 316.087 304.912 316.087 304.912 316.087C304.912 316.087 304.912 316.087 304.912 316.087C304.912 316.087 304.912 316.087 305.412 316.068ZM305.808 313.126C305.788 312.542 305.766 311.885 305.744 311.17L304.744 311.202C304.767 311.917 304.788 312.575 304.808 313.16L305.808 313.126ZM305.684 309.213C305.665 308.588 305.646 307.936 305.628 307.262L304.628 307.289C304.647 307.964 304.666 308.617 304.684 309.243L305.684 309.213ZM305.576 305.303C305.56 304.662 305.544 304.009 305.53 303.348L304.53 303.371C304.545 304.032 304.56 304.686 304.577 305.328L305.576 305.303ZM305.488 301.393C305.475 300.742 305.464 300.088 305.453 299.437L304.453 299.454C304.464 300.106 304.476 300.76 304.488 301.412L305.488 301.393ZM305.425 297.481C305.417 296.821 305.411 296.168 305.407 295.527L304.407 295.534C304.411 296.177 304.417 296.831 304.425 297.493L305.425 297.481ZM305.399 293.572C305.399 292.898 305.401 292.245 305.407 291.621L304.407 291.612C304.402 292.24 304.399 292.895 304.399 293.572L305.399 293.572ZM305.437 289.666C305.454 288.953 305.476 288.3 305.505 287.721L304.506 287.671C304.477 288.262 304.454 288.924 304.438 289.642L305.437 289.666ZM305.66 285.814C305.692 285.577 305.726 285.396 305.76 285.268C305.777 285.205 305.791 285.163 305.802 285.138C305.814 285.109 305.812 285.123 305.786 285.153L305.038 284.49C304.903 284.642 304.835 284.854 304.793 285.013C304.744 285.197 304.704 285.423 304.669 285.68L305.66 285.814ZM305.786 285.153C305.905 285.019 306.156 284.79 306.531 284.478L305.892 283.709C305.519 284.019 305.213 284.292 305.038 284.49L305.786 285.153ZM308.217 283.148C308.753 282.738 309.34 282.298 309.943 281.851L309.348 281.047C308.742 281.497 308.151 281.939 307.61 282.353L308.217 283.148ZM311.687 280.571C312.299 280.125 312.895 279.695 313.441 279.302L312.857 278.49C312.31 278.884 311.712 279.316 311.099 279.762L311.687 280.571ZM315.201 278.043C315.475 277.848 315.696 277.692 315.847 277.584C315.923 277.531 315.982 277.489 316.022 277.461C316.042 277.447 316.057 277.436 316.067 277.429C316.072 277.425 316.076 277.423 316.078 277.421C316.08 277.42 316.08 277.419 316.081 277.419C316.081 277.419 316.082 277.419 316.082 277.418C316.082 277.418 316.082 277.418 316.082 277.418C316.082 277.418 316.082 277.418 316.082 277.418C316.082 277.418 316.082 277.418 316.082 277.418C316.082 277.418 316.082 277.418 315.794 277.01C315.506 276.601 315.506 276.601 315.506 276.601C315.506 276.601 315.506 276.601 315.506 276.601C315.506 276.601 315.506 276.601 315.506 276.601C315.505 276.601 315.505 276.601 315.505 276.601C315.505 276.601 315.505 276.602 315.505 276.602C315.504 276.602 315.503 276.603 315.502 276.604C315.499 276.606 315.495 276.608 315.49 276.612C315.48 276.619 315.465 276.63 315.445 276.644C315.405 276.672 315.346 276.714 315.269 276.768C315.117 276.876 314.896 277.033 314.622 277.228L315.201 278.043ZM315.794 277.01C315.831 277.508 315.831 277.508 315.831 277.508C315.831 277.508 315.831 277.508 315.831 277.508C315.831 277.508 315.831 277.508 315.831 277.508C315.831 277.508 315.831 277.508 315.832 277.508C315.832 277.508 315.832 277.508 315.832 277.508C315.833 277.508 315.834 277.508 315.835 277.508C315.838 277.508 315.842 277.507 315.848 277.507C315.859 277.506 315.875 277.505 315.897 277.503C315.94 277.5 316.005 277.496 316.09 277.49C316.259 277.477 316.508 277.46 316.827 277.439L316.76 276.441C316.44 276.462 316.189 276.48 316.019 276.492C315.933 276.498 315.868 276.503 315.824 276.506C315.802 276.508 315.785 276.509 315.774 276.51C315.768 276.51 315.764 276.511 315.761 276.511C315.759 276.511 315.758 276.511 315.757 276.511C315.757 276.511 315.757 276.511 315.757 276.511C315.757 276.511 315.756 276.511 315.756 276.511C315.756 276.511 315.756 276.511 315.756 276.511C315.756 276.511 315.756 276.511 315.756 276.511C315.756 276.511 315.756 276.511 315.794 277.01ZM318.844 277.314C319.45 277.278 320.129 277.241 320.864 277.204L320.814 276.206C320.076 276.243 319.394 276.28 318.786 276.315L318.844 277.314ZM322.878 277.111C323.527 277.084 324.202 277.058 324.895 277.035L324.862 276.036C324.166 276.059 323.488 276.085 322.835 276.112L322.878 277.111ZM326.913 276.978C327.58 276.962 328.255 276.95 328.93 276.942L328.919 275.942C328.238 275.95 327.56 275.962 326.89 275.978L326.913 276.978ZM330.947 276.931C331.627 276.933 332.3 276.94 332.961 276.953L332.981 275.953C332.314 275.94 331.634 275.933 330.949 275.931L330.947 276.931ZM334.971 277.016C335.667 277.046 336.336 277.086 336.97 277.136L337.049 276.139C336.401 276.088 335.72 276.048 335.015 276.017L334.971 277.016ZM338.958 277.345C339.301 277.392 339.624 277.444 339.926 277.501L340.111 276.518C339.791 276.458 339.451 276.404 339.095 276.354L338.958 277.345ZM339.926 277.501C340.301 277.572 340.641 277.638 340.953 277.701L341.152 276.721C340.835 276.657 340.49 276.59 340.111 276.518L339.926 277.501ZM342.98 278.15C343.739 278.332 344.328 278.487 345.034 278.631L345.233 277.651C344.551 277.512 343.997 277.366 343.214 277.177L342.98 278.15ZM347.135 278.969C347.716 279.043 348.4 279.12 349.234 279.203L349.333 278.207C348.506 278.125 347.831 278.05 347.262 277.977L347.135 278.969ZM351.324 279.395C351.955 279.45 352.65 279.507 353.417 279.569L353.496 278.572C352.731 278.511 352.039 278.453 351.41 278.399L351.324 279.395ZM355.503 279.731C356.16 279.78 356.86 279.832 357.607 279.887L357.68 278.89C356.933 278.835 356.234 278.783 355.579 278.734L355.503 279.731ZM359.686 280.037C360.031 280.062 360.384 280.087 360.747 280.112L360.817 279.115C360.455 279.089 360.101 279.064 359.757 279.04L359.686 280.037ZM360.747 280.112C361.108 280.138 361.46 280.162 361.802 280.186L361.871 279.188C361.529 279.165 361.178 279.14 360.817 279.115L360.747 280.112ZM363.869 280.324C364.614 280.372 365.31 280.416 365.961 280.454L366.02 279.456C365.372 279.418 364.677 279.374 363.933 279.326L363.869 280.324ZM368.038 280.572C368.809 280.613 369.5 280.646 370.123 280.673L370.166 279.674C369.547 279.647 368.859 279.614 368.091 279.573L368.038 280.572ZM372.203 280.751C373.059 280.776 373.732 280.787 374.291 280.793L374.302 279.793C373.748 279.788 373.082 279.776 372.233 279.751L372.203 280.751ZM376.362 280.818C376.945 280.836 377.523 280.878 378.389 280.981L378.506 279.988C377.617 279.882 377.01 279.838 376.394 279.818L376.362 280.818ZM380.435 281.257C380.753 281.303 381.097 281.354 381.472 281.41L381.62 280.421C381.245 280.365 380.899 280.313 380.579 280.267L380.435 281.257ZM381.472 281.41C381.812 281.461 382.166 281.517 382.529 281.578L382.694 280.592C382.326 280.53 381.967 280.473 381.62 280.421L381.472 281.41ZM384.644 281.957C385.345 282.089 386.056 282.23 386.757 282.373L386.957 281.393C386.252 281.249 385.536 281.108 384.83 280.974L384.644 281.957ZM388.866 282.816C389.616 282.977 390.328 283.134 390.97 283.278L391.189 282.302C390.544 282.158 389.83 282 389.076 281.838L388.866 282.816ZM393.073 283.759C393.402 283.836 393.663 283.897 393.843 283.94C393.932 283.961 394.001 283.977 394.048 283.989C394.071 283.994 394.088 283.998 394.1 284.001C394.106 284.003 394.111 284.004 394.113 284.004C394.115 284.005 394.116 284.005 394.117 284.005C394.117 284.005 394.117 284.005 394.118 284.005C394.118 284.005 394.118 284.005 394.118 284.005C394.118 284.005 394.118 284.005 394.118 284.005C394.118 284.005 394.118 284.005 394.118 284.005C394.118 284.005 394.118 284.005 394.235 283.519C394.352 283.033 394.352 283.033 394.352 283.033C394.352 283.033 394.352 283.033 394.352 283.033C394.352 283.033 394.352 283.033 394.352 283.033C394.352 283.033 394.352 283.033 394.352 283.033C394.351 283.033 394.351 283.033 394.351 283.033C394.35 283.033 394.349 283.032 394.347 283.032C394.344 283.031 394.34 283.03 394.334 283.029C394.322 283.026 394.304 283.022 394.28 283.016C394.233 283.005 394.164 282.988 394.073 282.967C393.893 282.924 393.63 282.862 393.3 282.785L393.073 283.759ZM393.735 283.519V284.542H394.735V283.519H393.735ZM393.735 286.588V288.634H394.735V286.588H393.735ZM393.735 290.68V292.726H394.735V290.68H393.735ZM393.735 294.772V296.818H394.735V294.772H393.735ZM393.735 298.864V300.909H394.735V298.864H393.735ZM393.735 302.955V305.001H394.735V302.955H393.735ZM393.735 307.047V309.093H394.735V307.047H393.735ZM393.735 311.139V313.185H394.735V311.139H393.735ZM393.735 315.231V317.277H394.735V315.231H393.735ZM393.735 319.322V321.368H394.735V319.322H393.735ZM393.735 323.414V325.46H394.735V323.414H393.735ZM393.735 327.506V329.552H394.735V327.506H393.735ZM393.735 331.598V333.644H394.735V331.598H393.735ZM393.735 335.69V337.736H394.735V335.69H393.735ZM393.735 339.781V340.804H394.735V339.781H393.735ZM316.025 277.453L316.962 276.965L316.5 276.078L315.563 276.566L316.025 277.453ZM318.837 275.988L320.711 275.012L320.249 274.125L318.375 275.102L318.837 275.988ZM322.586 274.036L324.46 273.059L323.998 272.172L322.124 273.149L322.586 274.036ZM326.335 272.083L328.209 271.106L327.747 270.219L325.873 271.196L326.335 272.083ZM330.084 270.13L331.021 269.642L330.559 268.755L329.622 269.243L330.084 270.13ZM330.816 269.697L331.803 269.646L331.75 268.647L330.764 268.699L330.816 269.697ZM333.776 269.543L335.749 269.44L335.697 268.442L333.724 268.545L333.776 269.543ZM337.722 269.338L339.695 269.235L339.643 268.236L337.67 268.339L337.722 269.338ZM341.668 269.132L343.642 269.029L343.59 268.031L341.616 268.133L341.668 269.132ZM345.615 268.927L347.588 268.824L347.536 267.825L345.563 267.928L345.615 268.927ZM349.561 268.721L351.534 268.618L351.482 267.62L349.509 267.722L349.561 268.721ZM353.507 268.515L355.481 268.413L355.429 267.414L353.455 267.517L353.507 268.515ZM357.454 268.31L359.427 268.207L359.375 267.208L357.402 267.311L357.454 268.31ZM361.4 268.104L363.373 268.001L363.321 267.003L361.348 267.106L361.4 268.104ZM365.346 267.899L367.32 267.796L367.268 266.797L365.294 266.9L365.346 267.899ZM369.293 267.693L371.266 267.59L371.214 266.592L369.241 266.694L369.293 267.693ZM373.239 267.488L375.212 267.385L375.16 266.386L373.187 266.489L373.239 267.488ZM377.185 267.282L379.159 267.179L379.107 266.181L377.133 266.283L377.185 267.282ZM381.132 267.076L383.105 266.974L383.053 265.975L381.08 266.078L381.132 267.076ZM385.078 266.871L387.051 266.768L386.999 265.769L385.026 265.872L385.078 266.871ZM389.024 266.665L390.998 266.562L390.946 265.564L388.972 265.667L389.024 266.665ZM392.971 266.46L394.944 266.357L394.892 265.358L392.919 265.461L392.971 266.46ZM396.917 266.254L398.89 266.151L398.838 265.153L396.865 265.255L396.917 266.254ZM400.863 266.049L402.837 265.946L402.785 264.947L400.811 265.05L400.863 266.049ZM404.81 265.843L405.796 265.792L405.744 264.793L404.758 264.844L404.81 265.843ZM405.88 265.78L406.849 265.563L406.63 264.587L405.661 264.804L405.88 265.78ZM408.787 265.129L410.726 264.695L410.508 263.719L408.569 264.153L408.787 265.129ZM412.665 264.261L414.603 263.827L414.385 262.851L412.446 263.285L412.665 264.261ZM416.542 263.393L418.48 262.959L418.262 261.984L416.323 262.417L416.542 263.393ZM420.419 262.525L422.358 262.091L422.139 261.116L420.201 261.55L420.419 262.525ZM424.296 261.657L426.235 261.223L426.016 260.248L424.078 260.682L424.296 261.657ZM428.173 260.789L430.112 260.355L429.894 259.38L427.955 259.814L428.173 260.789ZM432.051 259.922L433.989 259.488L433.771 258.512L431.832 258.946L432.051 259.922ZM435.928 259.054L437.866 258.62L437.648 257.644L435.709 258.078L435.928 259.054ZM439.805 258.186L441.744 257.752L441.525 256.776L439.587 257.21L439.805 258.186ZM443.682 257.318L445.621 256.884L445.402 255.908L443.464 256.342L443.682 257.318ZM447.559 256.45L449.498 256.016L449.28 255.04L447.341 255.474L447.559 256.45ZM451.437 255.582L453.375 255.148L453.157 254.172L451.218 254.606L451.437 255.582ZM455.314 254.714L457.252 254.28L457.034 253.304L455.095 253.738L455.314 254.714ZM459.191 253.846L461.13 253.412L460.911 252.436L458.973 252.87L459.191 253.846ZM463.068 252.978L465.007 252.544L464.788 251.568L462.85 252.002L463.068 252.978ZM466.945 252.11L468.884 251.676L468.666 250.7L466.727 251.134L466.945 252.11ZM470.823 251.242L472.761 250.808L472.543 249.832L470.604 250.266L470.823 251.242ZM474.7 250.374L476.638 249.94L476.42 248.964L474.481 249.398L474.7 250.374ZM478.577 249.506L480.516 249.072L480.297 248.096L478.359 248.53L478.577 249.506ZM482.454 248.638L484.393 248.204L484.174 247.228L482.236 247.662L482.454 248.638ZM486.331 247.77L488.27 247.336L488.052 246.36L486.113 246.794L486.331 247.77ZM490.209 246.902L492.147 246.468L491.929 245.492L489.99 245.926L490.209 246.902ZM494.086 246.034L496.024 245.6L495.806 244.624L493.867 245.058L494.086 246.034ZM497.963 245.166L499.902 244.732L499.683 243.756L497.745 244.19L497.963 245.166ZM501.84 244.298L503.779 243.864L503.56 242.888L501.622 243.322L501.84 244.298ZM505.717 243.43L507.656 242.996L507.438 242.021L505.499 242.455L505.717 243.43ZM509.595 242.562L511.533 242.128L511.315 241.153L509.376 241.587L509.595 242.562ZM513.472 241.694L515.41 241.26L515.192 240.285L513.253 240.719L513.472 241.694ZM517.349 240.826L519.288 240.393L519.069 239.417L517.131 239.851L517.349 240.826ZM521.226 239.959L523.165 239.525L522.946 238.549L521.008 238.983L521.226 239.959ZM525.103 239.091L527.042 238.657L526.823 237.681L524.885 238.115L525.103 239.091ZM528.981 238.223L530.919 237.789L530.701 236.813L528.762 237.247L528.981 238.223ZM532.858 237.355L534.796 236.921L534.578 235.945L532.639 236.379L532.858 237.355ZM536.735 236.487L538.674 236.053L538.455 235.077L536.516 235.511L536.735 236.487ZM540.612 235.619L542.551 235.185L542.332 234.209L540.394 234.643L540.612 235.619ZM544.489 234.751L545.459 234.534L545.24 233.558L544.271 233.775L544.489 234.751ZM545.349 234.546H546.359V233.546H545.349V234.546ZM548.377 234.546H550.396V233.546H548.377V234.546ZM552.415 234.546H553.424V233.546H552.415V234.546ZM553.424 234.546H554.52V233.546H553.424V234.546ZM556.712 234.546H558.904V233.546H556.712V234.546ZM561.095 234.546H563.287V233.546H561.095V234.546ZM565.479 234.546H567.67V233.546H565.479V234.546ZM569.862 234.546H572.054V233.546H569.862V234.546ZM574.246 234.546H575.342V233.546H574.246V234.546ZM575.342 234.546H576.413V233.546H575.342V234.546ZM578.555 234.546H580.697V233.546H578.555V234.546ZM582.84 234.546H584.982V233.546H582.84V234.546ZM587.124 234.546H589.266V233.546H587.124V234.546ZM591.409 234.546H593.551V233.546H591.409V234.546ZM595.693 234.546H597.836V233.546H595.693V234.546ZM599.978 234.546H602.12V233.546H599.978V234.546ZM604.263 234.546H605.334V233.546H604.263V234.546ZM605.096 233.606L604.194 234.094L604.671 234.974L605.572 234.486L605.096 233.606ZM602.392 235.071L600.59 236.047L601.066 236.927L602.868 235.95L602.392 235.071ZM598.787 237.024L596.985 238L597.461 238.88L599.263 237.903L598.787 237.024ZM595.182 238.977L593.38 239.953L593.856 240.832L595.659 239.856L595.182 238.977ZM591.577 240.93L589.775 241.906L590.251 242.785L592.054 241.809L591.577 240.93ZM587.973 242.883L586.17 243.859L586.647 244.738L588.449 243.762L587.973 242.883ZM584.368 244.835L582.565 245.812L583.042 246.691L584.844 245.715L584.368 244.835ZM580.763 246.788L578.961 247.765L579.437 248.644L581.239 247.668L580.763 246.788ZM577.158 248.741L576.257 249.229L576.733 250.109L577.634 249.62L577.158 248.741ZM394.12 293.119L395.074 293.345L395.304 292.372L394.35 292.146L394.12 293.119ZM396.982 293.795L398.889 294.246L399.119 293.273L397.212 292.822L396.982 293.795ZM400.797 294.697L402.705 295.147L402.935 294.174L401.027 293.724L400.797 294.697ZM404.613 295.598L406.521 296.049L406.75 295.076L404.843 294.625L404.613 295.598ZM408.428 296.499L410.336 296.95L410.566 295.977L408.658 295.526L408.428 296.499ZM412.244 297.401L414.152 297.851L414.382 296.878L412.474 296.428L412.244 297.401ZM416.06 298.302L417.967 298.753L418.197 297.78L416.289 297.329L416.06 298.302ZM419.875 299.203L421.783 299.654L422.013 298.681L420.105 298.23L419.875 299.203ZM423.691 300.105L425.598 300.556L425.828 299.582L423.921 299.132L423.691 300.105ZM427.506 301.006L429.414 301.457L429.644 300.484L427.736 300.033L427.506 301.006ZM431.322 301.908L433.23 302.358L433.459 301.385L431.552 300.934L431.322 301.908ZM435.137 302.809L437.045 303.26L437.275 302.286L435.367 301.836L435.137 302.809ZM438.953 303.71L440.861 304.161L441.091 303.188L439.183 302.737L438.953 303.71ZM442.769 304.612L443.722 304.837L443.952 303.864L442.998 303.638L442.769 304.612ZM443.338 304.382L443.396 305.293L444.394 305.23L444.336 304.319L443.338 304.382ZM443.511 307.116L443.627 308.939L444.625 308.875L444.509 307.053L443.511 307.116ZM443.742 310.761L443.857 312.584L444.855 312.521L444.74 310.698L443.742 310.761ZM443.973 314.407L444.088 316.229L445.086 316.166L444.971 314.344L443.973 314.407ZM444.204 318.052L444.319 319.875L445.317 319.812L445.202 317.989L444.204 318.052ZM444.434 321.698L444.492 322.609L445.49 322.546L445.432 321.634L444.434 321.698ZM493.185 276.579L492.32 277.091L492.829 277.952L493.694 277.44L493.185 276.579ZM490.59 278.114L488.86 279.137L489.368 279.997L491.099 278.975L490.59 278.114ZM487.129 280.16L485.399 281.183L485.908 282.043L487.638 281.02L487.129 280.16ZM483.669 282.205L481.938 283.228L482.447 284.089L484.178 283.066L483.669 282.205ZM480.208 284.251L478.478 285.274L478.987 286.135L480.717 285.112L480.208 284.251ZM476.747 286.297L475.017 287.32L475.526 288.181L477.256 287.158L476.747 286.297ZM473.287 288.343L471.556 289.366L472.065 290.227L473.796 289.204L473.287 288.343ZM469.826 290.389L468.096 291.412L468.605 292.273L470.335 291.25L469.826 290.389ZM466.365 292.435L464.635 293.458L465.144 294.319L466.874 293.296L466.365 292.435ZM462.905 294.481L461.174 295.504L461.683 296.365L463.414 295.342L462.905 294.481ZM459.444 296.527L457.714 297.55L458.223 298.41L459.953 297.388L459.444 296.527ZM455.984 298.573L454.253 299.596L454.762 300.456L456.492 299.433L455.984 298.573ZM452.523 300.619L450.793 301.641L451.301 302.502L453.032 301.479L452.523 300.619ZM449.062 302.664L447.332 303.687L447.841 304.548L449.571 303.525L449.062 302.664ZM445.602 304.71L444.736 305.222L445.245 306.083L446.11 305.571L445.602 304.71ZM444.964 306.151L445.973 306.206L446.027 305.207L445.018 305.153L444.964 306.151ZM447.992 306.314L450.011 306.423L450.064 305.424L448.046 305.316L447.992 306.314ZM452.03 306.531L454.048 306.64L454.102 305.641L452.083 305.533L452.03 306.531ZM456.067 306.748L458.086 306.857L458.139 305.858L456.121 305.75L456.067 306.748ZM460.104 306.965L462.123 307.074L462.177 306.075L460.158 305.967L460.104 306.965ZM464.142 307.182L466.16 307.291L466.214 306.292L464.195 306.184L464.142 307.182ZM468.179 307.399L469.189 307.453L469.242 306.455L468.233 306.401L468.179 307.399ZM469.294 307.448L470.271 307.293L470.115 306.305L469.137 306.46L469.294 307.448ZM472.227 306.984L474.182 306.674L474.025 305.686L472.07 305.996L472.227 306.984ZM476.137 306.364L478.092 306.055L477.936 305.067L475.981 305.377L476.137 306.364ZM480.048 305.745L482.003 305.435L481.847 304.448L479.891 304.757L480.048 305.745ZM483.958 305.126L485.914 304.816L485.757 303.828L483.802 304.138L483.958 305.126ZM487.869 304.506L489.824 304.197L489.668 303.209L487.712 303.519L487.869 304.506ZM491.779 303.887L493.735 303.578L493.578 302.59L491.623 302.899L491.779 303.887ZM495.69 303.268L497.645 302.958L497.489 301.971L495.534 302.28L495.69 303.268ZM499.601 302.649L500.578 302.494L500.422 301.506L499.444 301.661L499.601 302.649ZM469.215 291.831H470.209V290.831H469.215V291.831ZM472.195 291.831H474.182V290.831H472.195V291.831ZM476.168 291.831H478.155V290.831H476.168V291.831ZM480.141 291.831H482.128V290.831H480.141V291.831ZM484.114 291.831H486.101V290.831H484.114V291.831ZM488.087 291.831H490.074V290.831H488.087V291.831ZM492.061 291.831H494.047V290.831H492.061V291.831ZM496.034 291.831H498.02V290.831H496.034V291.831ZM500.007 291.831H501V290.831H500.007V291.831ZM543.183 319.151L544.131 318.872L543.849 317.913L542.901 318.192L543.183 319.151ZM546.026 318.314L547.921 317.756L547.639 316.797L545.744 317.355L546.026 318.314ZM549.816 317.198L551.711 316.64L551.429 315.681L549.534 316.239L549.816 317.198ZM553.607 316.082L555.502 315.524L555.219 314.565L553.324 315.123L553.607 316.082ZM557.397 314.966L559.292 314.408L559.009 313.449L557.114 314.007L557.397 314.966ZM561.187 313.85L563.082 313.292L562.8 312.333L560.905 312.891L561.187 313.85ZM564.977 312.734L566.872 312.177L566.59 311.217L564.695 311.775L564.977 312.734ZM568.767 311.619L569.715 311.34L569.433 310.38L568.485 310.659L568.767 311.619ZM569.752 311.327L570.666 310.979L570.309 310.044L569.396 310.393L569.752 311.327ZM572.493 310.282L574.32 309.585L573.964 308.651L572.136 309.348L572.493 310.282ZM576.147 308.889L577.974 308.192L577.618 307.258L575.791 307.954L576.147 308.889ZM579.801 307.495L581.629 306.799L581.272 305.864L579.445 306.561L579.801 307.495ZM583.456 306.102L585.283 305.406L584.927 304.471L583.1 305.168L583.456 306.102ZM587.11 304.709L588.937 304.012L588.581 303.078L586.754 303.774L587.11 304.709ZM590.765 303.316L591.678 302.967L591.322 302.033L590.408 302.381L590.765 303.316ZM783.5 416V417.008H784.5V416H783.5ZM783.5 419.024V421.04H784.5V419.024H783.5ZM783.5 423.056V425.073H784.5V423.056H783.5ZM783.5 427.089V429.105H784.5V427.089H783.5ZM783.5 431.121V433.137H784.5V431.121H783.5ZM783.5 435.153V437.169H784.5V435.153H783.5ZM783.5 439.185V441.202H784.5V439.185H783.5ZM783.5 443.218V445.234H784.5V443.218H783.5ZM783.5 447.25V449.266H784.5V447.25H783.5ZM783.5 451.282V453.298H784.5V451.282H783.5ZM783.5 455.315V457.331H784.5V455.315H783.5ZM783.5 459.347V461.363H784.5V459.347H783.5ZM783.5 463.379V465.395H784.5V463.379H783.5ZM783.5 467.411V469.427H784.5V467.411H783.5ZM783.5 471.444V473.46H784.5V471.444H783.5ZM783.5 475.476V477.492H784.5V475.476H783.5ZM783.5 479.508V481.524H784.5V479.508H783.5ZM783.5 483.54V485.556H784.5V483.54H783.5ZM783.5 487.573V489.589H784.5V487.573H783.5ZM783.5 491.605V493.621H784.5V491.605H783.5ZM783.5 495.637V497.653H784.5V495.637H783.5ZM783.5 499.669V501.685H784.5V499.669H783.5ZM783.5 503.702V505.718H784.5V503.702H783.5ZM783.5 507.734V509.75H784.5V507.734H783.5ZM783.5 511.766V513.782H784.5V511.766H783.5ZM783.5 515.798V517.815H784.5V515.798H783.5ZM783.5 519.831V521.847H784.5V519.831H783.5ZM783.5 523.863V525.879H784.5V523.863H783.5ZM783.5 527.895V529.911H784.5V527.895H783.5ZM783.5 531.927V533.944H784.5V531.927H783.5ZM783.5 535.96V537.976H784.5V535.96H783.5ZM783.5 539.992V541H784.5V539.992H783.5ZM784.12 541.485L785.091 541.244L784.85 540.274L783.88 540.515L784.12 541.485ZM787.032 540.763L788.973 540.281L788.732 539.31L786.791 539.792L787.032 540.763ZM790.914 539.799L792.855 539.317L792.614 538.347L790.673 538.828L790.914 539.799ZM794.795 538.835L796.736 538.353L796.495 537.383L794.555 537.865L794.795 538.835ZM798.677 537.872L800.618 537.39L800.377 536.419L798.436 536.901L798.677 537.872ZM802.559 536.908L804.5 536.426L804.259 535.456L802.318 535.937L802.559 536.908ZM806.441 535.944L808.382 535.463L808.141 534.492L806.2 534.974L806.441 535.944ZM810.323 534.981L812.264 534.499L812.023 533.528L810.082 534.01L810.323 534.981ZM814.205 534.017L816.145 533.535L815.905 532.565L813.964 533.047L814.205 534.017ZM818.086 533.053L820.027 532.572L819.786 531.601L817.845 532.083L818.086 533.053ZM821.968 532.09L823.909 531.608L823.668 530.637L821.727 531.119L821.968 532.09ZM825.85 531.126L827.791 530.644L827.55 529.674L825.609 530.156L825.85 531.126ZM829.732 530.163L831.673 529.681L831.432 528.71L829.491 529.192L829.732 530.163ZM833.614 529.199L835.555 528.717L835.314 527.747L833.373 528.228L833.614 529.199ZM837.495 528.235L839.436 527.753L839.195 526.783L837.255 527.265L837.495 528.235ZM841.377 527.272L843.318 526.79L843.077 525.819L841.136 526.301L841.377 527.272ZM845.259 526.308L847.2 525.826L846.959 524.856L845.018 525.337L845.259 526.308ZM849.141 525.344L851.082 524.863L850.841 523.892L848.9 524.374L849.141 525.344ZM853.023 524.381L854.964 523.899L854.723 522.928L852.782 523.41L853.023 524.381ZM856.905 523.417L858.845 522.935L858.605 521.965L856.664 522.447L856.905 523.417ZM860.786 522.453L862.727 521.972L862.486 521.001L860.545 521.483L860.786 522.453ZM864.668 521.49L866.609 521.008L866.368 520.037L864.427 520.519L864.668 521.49ZM868.55 520.526L870.491 520.044L870.25 519.074L868.309 519.556L868.55 520.526ZM872.432 519.563L874.373 519.081L874.132 518.11L872.191 518.592L872.432 519.563ZM876.314 518.599L878.255 518.117L878.014 517.147L876.073 517.628L876.314 518.599ZM880.195 517.635L882.136 517.153L881.895 516.183L879.955 516.665L880.195 517.635ZM884.077 516.672L886.018 516.19L885.777 515.219L883.836 515.701L884.077 516.672ZM887.959 515.708L889.9 515.226L889.659 514.256L887.718 514.737L887.959 515.708ZM891.841 514.744L893.782 514.263L893.541 513.292L891.6 513.774L891.841 514.744ZM895.723 513.781L897.664 513.299L897.423 512.328L895.482 512.81L895.723 513.781ZM899.605 512.817L901.545 512.335L901.304 511.365L899.364 511.847L899.605 512.817ZM903.486 511.853L905.427 511.372L905.186 510.401L903.245 510.883L903.486 511.853ZM907.368 510.89L909.309 510.408L909.068 509.437L907.127 509.919L907.368 510.89ZM911.25 509.926L913.191 509.444L912.95 508.474L911.009 508.956L911.25 509.926ZM915.132 508.963L917.073 508.481L916.832 507.51L914.891 507.992L915.132 508.963ZM919.014 507.999L920.954 507.517L920.714 506.547L918.773 507.028L919.014 507.999ZM922.895 507.035L924.836 506.553L924.595 505.583L922.654 506.065L922.895 507.035ZM926.777 506.072L928.718 505.59L928.477 504.619L926.536 505.101L926.777 506.072ZM930.659 505.108L932.6 504.626L932.359 503.656L930.418 504.137L930.659 505.108ZM934.541 504.144L936.482 503.663L936.241 502.692L934.3 503.174L934.541 504.144ZM938.423 503.181L940.364 502.699L940.123 501.728L938.182 502.21L938.423 503.181ZM942.304 502.217L944.245 501.735L944.004 500.765L942.064 501.247L942.304 502.217ZM946.186 501.253L948.127 500.772L947.886 499.801L945.945 500.283L946.186 501.253ZM950.068 500.29L952.009 499.808L951.768 498.837L949.827 499.319L950.068 500.29ZM953.95 499.326L955.891 498.844L955.65 497.874L953.709 498.356L953.95 499.326ZM957.832 498.363L959.773 497.881L959.532 496.91L957.591 497.392L957.832 498.363ZM961.714 497.399L963.654 496.917L963.414 495.947L961.473 496.428L961.714 497.399ZM965.595 496.435L967.536 495.953L967.295 494.983L965.354 495.465L965.595 496.435ZM969.477 495.472L971.418 494.99L971.177 494.019L969.236 494.501L969.477 495.472ZM973.359 494.508L975.3 494.026L975.059 493.056L973.118 493.537L973.359 494.508ZM977.241 493.544L979.182 493.063L978.941 492.092L977 492.574L977.241 493.544ZM981.123 492.581L983.063 492.099L982.823 491.128L980.882 491.61L981.123 492.581ZM985.004 491.617L986.945 491.135L986.704 490.165L984.763 490.647L985.004 491.617ZM988.886 490.653L990.827 490.172L990.586 489.201L988.645 489.683L988.886 490.653ZM992.768 489.69L994.709 489.208L994.468 488.237L992.527 488.719L992.768 489.69ZM996.65 488.726L997.62 488.485L997.38 487.515L996.409 487.756L996.65 488.726ZM998 488V486.977H997V488H998ZM998 484.932V482.886H997V484.932H998ZM998 480.841V478.795H997V480.841H998ZM998 476.75V474.705H997V476.75H998ZM998 472.659V470.614H997V472.659H998ZM998 468.568V466.523H997V468.568H998ZM998 464.477V462.432H997V464.477H998ZM998 460.386V458.341H997V460.386H998ZM998 456.295V454.25H997V456.295H998ZM998 452.205V450.159H997V452.205H998ZM998 448.114V446.068H997V448.114H998ZM998 444.023V443H997V444.023H998ZM997.563 442.504L996.574 442.379L996.449 443.371L997.437 443.496L997.563 442.504ZM994.597 442.129L992.621 441.879L992.495 442.871L994.472 443.121L994.597 442.129ZM990.644 441.629L988.667 441.379L988.541 442.371L990.518 442.621L990.644 441.629ZM986.69 441.129L984.713 440.879L984.588 441.871L986.565 442.121L986.69 441.129ZM982.736 440.629L980.759 440.379L980.634 441.371L982.611 441.621L982.736 440.629ZM978.783 440.129L976.806 439.879L976.68 440.871L978.657 441.121L978.783 440.129ZM974.829 439.629L972.852 439.379L972.727 440.371L974.703 440.621L974.829 439.629ZM970.875 439.129L968.898 438.879L968.773 439.871L970.75 440.121L970.875 439.129ZM966.922 438.629L964.945 438.379L964.819 439.371L966.796 439.621L966.922 438.629ZM962.968 438.129L960.991 437.879L960.866 438.871L962.842 439.121L962.968 438.129ZM959.014 437.629L957.037 437.379L956.912 438.371L958.889 438.621L959.014 437.629ZM955.06 437.129L953.084 436.879L952.958 437.871L954.935 438.121L955.06 437.129ZM951.107 436.629L949.13 436.379L949.004 437.371L950.981 437.621L951.107 436.629ZM947.153 436.129L945.176 435.879L945.051 436.871L947.028 437.121L947.153 436.129ZM943.199 435.629L941.222 435.379L941.097 436.371L943.074 436.621L943.199 435.629ZM939.246 435.129L937.269 434.879L937.143 435.871L939.12 436.121L939.246 435.129ZM935.292 434.629L933.315 434.379L933.19 435.371L935.166 435.621L935.292 434.629ZM931.338 434.129L929.361 433.879L929.236 434.871L931.213 435.121L931.338 434.129ZM927.384 433.629L925.408 433.379L925.282 434.371L927.259 434.621L927.384 433.629ZM923.431 433.129L921.454 432.879L921.328 433.871L923.305 434.121L923.431 433.129ZM919.477 432.629L917.5 432.379L917.375 433.371L919.352 433.621L919.477 432.629ZM915.523 432.129L913.547 431.879L913.421 432.871L915.398 433.121L915.523 432.129ZM911.57 431.629L909.593 431.379L909.467 432.371L911.444 432.621L911.57 431.629ZM907.616 431.129L905.639 430.879L905.514 431.871L907.49 432.121L907.616 431.129ZM903.662 430.629L901.685 430.379L901.56 431.371L903.537 431.621L903.662 430.629ZM899.709 430.129L897.732 429.879L897.606 430.871L899.583 431.121L899.709 430.129ZM895.755 429.629L893.778 429.379L893.653 430.371L895.629 430.621L895.755 429.629ZM891.801 429.129L889.824 428.879L889.699 429.871L891.676 430.121L891.801 429.129ZM887.847 428.629L885.871 428.379L885.745 429.371L887.722 429.621L887.847 428.629ZM883.894 428.129L881.917 427.879L881.791 428.871L883.768 429.121L883.894 428.129ZM879.94 427.629L877.963 427.379L877.838 428.371L879.815 428.621L879.94 427.629ZM875.986 427.129L874.009 426.879L873.884 427.871L875.861 428.121L875.986 427.129ZM872.033 426.629L870.056 426.379L869.93 427.371L871.907 427.621L872.033 426.629ZM868.079 426.129L866.102 425.879L865.977 426.871L867.953 427.121L868.079 426.129ZM864.125 425.629L862.148 425.379L862.023 426.371L864 426.621L864.125 425.629ZM860.171 425.129L858.195 424.879L858.069 425.871L860.046 426.121L860.171 425.129ZM856.218 424.629L854.241 424.379L854.115 425.371L856.092 425.621L856.218 424.629ZM852.264 424.129L850.287 423.879L850.162 424.871L852.139 425.121L852.264 424.129ZM848.31 423.629L846.333 423.379L846.208 424.371L848.185 424.621L848.31 423.629ZM844.357 423.129L842.38 422.879L842.254 423.871L844.231 424.121L844.357 423.129ZM840.403 422.629L838.426 422.379L838.301 423.371L840.277 423.621L840.403 422.629ZM836.449 422.129L834.472 421.879L834.347 422.871L836.324 423.121L836.449 422.129ZM832.496 421.629L830.519 421.379L830.393 422.371L832.37 422.621L832.496 421.629ZM828.542 421.129L826.565 420.879L826.439 421.871L828.416 422.121L828.542 421.129ZM824.588 420.629L822.611 420.379L822.486 421.371L824.463 421.621L824.588 420.629ZM820.634 420.129L818.658 419.879L818.532 420.871L820.509 421.121L820.634 420.129ZM816.681 419.629L814.704 419.379L814.578 420.371L816.555 420.621L816.681 419.629ZM812.727 419.129L810.75 418.879L810.625 419.871L812.601 420.121L812.727 419.129ZM808.773 418.629L806.796 418.379L806.671 419.371L808.648 419.621L808.773 418.629ZM804.82 418.129L802.843 417.879L802.717 418.871L804.694 419.121L804.82 418.129ZM800.866 417.629L798.889 417.379L798.764 418.371L800.74 418.621L800.866 417.629ZM796.912 417.129L794.935 416.879L794.81 417.871L796.787 418.121L796.912 417.129ZM792.958 416.629L790.982 416.379L790.856 417.371L792.833 417.621L792.958 416.629ZM789.005 416.129L787.028 415.879L786.902 416.871L788.879 417.121L789.005 416.129ZM785.051 415.629L784.063 415.504L783.937 416.496L784.926 416.621L785.051 415.629Z" fill="#475569"/>
<rect x="0.500988" y="0.498738" width="134.659" height="36.4345" transform="matrix(0.999997 -0.00252159 0.00197956 0.999998 194.999 265.343)" stroke="#64748B"/>
<rect x="0.500988" y="0.498738" width="166.797" height="36.4345" transform="matrix(0.999997 -0.00252159 0.00197956 0.999998 500.999 265.343)" fill="#6D6D6D" fill-opacity="0.06" stroke="#64748B"/>
<path d="M37.7895 234.046C34.3289 237.952 3.9523 257.047 2.02972 261.386C2.02972 262.688 -1.43108 275.708 4.33653 283.519C7.79729 287.425 34.403 300.712 55.0927 306.954C81.0164 314.775 117.635 314.767 124.081 314.766L124.305 314.766C130.073 314.766 191.211 316.068 191.211 316.068C191.211 316.068 305.412 314.766 305.412 316.068V340.804C305.412 342.106 311.18 349.918 315.794 349.918H350.4C351.554 349.918 385.391 344.276 396.542 340.804V334.295C416.101 331.156 443.837 326.483 443.837 326.483L447.298 321.275H504.975C513.05 321.275 545.35 318.672 556.885 317.37C560.346 317.37 584.57 314.766 633.019 314.766C659.551 314.766 648.015 319.973 784.133 296.539C893.028 277.791 974.084 245.329 1001 231.442V208.007L947.937 193.686L980.236 1H935.248C920.252 20.963 880.801 74.1686 842.964 127.287C805.128 180.406 784.133 187.61 778.366 184.572H427.688C427.688 184.572 130.073 185.874 117.384 187.176C104.695 188.478 92.499 190.27 78.1636 197.592C59.7677 206.987 41.2501 230.14 37.7895 234.046Z" fill="#E0E0E0" fill-opacity="0.04" stroke="#FF09C9" stroke-width="2"/>
<path d="M919.098 192.384H946.783L978.5 3.60387H964.087L904.102 183.271L911.023 188.478L919.098 192.384Z" fill="#B0B0B6" fill-opacity="0.278431"/>
<path d="M56.2463 231.442H40.0966L47.0179 223.63L50.4785 219.725L78.1636 221.027V222.329V234.046H58.5533L57.3998 232.744L56.2463 231.442Z" fill="#B0B0B6" fill-opacity="0.278431"/>
<path d="M919.098 192.384H946.783L978.5 3.60387H964.087L904.102 183.271L911.023 188.478L919.098 192.384ZM919.098 192.384H896.027H881.031L783.5 185M50.4785 219.725L78.1636 221.027V234.046H58.5533L56.2463 231.442H40.0966L47.0179 223.63L50.4785 219.725ZM50.4785 219.725L59.7069 222.329V226.234H57.3998V232.744M66.6282 232.744V227.536H68.9353V222.329H75.8565H78.1636" stroke="#FF09C9"/>
<path d="M737 291.208L670 302V265H737V291.208Z" fill="#6D6D6D" fill-opacity="0.11" stroke="#64748B"/>
<path d="M124.426 417.32C48.8184 422.541 9.5 464.5 6 469.5L5.6142 472.135C5.6142 511.288 74.6657 529.124 131.627 540H388.452H678.88H752.087H778.49V417.32C585.671 415.58 184.912 413.144 124.426 417.32Z" fill="#E0E0E0" fill-opacity="0.04" stroke="#FF09C9" stroke-width="2"/>
<path d="M643.3 497.55C643.393 496.897 643.573 496.32 643.84 495.82C644.107 495.313 644.443 494.89 644.85 494.55C645.263 494.21 645.733 493.953 646.26 493.78C646.793 493.6 647.367 493.51 647.98 493.51C648.587 493.51 649.147 493.597 649.66 493.77C650.173 493.943 650.613 494.19 650.98 494.51C651.353 494.83 651.643 495.217 651.85 495.67C652.057 496.123 652.16 496.627 652.16 497.18C652.16 497.633 652.1 498.04 651.98 498.4C651.867 498.753 651.7 499.063 651.48 499.33C651.267 499.597 651.007 499.823 650.7 500.01C650.393 500.197 650.05 500.35 649.67 500.47C650.603 500.71 651.303 501.123 651.77 501.71C652.243 502.29 652.48 503.017 652.48 503.89C652.48 504.55 652.353 505.143 652.1 505.67C651.853 506.197 651.513 506.647 651.08 507.02C650.647 507.387 650.14 507.67 649.56 507.87C648.987 508.063 648.37 508.16 647.71 508.16C646.95 508.16 646.3 508.067 645.76 507.88C645.22 507.687 644.763 507.423 644.39 507.09C644.017 506.757 643.71 506.363 643.47 505.91C643.23 505.45 643.027 504.953 642.86 504.42L643.63 504.1C643.83 504.013 644.023 503.99 644.21 504.03C644.403 504.07 644.543 504.18 644.63 504.36C644.717 504.547 644.823 504.77 644.95 505.03C645.083 505.29 645.263 505.54 645.49 505.78C645.717 506.02 646.003 506.223 646.35 506.39C646.703 506.557 647.15 506.64 647.69 506.64C648.19 506.64 648.627 506.56 649 506.4C649.38 506.233 649.693 506.02 649.94 505.76C650.193 505.5 650.383 505.21 650.51 504.89C650.637 504.57 650.7 504.253 650.7 503.94C650.7 503.553 650.65 503.2 650.55 502.88C650.45 502.56 650.263 502.283 649.99 502.05C649.717 501.817 649.34 501.633 648.86 501.5C648.387 501.367 647.777 501.3 647.03 501.3V500.01C647.643 500.003 648.163 499.937 648.59 499.81C649.023 499.683 649.373 499.51 649.64 499.29C649.913 499.07 650.11 498.807 650.23 498.5C650.357 498.193 650.42 497.853 650.42 497.48C650.42 497.067 650.353 496.707 650.22 496.4C650.093 496.093 649.917 495.84 649.69 495.64C649.463 495.44 649.193 495.29 648.88 495.19C648.573 495.09 648.24 495.04 647.88 495.04C647.52 495.04 647.183 495.093 646.87 495.2C646.563 495.307 646.29 495.457 646.05 495.65C645.817 495.837 645.62 496.06 645.46 496.32C645.3 496.58 645.187 496.867 645.12 497.18C645.033 497.413 644.923 497.57 644.79 497.65C644.663 497.723 644.477 497.743 644.23 497.71L643.3 497.55ZM660.902 502.83V496.92C660.902 496.747 660.908 496.557 660.922 496.35C660.935 496.143 660.955 495.933 660.982 495.72L655.762 502.83H660.902ZM664.632 502.83V503.85C664.632 503.957 664.598 504.047 664.532 504.12C664.472 504.193 664.375 504.23 664.242 504.23H662.462V508H660.902V504.23H654.542C654.408 504.23 654.292 504.193 654.192 504.12C654.098 504.04 654.038 503.943 654.012 503.83L653.832 502.92L660.802 493.67H662.462V502.83H664.632Z" fill="#FF09C9"/>
<rect x="632.25" y="436.25" width="43.1685" height="80.2198" fill="#606060" fill-opacity="0.42" stroke="#64748B" stroke-width="0.5"/>
<path d="M600.3 497.55C600.393 496.897 600.573 496.32 600.84 495.82C601.107 495.313 601.443 494.89 601.85 494.55C602.263 494.21 602.733 493.953 603.26 493.78C603.793 493.6 604.367 493.51 604.98 493.51C605.587 493.51 606.147 493.597 606.66 493.77C607.173 493.943 607.613 494.19 607.98 494.51C608.353 494.83 608.643 495.217 608.85 495.67C609.057 496.123 609.16 496.627 609.16 497.18C609.16 497.633 609.1 498.04 608.98 498.4C608.867 498.753 608.7 499.063 608.48 499.33C608.267 499.597 608.007 499.823 607.7 500.01C607.393 500.197 607.05 500.35 606.67 500.47C607.603 500.71 608.303 501.123 608.77 501.71C609.243 502.29 609.48 503.017 609.48 503.89C609.48 504.55 609.353 505.143 609.1 505.67C608.853 506.197 608.513 506.647 608.08 507.02C607.647 507.387 607.14 507.67 606.56 507.87C605.987 508.063 605.37 508.16 604.71 508.16C603.95 508.16 603.3 508.067 602.76 507.88C602.22 507.687 601.763 507.423 601.39 507.09C601.017 506.757 600.71 506.363 600.47 505.91C600.23 505.45 600.027 504.953 599.86 504.42L600.63 504.1C600.83 504.013 601.023 503.99 601.21 504.03C601.403 504.07 601.543 504.18 601.63 504.36C601.717 504.547 601.823 504.77 601.95 505.03C602.083 505.29 602.263 505.54 602.49 505.78C602.717 506.02 603.003 506.223 603.35 506.39C603.703 506.557 604.15 506.64 604.69 506.64C605.19 506.64 605.627 506.56 606 506.4C606.38 506.233 606.693 506.02 606.94 505.76C607.193 505.5 607.383 505.21 607.51 504.89C607.637 504.57 607.7 504.253 607.7 503.94C607.7 503.553 607.65 503.2 607.55 502.88C607.45 502.56 607.263 502.283 606.99 502.05C606.717 501.817 606.34 501.633 605.86 501.5C605.387 501.367 604.777 501.3 604.03 501.3V500.01C604.643 500.003 605.163 499.937 605.59 499.81C606.023 499.683 606.373 499.51 606.64 499.29C606.913 499.07 607.11 498.807 607.23 498.5C607.357 498.193 607.42 497.853 607.42 497.48C607.42 497.067 607.353 496.707 607.22 496.4C607.093 496.093 606.917 495.84 606.69 495.64C606.463 495.44 606.193 495.29 605.88 495.19C605.573 495.09 605.24 495.04 604.88 495.04C604.52 495.04 604.183 495.093 603.87 495.2C603.563 495.307 603.29 495.457 603.05 495.65C602.817 495.837 602.62 496.06 602.46 496.32C602.3 496.58 602.187 496.867 602.12 497.18C602.033 497.413 601.923 497.57 601.79 497.65C601.663 497.723 601.477 497.743 601.23 497.71L600.3 497.55ZM611.902 497.55C611.995 496.897 612.175 496.32 612.442 495.82C612.708 495.313 613.045 494.89 613.452 494.55C613.865 494.21 614.335 493.953 614.862 493.78C615.395 493.6 615.968 493.51 616.582 493.51C617.188 493.51 617.748 493.597 618.262 493.77C618.775 493.943 619.215 494.19 619.582 494.51C619.955 494.83 620.245 495.217 620.452 495.67C620.658 496.123 620.762 496.627 620.762 497.18C620.762 497.633 620.702 498.04 620.582 498.4C620.468 498.753 620.302 499.063 620.082 499.33C619.868 499.597 619.608 499.823 619.302 500.01C618.995 500.197 618.652 500.35 618.272 500.47C619.205 500.71 619.905 501.123 620.372 501.71C620.845 502.29 621.082 503.017 621.082 503.89C621.082 504.55 620.955 505.143 620.702 505.67C620.455 506.197 620.115 506.647 619.682 507.02C619.248 507.387 618.742 507.67 618.162 507.87C617.588 508.063 616.972 508.16 616.312 508.16C615.552 508.16 614.902 508.067 614.362 507.88C613.822 507.687 613.365 507.423 612.992 507.09C612.618 506.757 612.312 506.363 612.072 505.91C611.832 505.45 611.628 504.953 611.462 504.42L612.232 504.1C612.432 504.013 612.625 503.99 612.812 504.03C613.005 504.07 613.145 504.18 613.232 504.36C613.318 504.547 613.425 504.77 613.552 505.03C613.685 505.29 613.865 505.54 614.092 505.78C614.318 506.02 614.605 506.223 614.952 506.39C615.305 506.557 615.752 506.64 616.292 506.64C616.792 506.64 617.228 506.56 617.602 506.4C617.982 506.233 618.295 506.02 618.542 505.76C618.795 505.5 618.985 505.21 619.112 504.89C619.238 504.57 619.302 504.253 619.302 503.94C619.302 503.553 619.252 503.2 619.152 502.88C619.052 502.56 618.865 502.283 618.592 502.05C618.318 501.817 617.942 501.633 617.462 501.5C616.988 501.367 616.378 501.3 615.632 501.3V500.01C616.245 500.003 616.765 499.937 617.192 499.81C617.625 499.683 617.975 499.51 618.242 499.29C618.515 499.07 618.712 498.807 618.832 498.5C618.958 498.193 619.022 497.853 619.022 497.48C619.022 497.067 618.955 496.707 618.822 496.4C618.695 496.093 618.518 495.84 618.292 495.64C618.065 495.44 617.795 495.29 617.482 495.19C617.175 495.09 616.842 495.04 616.482 495.04C616.122 495.04 615.785 495.093 615.472 495.2C615.165 495.307 614.892 495.457 614.652 495.65C614.418 495.837 614.222 496.06 614.062 496.32C613.902 496.58 613.788 496.867 613.722 497.18C613.635 497.413 613.525 497.57 613.392 497.65C613.265 497.723 613.078 497.743 612.832 497.71L611.902 497.55Z" fill="#FF09C9"/>
<rect x="588.25" y="436.25" width="43.1685" height="80.2198" fill="#606060" fill-opacity="0.42" stroke="#64748B" stroke-width="0.5"/>
<path d="M553.3 497.55C553.393 496.897 553.573 496.32 553.84 495.82C554.107 495.313 554.443 494.89 554.85 494.55C555.263 494.21 555.733 493.953 556.26 493.78C556.793 493.6 557.367 493.51 557.98 493.51C558.587 493.51 559.147 493.597 559.66 493.77C560.173 493.943 560.613 494.19 560.98 494.51C561.353 494.83 561.643 495.217 561.85 495.67C562.057 496.123 562.16 496.627 562.16 497.18C562.16 497.633 562.1 498.04 561.98 498.4C561.867 498.753 561.7 499.063 561.48 499.33C561.267 499.597 561.007 499.823 560.7 500.01C560.393 500.197 560.05 500.35 559.67 500.47C560.603 500.71 561.303 501.123 561.77 501.71C562.243 502.29 562.48 503.017 562.48 503.89C562.48 504.55 562.353 505.143 562.1 505.67C561.853 506.197 561.513 506.647 561.08 507.02C560.647 507.387 560.14 507.67 559.56 507.87C558.987 508.063 558.37 508.16 557.71 508.16C556.95 508.16 556.3 508.067 555.76 507.88C555.22 507.687 554.763 507.423 554.39 507.09C554.017 506.757 553.71 506.363 553.47 505.91C553.23 505.45 553.027 504.953 552.86 504.42L553.63 504.1C553.83 504.013 554.023 503.99 554.21 504.03C554.403 504.07 554.543 504.18 554.63 504.36C554.717 504.547 554.823 504.77 554.95 505.03C555.083 505.29 555.263 505.54 555.49 505.78C555.717 506.02 556.003 506.223 556.35 506.39C556.703 506.557 557.15 506.64 557.69 506.64C558.19 506.64 558.627 506.56 559 506.4C559.38 506.233 559.693 506.02 559.94 505.76C560.193 505.5 560.383 505.21 560.51 504.89C560.637 504.57 560.7 504.253 560.7 503.94C560.7 503.553 560.65 503.2 560.55 502.88C560.45 502.56 560.263 502.283 559.99 502.05C559.717 501.817 559.34 501.633 558.86 501.5C558.387 501.367 557.777 501.3 557.03 501.3V500.01C557.643 500.003 558.163 499.937 558.59 499.81C559.023 499.683 559.373 499.51 559.64 499.29C559.913 499.07 560.11 498.807 560.23 498.5C560.357 498.193 560.42 497.853 560.42 497.48C560.42 497.067 560.353 496.707 560.22 496.4C560.093 496.093 559.917 495.84 559.69 495.64C559.463 495.44 559.193 495.29 558.88 495.19C558.573 495.09 558.24 495.04 557.88 495.04C557.52 495.04 557.183 495.093 556.87 495.2C556.563 495.307 556.29 495.457 556.05 495.65C555.817 495.837 555.62 496.06 555.46 496.32C555.3 496.58 555.187 496.867 555.12 497.18C555.033 497.413 554.923 497.57 554.79 497.65C554.663 497.723 554.477 497.743 554.23 497.71L553.3 497.55ZM573.472 506.31C573.665 506.31 573.818 506.367 573.932 506.48C574.045 506.593 574.102 506.74 574.102 506.92V508H564.542V507.39C564.542 507.263 564.568 507.133 564.622 507C564.675 506.867 564.758 506.743 564.872 506.63L569.462 502.02C569.842 501.633 570.188 501.263 570.502 500.91C570.815 500.55 571.082 500.19 571.302 499.83C571.522 499.47 571.692 499.107 571.812 498.74C571.932 498.367 571.992 497.97 571.992 497.55C571.992 497.13 571.925 496.763 571.792 496.45C571.658 496.13 571.475 495.867 571.242 495.66C571.015 495.453 570.745 495.3 570.432 495.2C570.118 495.093 569.782 495.04 569.422 495.04C569.055 495.04 568.718 495.093 568.412 495.2C568.105 495.307 567.832 495.457 567.592 495.65C567.358 495.837 567.162 496.06 567.002 496.32C566.842 496.58 566.728 496.867 566.662 497.18C566.582 497.413 566.472 497.57 566.332 497.65C566.198 497.723 566.008 497.743 565.762 497.71L564.832 497.55C564.925 496.897 565.105 496.32 565.372 495.82C565.645 495.313 565.985 494.89 566.392 494.55C566.805 494.21 567.275 493.953 567.802 493.78C568.328 493.6 568.898 493.51 569.512 493.51C570.118 493.51 570.685 493.6 571.212 493.78C571.738 493.96 572.195 494.223 572.582 494.57C572.968 494.91 573.272 495.327 573.492 495.82C573.712 496.313 573.822 496.873 573.822 497.5C573.822 498.033 573.742 498.53 573.582 498.99C573.422 499.443 573.205 499.877 572.932 500.29C572.658 500.703 572.342 501.107 571.982 501.5C571.628 501.893 571.252 502.29 570.852 502.69L567.072 506.55C567.338 506.477 567.608 506.42 567.882 506.38C568.155 506.333 568.418 506.31 568.672 506.31H573.472Z" fill="#FF09C9"/>
<rect x="544.25" y="436.25" width="43.1685" height="80.2198" fill="#606060" fill-opacity="0.42" stroke="#64748B" stroke-width="0.5"/>
<rect x="500.25" y="436.25" width="43.1685" height="80.2198" fill="#606060" fill-opacity="0.42" stroke="#64748B" stroke-width="0.5"/>
<path d="M510.3 497.55C510.393 496.897 510.573 496.32 510.84 495.82C511.107 495.313 511.443 494.89 511.85 494.55C512.263 494.21 512.733 493.953 513.26 493.78C513.793 493.6 514.367 493.51 514.98 493.51C515.587 493.51 516.147 493.597 516.66 493.77C517.173 493.943 517.613 494.19 517.98 494.51C518.353 494.83 518.643 495.217 518.85 495.67C519.057 496.123 519.16 496.627 519.16 497.18C519.16 497.633 519.1 498.04 518.98 498.4C518.867 498.753 518.7 499.063 518.48 499.33C518.267 499.597 518.007 499.823 517.7 500.01C517.393 500.197 517.05 500.35 516.67 500.47C517.603 500.71 518.303 501.123 518.77 501.71C519.243 502.29 519.48 503.017 519.48 503.89C519.48 504.55 519.353 505.143 519.1 505.67C518.853 506.197 518.513 506.647 518.08 507.02C517.647 507.387 517.14 507.67 516.56 507.87C515.987 508.063 515.37 508.16 514.71 508.16C513.95 508.16 513.3 508.067 512.76 507.88C512.22 507.687 511.763 507.423 511.39 507.09C511.017 506.757 510.71 506.363 510.47 505.91C510.23 505.45 510.027 504.953 509.86 504.42L510.63 504.1C510.83 504.013 511.023 503.99 511.21 504.03C511.403 504.07 511.543 504.18 511.63 504.36C511.717 504.547 511.823 504.77 511.95 505.03C512.083 505.29 512.263 505.54 512.49 505.78C512.717 506.02 513.003 506.223 513.35 506.39C513.703 506.557 514.15 506.64 514.69 506.64C515.19 506.64 515.627 506.56 516 506.4C516.38 506.233 516.693 506.02 516.94 505.76C517.193 505.5 517.383 505.21 517.51 504.89C517.637 504.57 517.7 504.253 517.7 503.94C517.7 503.553 517.65 503.2 517.55 502.88C517.45 502.56 517.263 502.283 516.99 502.05C516.717 501.817 516.34 501.633 515.86 501.5C515.387 501.367 514.777 501.3 514.03 501.3V500.01C514.643 500.003 515.163 499.937 515.59 499.81C516.023 499.683 516.373 499.51 516.64 499.29C516.913 499.07 517.11 498.807 517.23 498.5C517.357 498.193 517.42 497.853 517.42 497.48C517.42 497.067 517.353 496.707 517.22 496.4C517.093 496.093 516.917 495.84 516.69 495.64C516.463 495.44 516.193 495.29 515.88 495.19C515.573 495.09 515.24 495.04 514.88 495.04C514.52 495.04 514.183 495.093 513.87 495.2C513.563 495.307 513.29 495.457 513.05 495.65C512.817 495.837 512.62 496.06 512.46 496.32C512.3 496.58 512.187 496.867 512.12 497.18C512.033 497.413 511.923 497.57 511.79 497.65C511.663 497.723 511.477 497.743 511.23 497.71L510.3 497.55ZM530.782 506.64V508H523.102V506.64H526.172V496.87C526.172 496.577 526.182 496.28 526.202 495.98L523.652 498.17C523.565 498.243 523.478 498.29 523.392 498.31C523.305 498.323 523.225 498.323 523.152 498.31C523.078 498.297 523.008 498.27 522.942 498.23C522.882 498.19 522.835 498.147 522.802 498.1L522.242 497.33L526.512 493.64H527.962V506.64H530.782Z" fill="#FF09C9"/>
<path d="M676.978 515.263V444.959V442.355H701.202L742.73 460.582V497.036L712.738 515.263H676.978Z" fill="#2E2E2E" fill-opacity="0.42"/>
<path d="M676.978 441.053V417.618H703.509V441.053L745.037 459.28V498.338L712.738 517.867M676.978 444.959V515.263H712.738L742.73 497.036V460.582L701.202 442.355H676.978V444.959Z" stroke="#64748B" stroke-dasharray="1 1"/>
<path d="M687.86 506.46C688.413 506.46 688.89 506.397 689.29 506.27C689.69 506.143 690.017 505.967 690.27 505.74C690.53 505.507 690.72 505.233 690.84 504.92C690.96 504.6 691.02 504.25 691.02 503.87C691.02 503.13 690.757 502.547 690.23 502.12C689.703 501.687 688.913 501.47 687.86 501.47H684.76V506.46H687.86ZM684.76 495.2V500.09H687.32C687.867 500.09 688.34 500.03 688.74 499.91C689.147 499.79 689.48 499.623 689.74 499.41C690.007 499.197 690.203 498.94 690.33 498.64C690.457 498.333 690.52 498 690.52 497.64C690.52 496.793 690.267 496.177 689.76 495.79C689.253 495.397 688.467 495.2 687.4 495.2H684.76ZM687.4 493.67C688.28 493.67 689.037 493.757 689.67 493.93C690.31 494.103 690.833 494.35 691.24 494.67C691.653 494.99 691.957 495.383 692.15 495.85C692.343 496.31 692.44 496.83 692.44 497.41C692.44 497.763 692.383 498.103 692.27 498.43C692.163 498.75 692 499.05 691.78 499.33C691.56 499.61 691.28 499.863 690.94 500.09C690.607 500.31 690.213 500.49 689.76 500.63C690.813 500.83 691.603 501.207 692.13 501.76C692.663 502.307 692.93 503.027 692.93 503.92C692.93 504.527 692.817 505.08 692.59 505.58C692.37 506.08 692.043 506.51 691.61 506.87C691.183 507.23 690.657 507.51 690.03 507.71C689.403 507.903 688.69 508 687.89 508H682.83V493.67H687.4ZM703.89 506.37V508H695.76V493.67H697.69V506.37H703.89ZM707.963 499.95H708.693C708.946 499.95 709.15 499.92 709.303 499.86C709.456 499.793 709.596 499.683 709.723 499.53L714.493 494.13C714.626 493.957 714.766 493.837 714.913 493.77C715.06 493.703 715.24 493.67 715.453 493.67H717.093L711.633 499.84C711.5 500 711.37 500.133 711.243 500.24C711.123 500.34 710.993 500.423 710.853 500.49C711.033 500.55 711.196 500.64 711.343 500.76C711.49 500.873 711.633 501.023 711.773 501.21L717.473 508H715.793C715.666 508 715.556 507.993 715.463 507.98C715.376 507.96 715.3 507.933 715.233 507.9C715.166 507.86 715.106 507.817 715.053 507.77C715.006 507.717 714.96 507.657 714.913 507.59L709.973 501.9C709.84 501.733 709.696 501.617 709.543 501.55C709.39 501.477 709.156 501.44 708.843 501.44H707.963V508H706.033V493.67H707.963V499.95Z" fill="#FF09C9"/>
<rect x="241.188" y="436.095" width="43.3347" height="80.2198" fill="#6A6868" fill-opacity="0.42" stroke="#64748B" stroke-width="0.5"/>
<path d="M261.18 506.64V508H253.5V506.64H256.57V496.87C256.57 496.577 256.58 496.28 256.6 495.98L254.05 498.17C253.963 498.243 253.877 498.29 253.79 498.31C253.703 498.323 253.623 498.323 253.55 498.31C253.477 498.297 253.407 498.27 253.34 498.23C253.28 498.19 253.233 498.147 253.2 498.1L252.64 497.33L256.91 493.64H258.36V506.64H261.18ZM272.472 506.31C272.665 506.31 272.818 506.367 272.932 506.48C273.045 506.593 273.102 506.74 273.102 506.92V508H263.542V507.39C263.542 507.263 263.568 507.133 263.622 507C263.675 506.867 263.758 506.743 263.872 506.63L268.462 502.02C268.842 501.633 269.188 501.263 269.502 500.91C269.815 500.55 270.082 500.19 270.302 499.83C270.522 499.47 270.692 499.107 270.812 498.74C270.932 498.367 270.992 497.97 270.992 497.55C270.992 497.13 270.925 496.763 270.792 496.45C270.658 496.13 270.475 495.867 270.242 495.66C270.015 495.453 269.745 495.3 269.432 495.2C269.118 495.093 268.782 495.04 268.422 495.04C268.055 495.04 267.718 495.093 267.412 495.2C267.105 495.307 266.832 495.457 266.592 495.65C266.358 495.837 266.162 496.06 266.002 496.32C265.842 496.58 265.728 496.867 265.662 497.18C265.582 497.413 265.472 497.57 265.332 497.65C265.198 497.723 265.008 497.743 264.762 497.71L263.832 497.55C263.925 496.897 264.105 496.32 264.372 495.82C264.645 495.313 264.985 494.89 265.392 494.55C265.805 494.21 266.275 493.953 266.802 493.78C267.328 493.6 267.898 493.51 268.512 493.51C269.118 493.51 269.685 493.6 270.212 493.78C270.738 493.96 271.195 494.223 271.582 494.57C271.968 494.91 272.272 495.327 272.492 495.82C272.712 496.313 272.822 496.873 272.822 497.5C272.822 498.033 272.742 498.53 272.582 498.99C272.422 499.443 272.205 499.877 271.932 500.29C271.658 500.703 271.342 501.107 270.982 501.5C270.628 501.893 270.252 502.29 269.852 502.69L266.072 506.55C266.338 506.477 266.608 506.42 266.882 506.38C267.155 506.333 267.418 506.31 267.672 506.31H272.472Z" fill="#FF09C9"/>
<rect x="285.022" y="436.095" width="45.6418" height="80.2198" fill="#6A6868" fill-opacity="0.42" stroke="#64748B" stroke-width="0.5"/>
<path d="M306.18 506.64V508H298.5V506.64H301.57V496.87C301.57 496.577 301.58 496.28 301.6 495.98L299.05 498.17C298.963 498.243 298.877 498.29 298.79 498.31C298.703 498.323 298.623 498.323 298.55 498.31C298.477 498.297 298.407 498.27 298.34 498.23C298.28 498.19 298.233 498.147 298.2 498.1L297.64 497.33L301.91 493.64H303.36V506.64H306.18ZM308.902 497.55C308.995 496.897 309.175 496.32 309.442 495.82C309.708 495.313 310.045 494.89 310.452 494.55C310.865 494.21 311.335 493.953 311.862 493.78C312.395 493.6 312.968 493.51 313.582 493.51C314.188 493.51 314.748 493.597 315.262 493.77C315.775 493.943 316.215 494.19 316.582 494.51C316.955 494.83 317.245 495.217 317.452 495.67C317.658 496.123 317.762 496.627 317.762 497.18C317.762 497.633 317.702 498.04 317.582 498.4C317.468 498.753 317.302 499.063 317.082 499.33C316.868 499.597 316.608 499.823 316.302 500.01C315.995 500.197 315.652 500.35 315.272 500.47C316.205 500.71 316.905 501.123 317.372 501.71C317.845 502.29 318.082 503.017 318.082 503.89C318.082 504.55 317.955 505.143 317.702 505.67C317.455 506.197 317.115 506.647 316.682 507.02C316.248 507.387 315.742 507.67 315.162 507.87C314.588 508.063 313.972 508.16 313.312 508.16C312.552 508.16 311.902 508.067 311.362 507.88C310.822 507.687 310.365 507.423 309.992 507.09C309.618 506.757 309.312 506.363 309.072 505.91C308.832 505.45 308.628 504.953 308.462 504.42L309.232 504.1C309.432 504.013 309.625 503.99 309.812 504.03C310.005 504.07 310.145 504.18 310.232 504.36C310.318 504.547 310.425 504.77 310.552 505.03C310.685 505.29 310.865 505.54 311.092 505.78C311.318 506.02 311.605 506.223 311.952 506.39C312.305 506.557 312.752 506.64 313.292 506.64C313.792 506.64 314.228 506.56 314.602 506.4C314.982 506.233 315.295 506.02 315.542 505.76C315.795 505.5 315.985 505.21 316.112 504.89C316.238 504.57 316.302 504.253 316.302 503.94C316.302 503.553 316.252 503.2 316.152 502.88C316.052 502.56 315.865 502.283 315.592 502.05C315.318 501.817 314.942 501.633 314.462 501.5C313.988 501.367 313.378 501.3 312.632 501.3V500.01C313.245 500.003 313.765 499.937 314.192 499.81C314.625 499.683 314.975 499.51 315.242 499.29C315.515 499.07 315.712 498.807 315.832 498.5C315.958 498.193 316.022 497.853 316.022 497.48C316.022 497.067 315.955 496.707 315.822 496.4C315.695 496.093 315.518 495.84 315.292 495.64C315.065 495.44 314.795 495.29 314.482 495.19C314.175 495.09 313.842 495.04 313.482 495.04C313.122 495.04 312.785 495.093 312.472 495.2C312.165 495.307 311.892 495.457 311.652 495.65C311.418 495.837 311.222 496.06 311.062 496.32C310.902 496.58 310.788 496.867 310.722 497.18C310.635 497.413 310.525 497.57 310.392 497.65C310.265 497.723 310.078 497.743 309.832 497.71L308.902 497.55Z" fill="#FF09C9"/>
<rect x="195.046" y="436.095" width="45.6418" height="80.2198" fill="#6A6868" fill-opacity="0.42" stroke="#64748B" stroke-width="0.5"/>
<path d="M216.18 506.64V508H208.5V506.64H211.57V496.87C211.57 496.577 211.58 496.28 211.6 495.98L209.05 498.17C208.963 498.243 208.877 498.29 208.79 498.31C208.703 498.323 208.623 498.323 208.55 498.31C208.477 498.297 208.407 498.27 208.34 498.23C208.28 498.19 208.233 498.147 208.2 498.1L207.64 497.33L211.91 493.64H213.36V506.64H216.18ZM227.782 506.64V508H220.102V506.64H223.172V496.87C223.172 496.577 223.182 496.28 223.202 495.98L220.652 498.17C220.565 498.243 220.478 498.29 220.392 498.31C220.305 498.323 220.225 498.323 220.152 498.31C220.078 498.297 220.008 498.27 219.942 498.23C219.882 498.19 219.835 498.147 219.802 498.1L219.242 497.33L223.512 493.64H224.962V506.64H227.782Z" fill="#FF09C9"/>
<path d="M455.328 451.616L452.628 444.62C452.548 444.412 452.464 444.172 452.376 443.9C452.288 443.62 452.204 443.324 452.124 443.012C451.956 443.66 451.784 444.2 451.608 444.632L448.908 451.616H455.328ZM460.176 458H458.376C458.168 458 458 457.948 457.872 457.844C457.744 457.74 457.648 457.608 457.584 457.448L455.976 453.296H448.26L446.652 457.448C446.604 457.592 446.512 457.72 446.376 457.832C446.24 457.944 446.072 458 445.872 458H444.072L450.948 440.804H453.3L460.176 458ZM464.766 442.7V448.712H471.834V450.608H464.766V458H462.438V440.804H473.034V442.7H464.766ZM487.637 442.76H482.069V458H479.753V442.76H474.173V440.804H487.637V442.76Z" fill="#64748B"/>
<path d="M128.524 444.7V450.712H135.592V452.608H128.524V460H126.196V442.804H136.792V444.7H128.524ZM162.05 442.804L156.686 460H154.598L150.242 446.884C150.202 446.756 150.162 446.62 150.122 446.476C150.09 446.332 150.054 446.18 150.014 446.02C149.974 446.18 149.934 446.332 149.894 446.476C149.854 446.62 149.814 446.756 149.774 446.884L145.394 460H143.306L137.942 442.804H139.874C140.082 442.804 140.254 442.856 140.39 442.96C140.534 443.064 140.626 443.196 140.666 443.356L144.218 455.308C144.274 455.524 144.326 455.756 144.374 456.004C144.43 456.252 144.482 456.516 144.53 456.796C144.586 456.516 144.642 456.252 144.698 456.004C144.762 455.748 144.83 455.516 144.902 455.308L148.946 443.356C148.994 443.22 149.086 443.096 149.222 442.984C149.366 442.864 149.538 442.804 149.738 442.804H150.41C150.618 442.804 150.786 442.856 150.914 442.96C151.042 443.064 151.138 443.196 151.202 443.356L155.234 455.308C155.306 455.516 155.37 455.74 155.426 455.98C155.49 456.22 155.55 456.472 155.606 456.736C155.646 456.472 155.69 456.22 155.738 455.98C155.786 455.74 155.838 455.516 155.894 455.308L159.458 443.356C159.498 443.212 159.586 443.084 159.722 442.972C159.866 442.86 160.038 442.804 160.238 442.804H162.05ZM179.514 451.408C179.514 452.696 179.31 453.868 178.902 454.924C178.494 455.98 177.918 456.884 177.174 457.636C176.43 458.388 175.534 458.972 174.486 459.388C173.446 459.796 172.294 460 171.03 460H164.61V442.804H171.03C172.294 442.804 173.446 443.012 174.486 443.428C175.534 443.836 176.43 444.42 177.174 445.18C177.918 445.932 178.494 446.836 178.902 447.892C179.31 448.948 179.514 450.12 179.514 451.408ZM177.126 451.408C177.126 450.352 176.982 449.408 176.694 448.576C176.406 447.744 175.998 447.04 175.47 446.464C174.942 445.888 174.302 445.448 173.55 445.144C172.798 444.84 171.958 444.688 171.03 444.688H166.938V458.116H171.03C171.958 458.116 172.798 457.964 173.55 457.66C174.302 457.356 174.942 456.92 175.47 456.352C175.998 455.776 176.406 455.072 176.694 454.24C176.982 453.408 177.126 452.464 177.126 451.408Z" fill="#64748B"/>
<path d="M193.451 398.712V401.969H197.279V402.996H193.451V407H192.19V397.685H197.929V398.712H193.451ZM200.801 407H199.54V397.685H200.801V407ZM205.764 402.196C206.128 402.196 206.449 402.153 206.726 402.066C207.008 401.975 207.242 401.85 207.428 401.689C207.619 401.525 207.762 401.33 207.857 401.104C207.952 400.879 208 400.63 208 400.357C208 399.802 207.818 399.384 207.454 399.102C207.09 398.821 206.544 398.68 205.816 398.68H204.438V402.196H205.764ZM210.067 407H208.949C208.719 407 208.55 406.911 208.442 406.733L206.024 403.405C205.95 403.301 205.87 403.228 205.784 403.184C205.701 403.137 205.571 403.113 205.394 403.113H204.438V407H203.184V397.685H205.816C206.405 397.685 206.915 397.746 207.344 397.867C207.773 397.984 208.126 398.156 208.403 398.381C208.685 398.606 208.893 398.879 209.027 399.2C209.161 399.516 209.229 399.872 209.229 400.266C209.229 400.595 209.177 400.903 209.073 401.189C208.969 401.475 208.817 401.733 208.618 401.962C208.423 402.188 208.182 402.381 207.896 402.541C207.614 402.701 207.294 402.823 206.934 402.905C207.094 402.996 207.233 403.128 207.35 403.301L210.067 407ZM216.099 399.141C216.06 399.206 216.016 399.256 215.969 399.291C215.925 399.321 215.871 399.336 215.806 399.336C215.732 399.336 215.646 399.3 215.546 399.226C215.446 399.152 215.321 399.072 215.169 398.985C215.022 398.894 214.842 398.812 214.63 398.738C214.422 398.665 214.168 398.628 213.869 398.628C213.587 398.628 213.338 398.667 213.122 398.745C212.909 398.819 212.729 398.92 212.582 399.05C212.439 399.18 212.331 399.334 212.257 399.512C212.183 399.685 212.147 399.874 212.147 400.077C212.147 400.337 212.209 400.554 212.335 400.727C212.465 400.896 212.634 401.042 212.842 401.163C213.054 401.284 213.293 401.39 213.557 401.481C213.826 401.568 214.099 401.659 214.376 401.754C214.658 401.85 214.931 401.958 215.195 402.079C215.464 402.196 215.702 402.346 215.91 402.528C216.122 402.71 216.291 402.933 216.417 403.197C216.547 403.462 216.612 403.787 216.612 404.172C216.612 404.58 216.543 404.963 216.404 405.323C216.265 405.678 216.062 405.988 215.793 406.252C215.529 406.517 215.202 406.725 214.812 406.876C214.426 407.028 213.986 407.104 213.492 407.104C212.885 407.104 212.335 406.996 211.841 406.779C211.347 406.558 210.925 406.261 210.574 405.888L210.938 405.29C210.972 405.243 211.013 405.204 211.061 405.173C211.113 405.139 211.169 405.121 211.23 405.121C211.286 405.121 211.349 405.145 211.419 405.193C211.492 405.236 211.575 405.293 211.666 405.362C211.757 405.431 211.861 405.507 211.978 405.589C212.095 405.672 212.227 405.748 212.374 405.817C212.526 405.886 212.697 405.945 212.888 405.992C213.078 406.036 213.293 406.057 213.531 406.057C213.83 406.057 214.097 406.016 214.331 405.934C214.565 405.852 214.762 405.737 214.922 405.589C215.087 405.438 215.212 405.258 215.299 405.05C215.386 404.842 215.429 404.61 215.429 404.354C215.429 404.073 215.364 403.843 215.234 403.665C215.108 403.483 214.942 403.332 214.734 403.21C214.526 403.089 214.287 402.987 214.019 402.905C213.75 402.818 213.477 402.732 213.2 402.645C212.922 402.554 212.649 402.45 212.381 402.333C212.112 402.216 211.874 402.064 211.666 401.878C211.458 401.692 211.289 401.46 211.159 401.182C211.033 400.901 210.97 400.554 210.97 400.142C210.97 399.813 211.033 399.495 211.159 399.187C211.289 398.879 211.475 398.606 211.718 398.368C211.965 398.13 212.266 397.939 212.621 397.796C212.981 397.653 213.392 397.581 213.856 397.581C214.376 397.581 214.848 397.664 215.273 397.828C215.702 397.993 216.079 398.231 216.404 398.543L216.099 399.141ZM224.691 398.745H221.675V407H220.421V398.745H217.398V397.685H224.691V398.745ZM235.545 405.076C235.614 405.076 235.675 405.104 235.727 405.16L236.227 405.7C235.846 406.142 235.382 406.486 234.836 406.733C234.295 406.981 233.638 407.104 232.867 407.104C232.2 407.104 231.593 406.989 231.047 406.759C230.501 406.525 230.035 406.2 229.649 405.784C229.264 405.364 228.965 404.861 228.752 404.276C228.54 403.691 228.434 403.048 228.434 402.346C228.434 401.644 228.544 401 228.765 400.415C228.986 399.83 229.296 399.328 229.695 398.907C230.098 398.487 230.579 398.162 231.138 397.932C231.697 397.698 232.314 397.581 232.99 397.581C233.653 397.581 234.238 397.688 234.745 397.9C235.252 398.112 235.699 398.4 236.084 398.764L235.668 399.343C235.642 399.386 235.608 399.423 235.564 399.453C235.525 399.479 235.471 399.492 235.402 399.492C235.324 399.492 235.229 399.451 235.116 399.369C235.003 399.282 234.856 399.187 234.674 399.083C234.492 398.979 234.264 398.886 233.991 398.803C233.718 398.717 233.383 398.673 232.984 398.673C232.503 398.673 232.063 398.758 231.664 398.927C231.266 399.092 230.921 399.332 230.631 399.648C230.345 399.965 230.122 400.35 229.961 400.805C229.801 401.26 229.721 401.774 229.721 402.346C229.721 402.927 229.803 403.444 229.968 403.899C230.137 404.354 230.364 404.74 230.65 405.056C230.941 405.368 231.281 405.607 231.671 405.771C232.065 405.936 232.49 406.018 232.945 406.018C233.222 406.018 233.471 406.003 233.692 405.973C233.918 405.938 234.124 405.886 234.31 405.817C234.501 405.748 234.676 405.661 234.836 405.557C235.001 405.449 235.164 405.321 235.324 405.173C235.398 405.108 235.471 405.076 235.545 405.076ZM246.118 402.346C246.118 403.044 246.007 403.685 245.786 404.27C245.565 404.851 245.253 405.351 244.85 405.771C244.447 406.192 243.962 406.519 243.394 406.753C242.831 406.983 242.207 407.098 241.522 407.098C240.838 407.098 240.214 406.983 239.65 406.753C239.087 406.519 238.604 406.192 238.201 405.771C237.798 405.351 237.486 404.851 237.265 404.27C237.044 403.685 236.933 403.044 236.933 402.346C236.933 401.648 237.044 401.009 237.265 400.428C237.486 399.843 237.798 399.341 238.201 398.92C238.604 398.496 239.087 398.166 239.65 397.932C240.214 397.698 240.838 397.581 241.522 397.581C242.207 397.581 242.831 397.698 243.394 397.932C243.962 398.166 244.447 398.496 244.85 398.92C245.253 399.341 245.565 399.843 245.786 400.428C246.007 401.009 246.118 401.648 246.118 402.346ZM244.824 402.346C244.824 401.774 244.746 401.26 244.59 400.805C244.434 400.35 244.213 399.967 243.927 399.655C243.641 399.339 243.295 399.096 242.887 398.927C242.48 398.758 242.025 398.673 241.522 398.673C241.024 398.673 240.571 398.758 240.164 398.927C239.756 399.096 239.408 399.339 239.117 399.655C238.831 399.967 238.61 400.35 238.454 400.805C238.298 401.26 238.22 401.774 238.22 402.346C238.22 402.918 238.298 403.431 238.454 403.886C238.61 404.337 238.831 404.721 239.117 405.037C239.408 405.349 239.756 405.589 240.164 405.758C240.571 405.923 241.024 406.005 241.522 406.005C242.025 406.005 242.48 405.923 242.887 405.758C243.295 405.589 243.641 405.349 243.927 405.037C244.213 404.721 244.434 404.337 244.59 403.886C244.746 403.431 244.824 402.918 244.824 402.346ZM257.613 397.685V407H256.508V400.155C256.508 400.064 256.511 399.967 256.515 399.863C256.524 399.759 256.532 399.653 256.541 399.544L253.343 405.368C253.243 405.563 253.092 405.661 252.888 405.661H252.706C252.502 405.661 252.351 405.563 252.251 405.368L248.988 399.518C249.014 399.748 249.027 399.96 249.027 400.155V407H247.922V397.685H248.851C248.964 397.685 249.051 397.696 249.111 397.718C249.172 397.74 249.231 397.8 249.287 397.9L252.504 403.633C252.556 403.737 252.606 403.845 252.654 403.958C252.706 404.071 252.754 404.185 252.797 404.302C252.84 404.185 252.886 404.071 252.933 403.958C252.981 403.841 253.033 403.73 253.089 403.626L256.248 397.9C256.3 397.8 256.357 397.74 256.417 397.718C256.482 397.696 256.571 397.685 256.684 397.685H257.613ZM262.745 402.515C263.104 402.515 263.421 402.467 263.694 402.372C263.971 402.277 264.203 402.144 264.389 401.975C264.58 401.802 264.723 401.596 264.818 401.358C264.913 401.12 264.961 400.857 264.961 400.571C264.961 399.978 264.777 399.514 264.409 399.18C264.045 398.847 263.49 398.68 262.745 398.68H261.25V402.515H262.745ZM262.745 397.685C263.334 397.685 263.845 397.755 264.279 397.893C264.716 398.028 265.078 398.221 265.364 398.472C265.65 398.723 265.862 399.027 266.001 399.382C266.144 399.737 266.216 400.134 266.216 400.571C266.216 401.005 266.14 401.401 265.988 401.761C265.836 402.121 265.613 402.43 265.319 402.69C265.028 402.95 264.666 403.154 264.233 403.301C263.804 403.444 263.308 403.516 262.745 403.516H261.25V407H259.995V397.685H262.745ZM272.102 403.542L270.639 399.752C270.596 399.64 270.55 399.51 270.503 399.362C270.455 399.211 270.41 399.05 270.366 398.881C270.275 399.232 270.182 399.525 270.087 399.759L268.624 403.542H272.102ZM274.728 407H273.753C273.64 407 273.549 406.972 273.48 406.915C273.41 406.859 273.358 406.788 273.324 406.701L272.453 404.452H268.273L267.402 406.701C267.376 406.779 267.326 406.848 267.253 406.909C267.179 406.97 267.088 407 266.98 407H266.005L269.729 397.685H271.003L274.728 407ZM278.534 402.196C278.898 402.196 279.218 402.153 279.496 402.066C279.777 401.975 280.011 401.85 280.198 401.689C280.388 401.525 280.531 401.33 280.627 401.104C280.722 400.879 280.77 400.63 280.77 400.357C280.77 399.802 280.588 399.384 280.224 399.102C279.86 398.821 279.314 398.68 278.586 398.68H277.208V402.196H278.534ZM282.837 407H281.719C281.489 407 281.32 406.911 281.212 406.733L278.794 403.405C278.72 403.301 278.64 403.228 278.553 403.184C278.471 403.137 278.341 403.113 278.163 403.113H277.208V407H275.953V397.685H278.586C279.175 397.685 279.684 397.746 280.113 397.867C280.542 397.984 280.895 398.156 281.173 398.381C281.454 398.606 281.662 398.879 281.797 399.2C281.931 399.516 281.998 399.872 281.998 400.266C281.998 400.595 281.946 400.903 281.842 401.189C281.738 401.475 281.587 401.733 281.387 401.962C281.192 402.188 280.952 402.381 280.666 402.541C280.384 402.701 280.063 402.823 279.704 402.905C279.864 402.996 280.003 403.128 280.12 403.301L282.837 407ZM290.097 398.745H287.081V407H285.827V398.745H282.804V397.685H290.097V398.745ZM301.171 397.685V407H300.066V400.155C300.066 400.064 300.068 399.967 300.073 399.863C300.081 399.759 300.09 399.653 300.099 399.544L296.901 405.368C296.801 405.563 296.649 405.661 296.446 405.661H296.264C296.06 405.661 295.908 405.563 295.809 405.368L292.546 399.518C292.572 399.748 292.585 399.96 292.585 400.155V407H291.48V397.685H292.409C292.522 397.685 292.608 397.696 292.669 397.718C292.73 397.74 292.788 397.8 292.845 397.9L296.062 403.633C296.114 403.737 296.164 403.845 296.212 403.958C296.264 404.071 296.311 404.185 296.355 404.302C296.398 404.185 296.443 404.071 296.491 403.958C296.539 403.841 296.591 403.73 296.647 403.626L299.806 397.9C299.858 397.8 299.914 397.74 299.975 397.718C300.04 397.696 300.129 397.685 300.242 397.685H301.171ZM309.299 405.973L309.292 407H303.553V397.685H309.292V398.712H304.814V401.806H308.441V402.794H304.814V405.973H309.299ZM318.602 397.685V407H317.972C317.872 407 317.788 406.983 317.718 406.948C317.653 406.913 317.588 406.855 317.523 406.772L312.135 399.752C312.143 399.861 312.15 399.967 312.154 400.071C312.159 400.175 312.161 400.272 312.161 400.363V407H311.056V397.685H311.706C311.762 397.685 311.81 397.69 311.849 397.698C311.888 397.703 311.922 397.714 311.953 397.731C311.983 397.744 312.013 397.766 312.044 397.796C312.074 397.822 312.107 397.857 312.141 397.9L317.53 404.913C317.521 404.801 317.512 404.692 317.504 404.588C317.499 404.48 317.497 404.378 317.497 404.283V397.685H318.602ZM327.282 398.745H324.266V407H323.011V398.745H319.989V397.685H327.282V398.745Z" fill="#64748B"/>
<path d="M579.954 399.141C579.915 399.206 579.872 399.256 579.824 399.291C579.781 399.321 579.727 399.336 579.662 399.336C579.588 399.336 579.501 399.3 579.402 399.226C579.302 399.152 579.176 399.072 579.025 398.985C578.877 398.894 578.697 398.812 578.485 398.738C578.277 398.665 578.024 398.628 577.725 398.628C577.443 398.628 577.194 398.667 576.977 398.745C576.765 398.819 576.585 398.92 576.438 399.05C576.295 399.18 576.186 399.334 576.113 399.512C576.039 399.685 576.002 399.874 576.002 400.077C576.002 400.337 576.065 400.554 576.191 400.727C576.321 400.896 576.49 401.042 576.698 401.163C576.91 401.284 577.148 401.39 577.413 401.481C577.681 401.568 577.954 401.659 578.232 401.754C578.513 401.85 578.786 401.958 579.051 402.079C579.319 402.196 579.558 402.346 579.766 402.528C579.978 402.71 580.147 402.933 580.273 403.197C580.403 403.462 580.468 403.787 580.468 404.172C580.468 404.58 580.398 404.963 580.26 405.323C580.121 405.678 579.917 405.988 579.649 406.252C579.384 406.517 579.057 406.725 578.667 406.876C578.281 407.028 577.842 407.104 577.348 407.104C576.741 407.104 576.191 406.996 575.697 406.779C575.203 406.558 574.78 406.261 574.429 405.888L574.793 405.29C574.828 405.243 574.869 405.204 574.917 405.173C574.969 405.139 575.025 405.121 575.086 405.121C575.142 405.121 575.205 405.145 575.274 405.193C575.348 405.236 575.43 405.293 575.521 405.362C575.612 405.431 575.716 405.507 575.833 405.589C575.95 405.672 576.082 405.748 576.23 405.817C576.381 405.886 576.552 405.945 576.743 405.992C576.934 406.036 577.148 406.057 577.387 406.057C577.686 406.057 577.952 406.016 578.186 405.934C578.42 405.852 578.617 405.737 578.778 405.589C578.942 405.438 579.068 405.258 579.155 405.05C579.241 404.842 579.285 404.61 579.285 404.354C579.285 404.073 579.22 403.843 579.09 403.665C578.964 403.483 578.797 403.332 578.589 403.21C578.381 403.089 578.143 402.987 577.874 402.905C577.605 402.818 577.332 402.732 577.055 402.645C576.778 402.554 576.505 402.45 576.236 402.333C575.967 402.216 575.729 402.064 575.521 401.878C575.313 401.692 575.144 401.46 575.014 401.182C574.888 400.901 574.826 400.554 574.826 400.142C574.826 399.813 574.888 399.495 575.014 399.187C575.144 398.879 575.33 398.606 575.573 398.368C575.82 398.13 576.121 397.939 576.477 397.796C576.836 397.653 577.248 397.581 577.712 397.581C578.232 397.581 578.704 397.664 579.129 397.828C579.558 397.993 579.935 398.231 580.26 398.543L579.954 399.141ZM587.994 405.973L587.988 407H582.248V397.685H587.988V398.712H583.509V401.806H587.136V402.794H583.509V405.973H587.994ZM596.087 405.076C596.156 405.076 596.217 405.104 596.269 405.16L596.769 405.7C596.388 406.142 595.924 406.486 595.378 406.733C594.837 406.981 594.18 407.104 593.409 407.104C592.742 407.104 592.135 406.989 591.589 406.759C591.043 406.525 590.577 406.2 590.191 405.784C589.806 405.364 589.507 404.861 589.294 404.276C589.082 403.691 588.976 403.048 588.976 402.346C588.976 401.644 589.086 401 589.307 400.415C589.528 399.83 589.838 399.328 590.237 398.907C590.64 398.487 591.121 398.162 591.68 397.932C592.239 397.698 592.856 397.581 593.532 397.581C594.195 397.581 594.78 397.688 595.287 397.9C595.794 398.112 596.241 398.4 596.626 398.764L596.21 399.343C596.184 399.386 596.15 399.423 596.106 399.453C596.067 399.479 596.013 399.492 595.944 399.492C595.866 399.492 595.771 399.451 595.658 399.369C595.545 399.282 595.398 399.187 595.216 399.083C595.034 398.979 594.806 398.886 594.533 398.803C594.26 398.717 593.925 398.673 593.526 398.673C593.045 398.673 592.605 398.758 592.206 398.927C591.808 399.092 591.463 399.332 591.173 399.648C590.887 399.965 590.664 400.35 590.503 400.805C590.343 401.26 590.263 401.774 590.263 402.346C590.263 402.927 590.345 403.444 590.51 403.899C590.679 404.354 590.906 404.74 591.192 405.056C591.483 405.368 591.823 405.607 592.213 405.771C592.607 405.936 593.032 406.018 593.487 406.018C593.764 406.018 594.013 406.003 594.234 405.973C594.46 405.938 594.666 405.886 594.852 405.817C595.043 405.748 595.218 405.661 595.378 405.557C595.543 405.449 595.706 405.321 595.866 405.173C595.94 405.108 596.013 405.076 596.087 405.076ZM606.66 402.346C606.66 403.044 606.549 403.685 606.328 404.27C606.107 404.851 605.795 405.351 605.392 405.771C604.989 406.192 604.504 406.519 603.936 406.753C603.373 406.983 602.749 407.098 602.064 407.098C601.38 407.098 600.756 406.983 600.192 406.753C599.629 406.519 599.146 406.192 598.743 405.771C598.34 405.351 598.028 404.851 597.807 404.27C597.586 403.685 597.475 403.044 597.475 402.346C597.475 401.648 597.586 401.009 597.807 400.428C598.028 399.843 598.34 399.341 598.743 398.92C599.146 398.496 599.629 398.166 600.192 397.932C600.756 397.698 601.38 397.581 602.064 397.581C602.749 397.581 603.373 397.698 603.936 397.932C604.504 398.166 604.989 398.496 605.392 398.92C605.795 399.341 606.107 399.843 606.328 400.428C606.549 401.009 606.66 401.648 606.66 402.346ZM605.366 402.346C605.366 401.774 605.288 401.26 605.132 400.805C604.976 400.35 604.755 399.967 604.469 399.655C604.183 399.339 603.837 399.096 603.429 398.927C603.022 398.758 602.567 398.673 602.064 398.673C601.566 398.673 601.113 398.758 600.706 398.927C600.298 399.096 599.95 399.339 599.659 399.655C599.373 399.967 599.152 400.35 598.996 400.805C598.84 401.26 598.762 401.774 598.762 402.346C598.762 402.918 598.84 403.431 598.996 403.886C599.152 404.337 599.373 404.721 599.659 405.037C599.95 405.349 600.298 405.589 600.706 405.758C601.113 405.923 601.566 406.005 602.064 406.005C602.567 406.005 603.022 405.923 603.429 405.758C603.837 405.589 604.183 405.349 604.469 405.037C604.755 404.721 604.976 404.337 605.132 403.886C605.288 403.431 605.366 402.918 605.366 402.346ZM616.01 397.685V407H615.38C615.28 407 615.196 406.983 615.126 406.948C615.061 406.913 614.996 406.855 614.931 406.772L609.543 399.752C609.552 399.861 609.558 399.967 609.562 400.071C609.567 400.175 609.569 400.272 609.569 400.363V407H608.464V397.685H609.114C609.17 397.685 609.218 397.69 609.257 397.698C609.296 397.703 609.331 397.714 609.361 397.731C609.391 397.744 609.422 397.766 609.452 397.796C609.482 397.822 609.515 397.857 609.549 397.9L614.938 404.913C614.929 404.801 614.921 404.692 614.912 404.588C614.908 404.48 614.905 404.378 614.905 404.283V397.685H616.01ZM626.465 402.346C626.465 403.044 626.354 403.678 626.133 404.25C625.912 404.822 625.6 405.312 625.197 405.719C624.794 406.127 624.309 406.443 623.741 406.668C623.178 406.889 622.554 407 621.869 407H618.392V397.685H621.869C622.554 397.685 623.178 397.798 623.741 398.023C624.309 398.244 624.794 398.561 625.197 398.972C625.6 399.38 625.912 399.869 626.133 400.441C626.354 401.013 626.465 401.648 626.465 402.346ZM625.171 402.346C625.171 401.774 625.093 401.263 624.937 400.812C624.781 400.361 624.56 399.98 624.274 399.668C623.988 399.356 623.641 399.118 623.234 398.953C622.827 398.788 622.372 398.706 621.869 398.706H619.653V405.979H621.869C622.372 405.979 622.827 405.897 623.234 405.732C623.641 405.568 623.988 405.332 624.274 405.024C624.56 404.712 624.781 404.331 624.937 403.88C625.093 403.429 625.171 402.918 625.171 402.346ZM638.146 405.076C638.216 405.076 638.276 405.104 638.328 405.16L638.829 405.7C638.448 406.142 637.984 406.486 637.438 406.733C636.896 406.981 636.24 407.104 635.468 407.104C634.801 407.104 634.194 406.989 633.648 406.759C633.102 406.525 632.637 406.2 632.251 405.784C631.865 405.364 631.566 404.861 631.354 404.276C631.142 403.691 631.035 403.048 631.035 402.346C631.035 401.644 631.146 401 631.367 400.415C631.588 399.83 631.898 399.328 632.296 398.907C632.699 398.487 633.18 398.162 633.739 397.932C634.298 397.698 634.916 397.581 635.592 397.581C636.255 397.581 636.84 397.688 637.347 397.9C637.854 398.112 638.3 398.4 638.686 398.764L638.27 399.343C638.244 399.386 638.209 399.423 638.166 399.453C638.127 399.479 638.073 399.492 638.003 399.492C637.925 399.492 637.83 399.451 637.717 399.369C637.605 399.282 637.457 399.187 637.275 399.083C637.093 398.979 636.866 398.886 636.593 398.803C636.32 398.717 635.984 398.673 635.585 398.673C635.104 398.673 634.665 398.758 634.266 398.927C633.867 399.092 633.523 399.332 633.232 399.648C632.946 399.965 632.723 400.35 632.563 400.805C632.403 401.26 632.322 401.774 632.322 402.346C632.322 402.927 632.405 403.444 632.569 403.899C632.738 404.354 632.966 404.74 633.252 405.056C633.542 405.368 633.882 405.607 634.272 405.771C634.667 405.936 635.091 406.018 635.546 406.018C635.824 406.018 636.073 406.003 636.294 405.973C636.519 405.938 636.725 405.886 636.911 405.817C637.102 405.748 637.278 405.661 637.438 405.557C637.603 405.449 637.765 405.321 637.925 405.173C637.999 405.108 638.073 405.076 638.146 405.076ZM648.719 402.346C648.719 403.044 648.609 403.685 648.388 404.27C648.167 404.851 647.855 405.351 647.452 405.771C647.049 406.192 646.563 406.519 645.996 406.753C645.432 406.983 644.808 407.098 644.124 407.098C643.439 407.098 642.815 406.983 642.252 406.753C641.688 406.519 641.205 406.192 640.802 405.771C640.399 405.351 640.087 404.851 639.866 404.27C639.645 403.685 639.535 403.044 639.535 402.346C639.535 401.648 639.645 401.009 639.866 400.428C640.087 399.843 640.399 399.341 640.802 398.92C641.205 398.496 641.688 398.166 642.252 397.932C642.815 397.698 643.439 397.581 644.124 397.581C644.808 397.581 645.432 397.698 645.996 397.932C646.563 398.166 647.049 398.496 647.452 398.92C647.855 399.341 648.167 399.843 648.388 400.428C648.609 401.009 648.719 401.648 648.719 402.346ZM647.426 402.346C647.426 401.774 647.348 401.26 647.192 400.805C647.036 400.35 646.815 399.967 646.529 399.655C646.243 399.339 645.896 399.096 645.489 398.927C645.081 398.758 644.626 398.673 644.124 398.673C643.625 398.673 643.173 398.758 642.765 398.927C642.358 399.096 642.009 399.339 641.719 399.655C641.433 399.967 641.212 400.35 641.056 400.805C640.9 401.26 640.822 401.774 640.822 402.346C640.822 402.918 640.9 403.431 641.056 403.886C641.212 404.337 641.433 404.721 641.719 405.037C642.009 405.349 642.358 405.589 642.765 405.758C643.173 405.923 643.625 406.005 644.124 406.005C644.626 406.005 645.081 405.923 645.489 405.758C645.896 405.589 646.243 405.349 646.529 405.037C646.815 404.721 647.036 404.337 647.192 403.886C647.348 403.431 647.426 402.918 647.426 402.346ZM660.215 397.685V407H659.11V400.155C659.11 400.064 659.112 399.967 659.116 399.863C659.125 399.759 659.134 399.653 659.142 399.544L655.944 405.368C655.845 405.563 655.693 405.661 655.489 405.661H655.307C655.104 405.661 654.952 405.563 654.852 405.368L651.589 399.518C651.615 399.748 651.628 399.96 651.628 400.155V407H650.523V397.685H651.453C651.566 397.685 651.652 397.696 651.713 397.718C651.774 397.74 651.832 397.8 651.888 397.9L655.106 403.633C655.158 403.737 655.208 403.845 655.255 403.958C655.307 404.071 655.355 404.185 655.398 404.302C655.442 404.185 655.487 404.071 655.535 403.958C655.583 403.841 655.635 403.73 655.691 403.626L658.85 397.9C658.902 397.8 658.958 397.74 659.019 397.718C659.084 397.696 659.173 397.685 659.285 397.685H660.215ZM665.346 402.515C665.706 402.515 666.022 402.467 666.295 402.372C666.573 402.277 666.804 402.144 666.991 401.975C667.181 401.802 667.324 401.596 667.42 401.358C667.515 401.12 667.563 400.857 667.563 400.571C667.563 399.978 667.379 399.514 667.01 399.18C666.646 398.847 666.092 398.68 665.346 398.68H663.851V402.515H665.346ZM665.346 397.685C665.936 397.685 666.447 397.755 666.88 397.893C667.318 398.028 667.68 398.221 667.966 398.472C668.252 398.723 668.464 399.027 668.603 399.382C668.746 399.737 668.817 400.134 668.817 400.571C668.817 401.005 668.741 401.401 668.59 401.761C668.438 402.121 668.215 402.43 667.92 402.69C667.63 402.95 667.268 403.154 666.835 403.301C666.406 403.444 665.91 403.516 665.346 403.516H663.851V407H662.597V397.685H665.346ZM674.703 403.542L673.241 399.752C673.198 399.64 673.152 399.51 673.104 399.362C673.057 399.211 673.011 399.05 672.968 398.881C672.877 399.232 672.784 399.525 672.688 399.759L671.226 403.542H674.703ZM677.329 407H676.354C676.242 407 676.151 406.972 676.081 406.915C676.012 406.859 675.96 406.788 675.925 406.701L675.054 404.452H670.875L670.004 406.701C669.978 406.779 669.928 406.848 669.854 406.909C669.781 406.97 669.69 407 669.581 407H668.606L672.331 397.685H673.605L677.329 407ZM681.135 402.196C681.499 402.196 681.82 402.153 682.097 402.066C682.379 401.975 682.613 401.85 682.799 401.689C682.99 401.525 683.133 401.33 683.228 401.104C683.324 400.879 683.371 400.63 683.371 400.357C683.371 399.802 683.189 399.384 682.825 399.102C682.461 398.821 681.915 398.68 681.187 398.68H679.809V402.196H681.135ZM685.438 407H684.32C684.091 407 683.922 406.911 683.813 406.733L681.395 403.405C681.322 403.301 681.241 403.228 681.155 403.184C681.072 403.137 680.942 403.113 680.765 403.113H679.809V407H678.555V397.685H681.187C681.777 397.685 682.286 397.746 682.715 397.867C683.144 397.984 683.497 398.156 683.774 398.381C684.056 398.606 684.264 398.879 684.398 399.2C684.533 399.516 684.6 399.872 684.6 400.266C684.6 400.595 684.548 400.903 684.444 401.189C684.34 401.475 684.188 401.733 683.989 401.962C683.794 402.188 683.553 402.381 683.267 402.541C682.986 402.701 682.665 402.823 682.305 402.905C682.466 402.996 682.604 403.128 682.721 403.301L685.438 407ZM692.699 398.745H689.683V407H688.428V398.745H685.406V397.685H692.699V398.745ZM703.773 397.685V407H702.668V400.155C702.668 400.064 702.67 399.967 702.674 399.863C702.683 399.759 702.691 399.653 702.7 399.544L699.502 405.368C699.402 405.563 699.251 405.661 699.047 405.661H698.865C698.661 405.661 698.51 405.563 698.41 405.368L695.147 399.518C695.173 399.748 695.186 399.96 695.186 400.155V407H694.081V397.685H695.011C695.123 397.685 695.21 397.696 695.271 397.718C695.331 397.74 695.39 397.8 695.446 397.9L698.664 403.633C698.716 403.737 698.765 403.845 698.813 403.958C698.865 404.071 698.913 404.185 698.956 404.302C698.999 404.185 699.045 404.071 699.093 403.958C699.14 403.841 699.192 403.73 699.249 403.626L702.408 397.9C702.46 397.8 702.516 397.74 702.577 397.718C702.642 397.696 702.73 397.685 702.843 397.685H703.773ZM711.9 405.973L711.894 407H706.154V397.685H711.894V398.712H707.415V401.806H711.042V402.794H707.415V405.973H711.9ZM721.204 397.685V407H720.573C720.474 407 720.389 406.983 720.32 406.948C720.255 406.913 720.19 406.855 720.125 406.772L714.736 399.752C714.745 399.861 714.751 399.967 714.756 400.071C714.76 400.175 714.762 400.272 714.762 400.363V407H713.657V397.685H714.307C714.364 397.685 714.411 397.69 714.45 397.698C714.489 397.703 714.524 397.714 714.554 397.731C714.585 397.744 714.615 397.766 714.645 397.796C714.676 397.822 714.708 397.857 714.743 397.9L720.131 404.913C720.123 404.801 720.114 404.692 720.105 404.588C720.101 404.48 720.099 404.378 720.099 404.283V397.685H721.204ZM729.884 398.745H726.868V407H725.613V398.745H722.591V397.685H729.884V398.745Z" fill="#64748B"/>
</svg>
