<svg width="1002" height="541" viewBox="0 0 1002 541" fill="none" xmlns="http://www.w3.org/2000/svg">
<path d="M191.335 417.618V426.732H249.012V417.618M574.312 417.618V426.732H635.45V417.618" stroke="white" stroke-width="0.6"/>
<path d="M988.311 206.705L961.779 226.234L864.882 231.442H857.96L854.5 230.14V226.234L856.807 221.027L862.575 218.423L887.953 215.819L914.484 211.913L939.862 208.007L958.319 204.101H987.157L988.311 206.705Z" fill="white"/>
<path d="M405.771 265.292C405.771 265.292 409.441 270.282 412.692 271.802C414.814 272.794 416.152 273.104 419.613 273.104C423.074 273.104 423.074 273.104 426.534 274.406C429.995 275.708 428.841 277.01 435.763 277.01C442.684 277.01 534.968 277.01 534.968 277.01M526.893 265.292L514.204 257.481L576.495 249.669M498.054 292.633L515.357 291.331M961.779 226.234L988.311 206.705L987.157 204.101H958.319L939.862 208.007L914.484 211.913L887.953 215.819L862.575 218.423L856.807 221.027L854.5 226.234V230.14L857.96 231.442H864.882L961.779 226.234Z" stroke="#D2FF1E"/>
<path d="M305.412 316.068C305.412 316.068 304.258 286.123 305.412 284.821C306.566 283.519 315.794 277.01 315.794 277.01M315.794 277.01C315.794 277.01 333.097 275.708 340.018 277.01C346.94 278.312 342.325 278.312 360.782 279.614C379.239 280.915 373.496 279.707 381.546 280.915C386.538 281.665 394.235 283.519 394.235 283.519V340.804M315.794 277.01L330.79 269.198L405.77 265.292L545.349 234.046H553.424H575.342H605.334L576.495 249.669M394.235 292.633L443.837 304.35L444.991 322.577M493.44 277.01L444.991 305.652L469.215 306.954L485.365 305.652L500.361 301.746M469.215 291.331H496.9M514.204 300.444V291.331L533.814 284.821L534.967 277.01L548.81 274.406M548.81 274.406V266.594M548.81 274.406L566.113 277.01L576.495 280.915L589.184 286.123L596.105 290.029L598.412 293.935V297.841V300.444L589.184 305.652L569.574 310.86L543.042 318.672M498.054 265.292H762.216V288.727L696.464 301.746H498.054V265.292Z" stroke="white"/>
<rect width="135.659" height="47.2619" transform="matrix(0.999997 -0.00252159 0.00197956 0.999998 197.103 261.729)" fill="black" fill-opacity="0.42"/>
<rect x="1.00198" y="0.997476" width="133.659" height="45.2619" transform="matrix(0.999997 -0.00252159 0.00197956 0.999998 197.101 261.731)" stroke="white" stroke-opacity="0.89" stroke-width="2"/>
<path d="M497.024 308.256V266.594H762.34V292.826L696.301 308.256H497.024Z" fill="black" fill-opacity="0.49" stroke="white" stroke-width="2"/>
<path d="M37.7895 234.046C34.3289 237.952 3.9523 257.047 2.02972 261.386C2.02972 262.688 -1.43108 275.708 4.33653 283.519C7.79729 287.425 34.403 300.712 55.0927 306.954C81.0164 314.775 117.635 314.767 124.081 314.766L124.305 314.766C130.073 314.766 191.211 316.068 191.211 316.068C191.211 316.068 305.412 314.766 305.412 316.068V340.804C305.412 342.106 311.18 349.918 315.794 349.918H350.4C351.554 349.918 385.391 344.276 396.542 340.804V334.295C416.101 331.156 443.838 326.483 443.838 326.483L447.298 321.275H504.975C513.05 321.275 545.35 318.671 556.885 317.37C560.346 317.37 584.57 314.766 633.019 314.766C659.551 314.766 648.015 319.973 784.133 296.539C893.028 277.791 974.084 245.329 1001 231.442V208.007L947.937 193.686L980.236 1H935.248C920.252 20.963 880.801 74.1686 842.964 127.287C805.128 180.406 784.133 187.61 778.366 184.572H427.688C427.688 184.572 130.073 185.874 117.384 187.176C104.695 188.478 92.499 190.27 78.1636 197.592C59.7677 206.987 41.2501 230.14 37.7895 234.046Z" fill="url(#paint0_linear_8_30)" stroke="#FF09C9" stroke-width="2"/>
<path d="M919.098 192.384H946.783L978.5 3.60387H964.087L904.102 183.271L911.023 188.478L919.098 192.384Z" fill="#789DB2"/>
<path d="M56.2463 231.442H40.0966L47.0179 223.63L50.4785 219.725L78.1636 221.027V222.329V234.046H58.5533L57.3998 232.744L56.2463 231.442Z" fill="#789DB2"/>
<path d="M919.098 192.384H946.783L978.5 3.60387H964.087L904.102 183.271L911.023 188.478L919.098 192.384ZM919.098 192.384H896.027H881.031L783.5 185M50.4785 219.725L78.1636 221.027V234.046H58.5533L56.2463 231.442H40.0966L47.0179 223.63L50.4785 219.725ZM50.4785 219.725L59.7069 222.329V226.234H57.3998V232.744M66.6282 232.744V227.536H68.9353V222.329H75.8565H78.1636" stroke="#FF09C9"/>
<path d="M124.426 417.32C48.8184 422.541 9.5 464.5 6 469.5L5.6142 472.135C5.6142 511.288 74.6657 529.124 131.627 540H388.452H678.88H752.087H778.49V417.32C585.671 415.58 184.912 413.144 124.426 417.32Z" fill="url(#paint1_linear_8_30)" stroke="#FF09C9" stroke-width="2"/>
<rect x="628.779" y="436.095" width="45.6418" height="80.2198" fill="#606060" fill-opacity="0.42" stroke="white" stroke-width="0.5"/>
<path d="M641.3 497.55C641.393 496.897 641.573 496.32 641.84 495.82C642.107 495.313 642.443 494.89 642.85 494.55C643.263 494.21 643.733 493.953 644.26 493.78C644.793 493.6 645.367 493.51 645.98 493.51C646.587 493.51 647.147 493.597 647.66 493.77C648.173 493.943 648.613 494.19 648.98 494.51C649.353 494.83 649.643 495.217 649.85 495.67C650.057 496.123 650.16 496.627 650.16 497.18C650.16 497.633 650.1 498.04 649.98 498.4C649.867 498.753 649.7 499.063 649.48 499.33C649.267 499.597 649.007 499.823 648.7 500.01C648.393 500.197 648.05 500.35 647.67 500.47C648.603 500.71 649.303 501.123 649.77 501.71C650.243 502.29 650.48 503.017 650.48 503.89C650.48 504.55 650.353 505.143 650.1 505.67C649.853 506.197 649.513 506.647 649.08 507.02C648.647 507.387 648.14 507.67 647.56 507.87C646.987 508.063 646.37 508.16 645.71 508.16C644.95 508.16 644.3 508.067 643.76 507.88C643.22 507.687 642.763 507.423 642.39 507.09C642.017 506.757 641.71 506.363 641.47 505.91C641.23 505.45 641.027 504.953 640.86 504.42L641.63 504.1C641.83 504.013 642.023 503.99 642.21 504.03C642.403 504.07 642.543 504.18 642.63 504.36C642.717 504.547 642.823 504.77 642.95 505.03C643.083 505.29 643.263 505.54 643.49 505.78C643.717 506.02 644.003 506.223 644.35 506.39C644.703 506.557 645.15 506.64 645.69 506.64C646.19 506.64 646.627 506.56 647 506.4C647.38 506.233 647.693 506.02 647.94 505.76C648.193 505.5 648.383 505.21 648.51 504.89C648.637 504.57 648.7 504.253 648.7 503.94C648.7 503.553 648.65 503.2 648.55 502.88C648.45 502.56 648.263 502.283 647.99 502.05C647.717 501.817 647.34 501.633 646.86 501.5C646.387 501.367 645.777 501.3 645.03 501.3V500.01C645.643 500.003 646.163 499.937 646.59 499.81C647.023 499.683 647.373 499.51 647.64 499.29C647.913 499.07 648.11 498.807 648.23 498.5C648.357 498.193 648.42 497.853 648.42 497.48C648.42 497.067 648.353 496.707 648.22 496.4C648.093 496.093 647.917 495.84 647.69 495.64C647.463 495.44 647.193 495.29 646.88 495.19C646.573 495.09 646.24 495.04 645.88 495.04C645.52 495.04 645.183 495.093 644.87 495.2C644.563 495.307 644.29 495.457 644.05 495.65C643.817 495.837 643.62 496.06 643.46 496.32C643.3 496.58 643.187 496.867 643.12 497.18C643.033 497.413 642.923 497.57 642.79 497.65C642.663 497.723 642.477 497.743 642.23 497.71L641.3 497.55ZM658.902 502.83V496.92C658.902 496.747 658.908 496.557 658.922 496.35C658.935 496.143 658.955 495.933 658.982 495.72L653.762 502.83H658.902ZM662.632 502.83V503.85C662.632 503.957 662.598 504.047 662.532 504.12C662.472 504.193 662.375 504.23 662.242 504.23H660.462V508H658.902V504.23H652.542C652.408 504.23 652.292 504.193 652.192 504.12C652.098 504.04 652.038 503.943 652.012 503.83L651.832 502.92L658.802 493.67H660.462V502.83H662.632Z" fill="#FF09C9"/>
<rect x="584.944" y="436.095" width="45.6418" height="80.2198" fill="#606060" fill-opacity="0.42" stroke="white" stroke-width="0.5"/>
<path d="M597.3 497.55C597.393 496.897 597.573 496.32 597.84 495.82C598.107 495.313 598.443 494.89 598.85 494.55C599.263 494.21 599.733 493.953 600.26 493.78C600.793 493.6 601.367 493.51 601.98 493.51C602.587 493.51 603.147 493.597 603.66 493.77C604.173 493.943 604.613 494.19 604.98 494.51C605.353 494.83 605.643 495.217 605.85 495.67C606.057 496.123 606.16 496.627 606.16 497.18C606.16 497.633 606.1 498.04 605.98 498.4C605.867 498.753 605.7 499.063 605.48 499.33C605.267 499.597 605.007 499.823 604.7 500.01C604.393 500.197 604.05 500.35 603.67 500.47C604.603 500.71 605.303 501.123 605.77 501.71C606.243 502.29 606.48 503.017 606.48 503.89C606.48 504.55 606.353 505.143 606.1 505.67C605.853 506.197 605.513 506.647 605.08 507.02C604.647 507.387 604.14 507.67 603.56 507.87C602.987 508.063 602.37 508.16 601.71 508.16C600.95 508.16 600.3 508.067 599.76 507.88C599.22 507.687 598.763 507.423 598.39 507.09C598.017 506.757 597.71 506.363 597.47 505.91C597.23 505.45 597.027 504.953 596.86 504.42L597.63 504.1C597.83 504.013 598.023 503.99 598.21 504.03C598.403 504.07 598.543 504.18 598.63 504.36C598.717 504.547 598.823 504.77 598.95 505.03C599.083 505.29 599.263 505.54 599.49 505.78C599.717 506.02 600.003 506.223 600.35 506.39C600.703 506.557 601.15 506.64 601.69 506.64C602.19 506.64 602.627 506.56 603 506.4C603.38 506.233 603.693 506.02 603.94 505.76C604.193 505.5 604.383 505.21 604.51 504.89C604.637 504.57 604.7 504.253 604.7 503.94C604.7 503.553 604.65 503.2 604.55 502.88C604.45 502.56 604.263 502.283 603.99 502.05C603.717 501.817 603.34 501.633 602.86 501.5C602.387 501.367 601.777 501.3 601.03 501.3V500.01C601.643 500.003 602.163 499.937 602.59 499.81C603.023 499.683 603.373 499.51 603.64 499.29C603.913 499.07 604.11 498.807 604.23 498.5C604.357 498.193 604.42 497.853 604.42 497.48C604.42 497.067 604.353 496.707 604.22 496.4C604.093 496.093 603.917 495.84 603.69 495.64C603.463 495.44 603.193 495.29 602.88 495.19C602.573 495.09 602.24 495.04 601.88 495.04C601.52 495.04 601.183 495.093 600.87 495.2C600.563 495.307 600.29 495.457 600.05 495.65C599.817 495.837 599.62 496.06 599.46 496.32C599.3 496.58 599.187 496.867 599.12 497.18C599.033 497.413 598.923 497.57 598.79 497.65C598.663 497.723 598.477 497.743 598.23 497.71L597.3 497.55ZM608.902 497.55C608.995 496.897 609.175 496.32 609.442 495.82C609.708 495.313 610.045 494.89 610.452 494.55C610.865 494.21 611.335 493.953 611.862 493.78C612.395 493.6 612.968 493.51 613.582 493.51C614.188 493.51 614.748 493.597 615.262 493.77C615.775 493.943 616.215 494.19 616.582 494.51C616.955 494.83 617.245 495.217 617.452 495.67C617.658 496.123 617.762 496.627 617.762 497.18C617.762 497.633 617.702 498.04 617.582 498.4C617.468 498.753 617.302 499.063 617.082 499.33C616.868 499.597 616.608 499.823 616.302 500.01C615.995 500.197 615.652 500.35 615.272 500.47C616.205 500.71 616.905 501.123 617.372 501.71C617.845 502.29 618.082 503.017 618.082 503.89C618.082 504.55 617.955 505.143 617.702 505.67C617.455 506.197 617.115 506.647 616.682 507.02C616.248 507.387 615.742 507.67 615.162 507.87C614.588 508.063 613.972 508.16 613.312 508.16C612.552 508.16 611.902 508.067 611.362 507.88C610.822 507.687 610.365 507.423 609.992 507.09C609.618 506.757 609.312 506.363 609.072 505.91C608.832 505.45 608.628 504.953 608.462 504.42L609.232 504.1C609.432 504.013 609.625 503.99 609.812 504.03C610.005 504.07 610.145 504.18 610.232 504.36C610.318 504.547 610.425 504.77 610.552 505.03C610.685 505.29 610.865 505.54 611.092 505.78C611.318 506.02 611.605 506.223 611.952 506.39C612.305 506.557 612.752 506.64 613.292 506.64C613.792 506.64 614.228 506.56 614.602 506.4C614.982 506.233 615.295 506.02 615.542 505.76C615.795 505.5 615.985 505.21 616.112 504.89C616.238 504.57 616.302 504.253 616.302 503.94C616.302 503.553 616.252 503.2 616.152 502.88C616.052 502.56 615.865 502.283 615.592 502.05C615.318 501.817 614.942 501.633 614.462 501.5C613.988 501.367 613.378 501.3 612.632 501.3V500.01C613.245 500.003 613.765 499.937 614.192 499.81C614.625 499.683 614.975 499.51 615.242 499.29C615.515 499.07 615.712 498.807 615.832 498.5C615.958 498.193 616.022 497.853 616.022 497.48C616.022 497.067 615.955 496.707 615.822 496.4C615.695 496.093 615.518 495.84 615.292 495.64C615.065 495.44 614.795 495.29 614.482 495.19C614.175 495.09 613.842 495.04 613.482 495.04C613.122 495.04 612.785 495.093 612.472 495.2C612.165 495.307 611.892 495.457 611.652 495.65C611.418 495.837 611.222 496.06 611.062 496.32C610.902 496.58 610.788 496.867 610.722 497.18C610.635 497.413 610.525 497.57 610.392 497.65C610.265 497.723 610.078 497.743 609.832 497.71L608.902 497.55Z" fill="#FF09C9"/>
<rect x="543.417" y="436.095" width="43.3347" height="80.2198" fill="#606060" fill-opacity="0.42" stroke="white" stroke-width="0.5"/>
<path d="M554.3 497.55C554.393 496.897 554.573 496.32 554.84 495.82C555.107 495.313 555.443 494.89 555.85 494.55C556.263 494.21 556.733 493.953 557.26 493.78C557.793 493.6 558.367 493.51 558.98 493.51C559.587 493.51 560.147 493.597 560.66 493.77C561.173 493.943 561.613 494.19 561.98 494.51C562.353 494.83 562.643 495.217 562.85 495.67C563.057 496.123 563.16 496.627 563.16 497.18C563.16 497.633 563.1 498.04 562.98 498.4C562.867 498.753 562.7 499.063 562.48 499.33C562.267 499.597 562.007 499.823 561.7 500.01C561.393 500.197 561.05 500.35 560.67 500.47C561.603 500.71 562.303 501.123 562.77 501.71C563.243 502.29 563.48 503.017 563.48 503.89C563.48 504.55 563.353 505.143 563.1 505.67C562.853 506.197 562.513 506.647 562.08 507.02C561.647 507.387 561.14 507.67 560.56 507.87C559.987 508.063 559.37 508.16 558.71 508.16C557.95 508.16 557.3 508.067 556.76 507.88C556.22 507.687 555.763 507.423 555.39 507.09C555.017 506.757 554.71 506.363 554.47 505.91C554.23 505.45 554.027 504.953 553.86 504.42L554.63 504.1C554.83 504.013 555.023 503.99 555.21 504.03C555.403 504.07 555.543 504.18 555.63 504.36C555.717 504.547 555.823 504.77 555.95 505.03C556.083 505.29 556.263 505.54 556.49 505.78C556.717 506.02 557.003 506.223 557.35 506.39C557.703 506.557 558.15 506.64 558.69 506.64C559.19 506.64 559.627 506.56 560 506.4C560.38 506.233 560.693 506.02 560.94 505.76C561.193 505.5 561.383 505.21 561.51 504.89C561.637 504.57 561.7 504.253 561.7 503.94C561.7 503.553 561.65 503.2 561.55 502.88C561.45 502.56 561.263 502.283 560.99 502.05C560.717 501.817 560.34 501.633 559.86 501.5C559.387 501.367 558.777 501.3 558.03 501.3V500.01C558.643 500.003 559.163 499.937 559.59 499.81C560.023 499.683 560.373 499.51 560.64 499.29C560.913 499.07 561.11 498.807 561.23 498.5C561.357 498.193 561.42 497.853 561.42 497.48C561.42 497.067 561.353 496.707 561.22 496.4C561.093 496.093 560.917 495.84 560.69 495.64C560.463 495.44 560.193 495.29 559.88 495.19C559.573 495.09 559.24 495.04 558.88 495.04C558.52 495.04 558.183 495.093 557.87 495.2C557.563 495.307 557.29 495.457 557.05 495.65C556.817 495.837 556.62 496.06 556.46 496.32C556.3 496.58 556.187 496.867 556.12 497.18C556.033 497.413 555.923 497.57 555.79 497.65C555.663 497.723 555.477 497.743 555.23 497.71L554.3 497.55ZM574.472 506.31C574.665 506.31 574.818 506.367 574.932 506.48C575.045 506.593 575.102 506.74 575.102 506.92V508H565.542V507.39C565.542 507.263 565.568 507.133 565.622 507C565.675 506.867 565.758 506.743 565.872 506.63L570.462 502.02C570.842 501.633 571.188 501.263 571.502 500.91C571.815 500.55 572.082 500.19 572.302 499.83C572.522 499.47 572.692 499.107 572.812 498.74C572.932 498.367 572.992 497.97 572.992 497.55C572.992 497.13 572.925 496.763 572.792 496.45C572.658 496.13 572.475 495.867 572.242 495.66C572.015 495.453 571.745 495.3 571.432 495.2C571.118 495.093 570.782 495.04 570.422 495.04C570.055 495.04 569.718 495.093 569.412 495.2C569.105 495.307 568.832 495.457 568.592 495.65C568.358 495.837 568.162 496.06 568.002 496.32C567.842 496.58 567.728 496.867 567.662 497.18C567.582 497.413 567.472 497.57 567.332 497.65C567.198 497.723 567.008 497.743 566.762 497.71L565.832 497.55C565.925 496.897 566.105 496.32 566.372 495.82C566.645 495.313 566.985 494.89 567.392 494.55C567.805 494.21 568.275 493.953 568.802 493.78C569.328 493.6 569.898 493.51 570.512 493.51C571.118 493.51 571.685 493.6 572.212 493.78C572.738 493.96 573.195 494.223 573.582 494.57C573.968 494.91 574.272 495.327 574.492 495.82C574.712 496.313 574.822 496.873 574.822 497.5C574.822 498.033 574.742 498.53 574.582 498.99C574.422 499.443 574.205 499.877 573.932 500.29C573.658 500.703 573.342 501.107 572.982 501.5C572.628 501.893 572.252 502.29 571.852 502.69L568.072 506.55C568.338 506.477 568.608 506.42 568.882 506.38C569.155 506.333 569.418 506.31 569.672 506.31H574.472Z" fill="#FF09C9"/>
<rect x="499.582" y="436.095" width="45.6418" height="80.2198" fill="#606060" fill-opacity="0.42" stroke="white" stroke-width="0.5"/>
<path d="M511.3 497.55C511.393 496.897 511.573 496.32 511.84 495.82C512.107 495.313 512.443 494.89 512.85 494.55C513.263 494.21 513.733 493.953 514.26 493.78C514.793 493.6 515.367 493.51 515.98 493.51C516.587 493.51 517.147 493.597 517.66 493.77C518.173 493.943 518.613 494.19 518.98 494.51C519.353 494.83 519.643 495.217 519.85 495.67C520.057 496.123 520.16 496.627 520.16 497.18C520.16 497.633 520.1 498.04 519.98 498.4C519.867 498.753 519.7 499.063 519.48 499.33C519.267 499.597 519.007 499.823 518.7 500.01C518.393 500.197 518.05 500.35 517.67 500.47C518.603 500.71 519.303 501.123 519.77 501.71C520.243 502.29 520.48 503.017 520.48 503.89C520.48 504.55 520.353 505.143 520.1 505.67C519.853 506.197 519.513 506.647 519.08 507.02C518.647 507.387 518.14 507.67 517.56 507.87C516.987 508.063 516.37 508.16 515.71 508.16C514.95 508.16 514.3 508.067 513.76 507.88C513.22 507.687 512.763 507.423 512.39 507.09C512.017 506.757 511.71 506.363 511.47 505.91C511.23 505.45 511.027 504.953 510.86 504.42L511.63 504.1C511.83 504.013 512.023 503.99 512.21 504.03C512.403 504.07 512.543 504.18 512.63 504.36C512.717 504.547 512.823 504.77 512.95 505.03C513.083 505.29 513.263 505.54 513.49 505.78C513.717 506.02 514.003 506.223 514.35 506.39C514.703 506.557 515.15 506.64 515.69 506.64C516.19 506.64 516.627 506.56 517 506.4C517.38 506.233 517.693 506.02 517.94 505.76C518.193 505.5 518.383 505.21 518.51 504.89C518.637 504.57 518.7 504.253 518.7 503.94C518.7 503.553 518.65 503.2 518.55 502.88C518.45 502.56 518.263 502.283 517.99 502.05C517.717 501.817 517.34 501.633 516.86 501.5C516.387 501.367 515.777 501.3 515.03 501.3V500.01C515.643 500.003 516.163 499.937 516.59 499.81C517.023 499.683 517.373 499.51 517.64 499.29C517.913 499.07 518.11 498.807 518.23 498.5C518.357 498.193 518.42 497.853 518.42 497.48C518.42 497.067 518.353 496.707 518.22 496.4C518.093 496.093 517.917 495.84 517.69 495.64C517.463 495.44 517.193 495.29 516.88 495.19C516.573 495.09 516.24 495.04 515.88 495.04C515.52 495.04 515.183 495.093 514.87 495.2C514.563 495.307 514.29 495.457 514.05 495.65C513.817 495.837 513.62 496.06 513.46 496.32C513.3 496.58 513.187 496.867 513.12 497.18C513.033 497.413 512.923 497.57 512.79 497.65C512.663 497.723 512.477 497.743 512.23 497.71L511.3 497.55ZM531.782 506.64V508H524.102V506.64H527.172V496.87C527.172 496.577 527.182 496.28 527.202 495.98L524.652 498.17C524.565 498.243 524.478 498.29 524.392 498.31C524.305 498.323 524.225 498.323 524.152 498.31C524.078 498.297 524.008 498.27 523.942 498.23C523.882 498.19 523.835 498.147 523.802 498.1L523.242 497.33L527.512 493.64H528.962V506.64H531.782Z" fill="#FF09C9"/>
<path d="M676.978 515.263V444.959V442.355H701.202L742.73 460.582V497.036L712.738 515.263H676.978Z" fill="#2E2E2E" fill-opacity="0.42"/>
<path d="M676.978 441.053V417.618H703.509V441.053L745.037 459.28V498.338L712.738 517.867M676.978 444.959V515.263H712.738L742.73 497.036V460.582L701.202 442.355H676.978V444.959Z" stroke="white" stroke-width="0.5"/>
<path d="M687.86 506.46C688.413 506.46 688.89 506.397 689.29 506.27C689.69 506.143 690.017 505.967 690.27 505.74C690.53 505.507 690.72 505.233 690.84 504.92C690.96 504.6 691.02 504.25 691.02 503.87C691.02 503.13 690.757 502.547 690.23 502.12C689.703 501.687 688.913 501.47 687.86 501.47H684.76V506.46H687.86ZM684.76 495.2V500.09H687.32C687.867 500.09 688.34 500.03 688.74 499.91C689.147 499.79 689.48 499.623 689.74 499.41C690.007 499.197 690.203 498.94 690.33 498.64C690.457 498.333 690.52 498 690.52 497.64C690.52 496.793 690.267 496.177 689.76 495.79C689.253 495.397 688.467 495.2 687.4 495.2H684.76ZM687.4 493.67C688.28 493.67 689.037 493.757 689.67 493.93C690.31 494.103 690.833 494.35 691.24 494.67C691.653 494.99 691.957 495.383 692.15 495.85C692.343 496.31 692.44 496.83 692.44 497.41C692.44 497.763 692.383 498.103 692.27 498.43C692.163 498.75 692 499.05 691.78 499.33C691.56 499.61 691.28 499.863 690.94 500.09C690.607 500.31 690.213 500.49 689.76 500.63C690.813 500.83 691.603 501.207 692.13 501.76C692.663 502.307 692.93 503.027 692.93 503.92C692.93 504.527 692.817 505.08 692.59 505.58C692.37 506.08 692.043 506.51 691.61 506.87C691.183 507.23 690.657 507.51 690.03 507.71C689.403 507.903 688.69 508 687.89 508H682.83V493.67H687.4ZM703.89 506.37V508H695.76V493.67H697.69V506.37H703.89ZM707.963 499.95H708.693C708.946 499.95 709.15 499.92 709.303 499.86C709.456 499.793 709.596 499.683 709.723 499.53L714.493 494.13C714.626 493.957 714.766 493.837 714.913 493.77C715.06 493.703 715.24 493.67 715.453 493.67H717.093L711.633 499.84C711.5 500 711.37 500.133 711.243 500.24C711.123 500.34 710.993 500.423 710.853 500.49C711.033 500.55 711.196 500.64 711.343 500.76C711.49 500.873 711.633 501.023 711.773 501.21L717.473 508H715.793C715.666 508 715.556 507.993 715.463 507.98C715.376 507.96 715.3 507.933 715.233 507.9C715.166 507.86 715.106 507.817 715.053 507.77C715.006 507.717 714.96 507.657 714.913 507.59L709.973 501.9C709.84 501.733 709.696 501.617 709.543 501.55C709.39 501.477 709.156 501.44 708.843 501.44H707.963V508H706.033V493.67H707.963V499.95Z" fill="#FF09C9"/>
<rect x="241.188" y="436.095" width="43.3347" height="80.2198" fill="#6A6868" fill-opacity="0.42" stroke="white" stroke-width="0.5"/>
<path d="M261.18 506.64V508H253.5V506.64H256.57V496.87C256.57 496.577 256.58 496.28 256.6 495.98L254.05 498.17C253.963 498.243 253.877 498.29 253.79 498.31C253.703 498.323 253.623 498.323 253.55 498.31C253.477 498.297 253.407 498.27 253.34 498.23C253.28 498.19 253.233 498.147 253.2 498.1L252.64 497.33L256.91 493.64H258.36V506.64H261.18ZM272.472 506.31C272.665 506.31 272.818 506.367 272.932 506.48C273.045 506.593 273.102 506.74 273.102 506.92V508H263.542V507.39C263.542 507.263 263.568 507.133 263.622 507C263.675 506.867 263.758 506.743 263.872 506.63L268.462 502.02C268.842 501.633 269.188 501.263 269.502 500.91C269.815 500.55 270.082 500.19 270.302 499.83C270.522 499.47 270.692 499.107 270.812 498.74C270.932 498.367 270.992 497.97 270.992 497.55C270.992 497.13 270.925 496.763 270.792 496.45C270.658 496.13 270.475 495.867 270.242 495.66C270.015 495.453 269.745 495.3 269.432 495.2C269.118 495.093 268.782 495.04 268.422 495.04C268.055 495.04 267.718 495.093 267.412 495.2C267.105 495.307 266.832 495.457 266.592 495.65C266.358 495.837 266.162 496.06 266.002 496.32C265.842 496.58 265.728 496.867 265.662 497.18C265.582 497.413 265.472 497.57 265.332 497.65C265.198 497.723 265.008 497.743 264.762 497.71L263.832 497.55C263.925 496.897 264.105 496.32 264.372 495.82C264.645 495.313 264.985 494.89 265.392 494.55C265.805 494.21 266.275 493.953 266.802 493.78C267.328 493.6 267.898 493.51 268.512 493.51C269.118 493.51 269.685 493.6 270.212 493.78C270.738 493.96 271.195 494.223 271.582 494.57C271.968 494.91 272.272 495.327 272.492 495.82C272.712 496.313 272.822 496.873 272.822 497.5C272.822 498.033 272.742 498.53 272.582 498.99C272.422 499.443 272.205 499.877 271.932 500.29C271.658 500.703 271.342 501.107 270.982 501.5C270.628 501.893 270.252 502.29 269.852 502.69L266.072 506.55C266.338 506.477 266.608 506.42 266.882 506.38C267.155 506.333 267.418 506.31 267.672 506.31H272.472Z" fill="#FF09C9"/>
<rect x="285.022" y="436.095" width="45.6418" height="80.2198" fill="#6A6868" fill-opacity="0.42" stroke="white" stroke-width="0.5"/>
<path d="M306.18 506.64V508H298.5V506.64H301.57V496.87C301.57 496.577 301.58 496.28 301.6 495.98L299.05 498.17C298.963 498.243 298.877 498.29 298.79 498.31C298.703 498.323 298.623 498.323 298.55 498.31C298.477 498.297 298.407 498.27 298.34 498.23C298.28 498.19 298.233 498.147 298.2 498.1L297.64 497.33L301.91 493.64H303.36V506.64H306.18ZM308.902 497.55C308.995 496.897 309.175 496.32 309.442 495.82C309.708 495.313 310.045 494.89 310.452 494.55C310.865 494.21 311.335 493.953 311.862 493.78C312.395 493.6 312.968 493.51 313.582 493.51C314.188 493.51 314.748 493.597 315.262 493.77C315.775 493.943 316.215 494.19 316.582 494.51C316.955 494.83 317.245 495.217 317.452 495.67C317.658 496.123 317.762 496.627 317.762 497.18C317.762 497.633 317.702 498.04 317.582 498.4C317.468 498.753 317.302 499.063 317.082 499.33C316.868 499.597 316.608 499.823 316.302 500.01C315.995 500.197 315.652 500.35 315.272 500.47C316.205 500.71 316.905 501.123 317.372 501.71C317.845 502.29 318.082 503.017 318.082 503.89C318.082 504.55 317.955 505.143 317.702 505.67C317.455 506.197 317.115 506.647 316.682 507.02C316.248 507.387 315.742 507.67 315.162 507.87C314.588 508.063 313.972 508.16 313.312 508.16C312.552 508.16 311.902 508.067 311.362 507.88C310.822 507.687 310.365 507.423 309.992 507.09C309.618 506.757 309.312 506.363 309.072 505.91C308.832 505.45 308.628 504.953 308.462 504.42L309.232 504.1C309.432 504.013 309.625 503.99 309.812 504.03C310.005 504.07 310.145 504.18 310.232 504.36C310.318 504.547 310.425 504.77 310.552 505.03C310.685 505.29 310.865 505.54 311.092 505.78C311.318 506.02 311.605 506.223 311.952 506.39C312.305 506.557 312.752 506.64 313.292 506.64C313.792 506.64 314.228 506.56 314.602 506.4C314.982 506.233 315.295 506.02 315.542 505.76C315.795 505.5 315.985 505.21 316.112 504.89C316.238 504.57 316.302 504.253 316.302 503.94C316.302 503.553 316.252 503.2 316.152 502.88C316.052 502.56 315.865 502.283 315.592 502.05C315.318 501.817 314.942 501.633 314.462 501.5C313.988 501.367 313.378 501.3 312.632 501.3V500.01C313.245 500.003 313.765 499.937 314.192 499.81C314.625 499.683 314.975 499.51 315.242 499.29C315.515 499.07 315.712 498.807 315.832 498.5C315.958 498.193 316.022 497.853 316.022 497.48C316.022 497.067 315.955 496.707 315.822 496.4C315.695 496.093 315.518 495.84 315.292 495.64C315.065 495.44 314.795 495.29 314.482 495.19C314.175 495.09 313.842 495.04 313.482 495.04C313.122 495.04 312.785 495.093 312.472 495.2C312.165 495.307 311.892 495.457 311.652 495.65C311.418 495.837 311.222 496.06 311.062 496.32C310.902 496.58 310.788 496.867 310.722 497.18C310.635 497.413 310.525 497.57 310.392 497.65C310.265 497.723 310.078 497.743 309.832 497.71L308.902 497.55Z" fill="#FF09C9"/>
<rect x="195.046" y="436.095" width="45.6418" height="80.2198" fill="#6A6868" fill-opacity="0.42" stroke="white" stroke-width="0.5"/>
<path d="M216.18 506.64V508H208.5V506.64H211.57V496.87C211.57 496.577 211.58 496.28 211.6 495.98L209.05 498.17C208.963 498.243 208.877 498.29 208.79 498.31C208.703 498.323 208.623 498.323 208.55 498.31C208.477 498.297 208.407 498.27 208.34 498.23C208.28 498.19 208.233 498.147 208.2 498.1L207.64 497.33L211.91 493.64H213.36V506.64H216.18ZM227.782 506.64V508H220.102V506.64H223.172V496.87C223.172 496.577 223.182 496.28 223.202 495.98L220.652 498.17C220.565 498.243 220.478 498.29 220.392 498.31C220.305 498.323 220.225 498.323 220.152 498.31C220.078 498.297 220.008 498.27 219.942 498.23C219.882 498.19 219.835 498.147 219.802 498.1L219.242 497.33L223.512 493.64H224.962V506.64H227.782Z" fill="#FF09C9"/>
<path d="M455.328 451.616L452.628 444.62C452.548 444.412 452.464 444.172 452.376 443.9C452.288 443.62 452.204 443.324 452.124 443.012C451.956 443.66 451.784 444.2 451.608 444.632L448.908 451.616H455.328ZM460.176 458H458.376C458.168 458 458 457.948 457.872 457.844C457.744 457.74 457.648 457.608 457.584 457.448L455.976 453.296H448.26L446.652 457.448C446.604 457.592 446.512 457.72 446.376 457.832C446.24 457.944 446.072 458 445.872 458H444.072L450.948 440.804H453.3L460.176 458ZM464.766 442.7V448.712H471.834V450.608H464.766V458H462.438V440.804H473.034V442.7H464.766ZM487.637 442.76H482.069V458H479.753V442.76H474.173V440.804H487.637V442.76Z" fill="#A8DBFF"/>
<path d="M128.524 444.7V450.712H135.592V452.608H128.524V460H126.196V442.804H136.792V444.7H128.524ZM162.05 442.804L156.686 460H154.598L150.242 446.884C150.202 446.756 150.162 446.62 150.122 446.476C150.09 446.332 150.054 446.18 150.014 446.02C149.974 446.18 149.934 446.332 149.894 446.476C149.854 446.62 149.814 446.756 149.774 446.884L145.394 460H143.306L137.942 442.804H139.874C140.082 442.804 140.254 442.856 140.39 442.96C140.534 443.064 140.626 443.196 140.666 443.356L144.218 455.308C144.274 455.524 144.326 455.756 144.374 456.004C144.43 456.252 144.482 456.516 144.53 456.796C144.586 456.516 144.642 456.252 144.698 456.004C144.762 455.748 144.83 455.516 144.902 455.308L148.946 443.356C148.994 443.22 149.086 443.096 149.222 442.984C149.366 442.864 149.538 442.804 149.738 442.804H150.41C150.618 442.804 150.786 442.856 150.914 442.96C151.042 443.064 151.138 443.196 151.202 443.356L155.234 455.308C155.306 455.516 155.37 455.74 155.426 455.98C155.49 456.22 155.55 456.472 155.606 456.736C155.646 456.472 155.69 456.22 155.738 455.98C155.786 455.74 155.838 455.516 155.894 455.308L159.458 443.356C159.498 443.212 159.586 443.084 159.722 442.972C159.866 442.86 160.038 442.804 160.238 442.804H162.05ZM179.514 451.408C179.514 452.696 179.31 453.868 178.902 454.924C178.494 455.98 177.918 456.884 177.174 457.636C176.43 458.388 175.534 458.972 174.486 459.388C173.446 459.796 172.294 460 171.03 460H164.61V442.804H171.03C172.294 442.804 173.446 443.012 174.486 443.428C175.534 443.836 176.43 444.42 177.174 445.18C177.918 445.932 178.494 446.836 178.902 447.892C179.31 448.948 179.514 450.12 179.514 451.408ZM177.126 451.408C177.126 450.352 176.982 449.408 176.694 448.576C176.406 447.744 175.998 447.04 175.47 446.464C174.942 445.888 174.302 445.448 173.55 445.144C172.798 444.84 171.958 444.688 171.03 444.688H166.938V458.116H171.03C171.958 458.116 172.798 457.964 173.55 457.66C174.302 457.356 174.942 456.92 175.47 456.352C175.998 455.776 176.406 455.072 176.694 454.24C176.982 453.408 177.126 452.464 177.126 451.408Z" fill="#A8DBFF"/>
<path d="M193.451 398.712V401.969H197.279V402.996H193.451V407H192.19V397.685H197.929V398.712H193.451ZM200.801 407H199.54V397.685H200.801V407ZM205.764 402.196C206.128 402.196 206.449 402.153 206.726 402.066C207.008 401.975 207.242 401.85 207.428 401.689C207.619 401.525 207.762 401.33 207.857 401.104C207.952 400.879 208 400.63 208 400.357C208 399.802 207.818 399.384 207.454 399.102C207.09 398.821 206.544 398.68 205.816 398.68H204.438V402.196H205.764ZM210.067 407H208.949C208.719 407 208.55 406.911 208.442 406.733L206.024 403.405C205.95 403.301 205.87 403.228 205.784 403.184C205.701 403.137 205.571 403.113 205.394 403.113H204.438V407H203.184V397.685H205.816C206.405 397.685 206.915 397.746 207.344 397.867C207.773 397.984 208.126 398.156 208.403 398.381C208.685 398.606 208.893 398.879 209.027 399.2C209.161 399.516 209.229 399.872 209.229 400.266C209.229 400.595 209.177 400.903 209.073 401.189C208.969 401.475 208.817 401.733 208.618 401.962C208.423 402.188 208.182 402.381 207.896 402.541C207.614 402.701 207.294 402.823 206.934 402.905C207.094 402.996 207.233 403.128 207.35 403.301L210.067 407ZM216.099 399.141C216.06 399.206 216.016 399.256 215.969 399.291C215.925 399.321 215.871 399.336 215.806 399.336C215.732 399.336 215.646 399.3 215.546 399.226C215.446 399.152 215.321 399.072 215.169 398.985C215.022 398.894 214.842 398.812 214.63 398.738C214.422 398.665 214.168 398.628 213.869 398.628C213.587 398.628 213.338 398.667 213.122 398.745C212.909 398.819 212.729 398.92 212.582 399.05C212.439 399.18 212.331 399.334 212.257 399.512C212.183 399.685 212.147 399.874 212.147 400.077C212.147 400.337 212.209 400.554 212.335 400.727C212.465 400.896 212.634 401.042 212.842 401.163C213.054 401.284 213.293 401.39 213.557 401.481C213.826 401.568 214.099 401.659 214.376 401.754C214.658 401.85 214.931 401.958 215.195 402.079C215.464 402.196 215.702 402.346 215.91 402.528C216.122 402.71 216.291 402.933 216.417 403.197C216.547 403.462 216.612 403.787 216.612 404.172C216.612 404.58 216.543 404.963 216.404 405.323C216.265 405.678 216.062 405.988 215.793 406.252C215.529 406.517 215.202 406.725 214.812 406.876C214.426 407.028 213.986 407.104 213.492 407.104C212.885 407.104 212.335 406.996 211.841 406.779C211.347 406.558 210.925 406.261 210.574 405.888L210.938 405.29C210.972 405.243 211.013 405.204 211.061 405.173C211.113 405.139 211.169 405.121 211.23 405.121C211.286 405.121 211.349 405.145 211.419 405.193C211.492 405.236 211.575 405.293 211.666 405.362C211.757 405.431 211.861 405.507 211.978 405.589C212.095 405.672 212.227 405.748 212.374 405.817C212.526 405.886 212.697 405.945 212.888 405.992C213.078 406.036 213.293 406.057 213.531 406.057C213.83 406.057 214.097 406.016 214.331 405.934C214.565 405.852 214.762 405.737 214.922 405.589C215.087 405.438 215.212 405.258 215.299 405.05C215.386 404.842 215.429 404.61 215.429 404.354C215.429 404.073 215.364 403.843 215.234 403.665C215.108 403.483 214.942 403.332 214.734 403.21C214.526 403.089 214.287 402.987 214.019 402.905C213.75 402.818 213.477 402.732 213.2 402.645C212.922 402.554 212.649 402.45 212.381 402.333C212.112 402.216 211.874 402.064 211.666 401.878C211.458 401.692 211.289 401.46 211.159 401.182C211.033 400.901 210.97 400.554 210.97 400.142C210.97 399.813 211.033 399.495 211.159 399.187C211.289 398.879 211.475 398.606 211.718 398.368C211.965 398.13 212.266 397.939 212.621 397.796C212.981 397.653 213.392 397.581 213.856 397.581C214.376 397.581 214.848 397.664 215.273 397.828C215.702 397.993 216.079 398.231 216.404 398.543L216.099 399.141ZM224.691 398.745H221.675V407H220.421V398.745H217.398V397.685H224.691V398.745ZM235.545 405.076C235.614 405.076 235.675 405.104 235.727 405.16L236.227 405.7C235.846 406.142 235.382 406.486 234.836 406.733C234.295 406.981 233.638 407.104 232.867 407.104C232.2 407.104 231.593 406.989 231.047 406.759C230.501 406.525 230.035 406.2 229.649 405.784C229.264 405.364 228.965 404.861 228.752 404.276C228.54 403.691 228.434 403.048 228.434 402.346C228.434 401.644 228.544 401 228.765 400.415C228.986 399.83 229.296 399.328 229.695 398.907C230.098 398.487 230.579 398.162 231.138 397.932C231.697 397.698 232.314 397.581 232.99 397.581C233.653 397.581 234.238 397.688 234.745 397.9C235.252 398.112 235.699 398.4 236.084 398.764L235.668 399.343C235.642 399.386 235.608 399.423 235.564 399.453C235.525 399.479 235.471 399.492 235.402 399.492C235.324 399.492 235.229 399.451 235.116 399.369C235.003 399.282 234.856 399.187 234.674 399.083C234.492 398.979 234.264 398.886 233.991 398.803C233.718 398.717 233.383 398.673 232.984 398.673C232.503 398.673 232.063 398.758 231.664 398.927C231.266 399.092 230.921 399.332 230.631 399.648C230.345 399.965 230.122 400.35 229.961 400.805C229.801 401.26 229.721 401.774 229.721 402.346C229.721 402.927 229.803 403.444 229.968 403.899C230.137 404.354 230.364 404.74 230.65 405.056C230.941 405.368 231.281 405.607 231.671 405.771C232.065 405.936 232.49 406.018 232.945 406.018C233.222 406.018 233.471 406.003 233.692 405.973C233.918 405.938 234.124 405.886 234.31 405.817C234.501 405.748 234.676 405.661 234.836 405.557C235.001 405.449 235.164 405.321 235.324 405.173C235.398 405.108 235.471 405.076 235.545 405.076ZM246.118 402.346C246.118 403.044 246.007 403.685 245.786 404.27C245.565 404.851 245.253 405.351 244.85 405.771C244.447 406.192 243.962 406.519 243.394 406.753C242.831 406.983 242.207 407.098 241.522 407.098C240.838 407.098 240.214 406.983 239.65 406.753C239.087 406.519 238.604 406.192 238.201 405.771C237.798 405.351 237.486 404.851 237.265 404.27C237.044 403.685 236.933 403.044 236.933 402.346C236.933 401.648 237.044 401.009 237.265 400.428C237.486 399.843 237.798 399.341 238.201 398.92C238.604 398.496 239.087 398.166 239.65 397.932C240.214 397.698 240.838 397.581 241.522 397.581C242.207 397.581 242.831 397.698 243.394 397.932C243.962 398.166 244.447 398.496 244.85 398.92C245.253 399.341 245.565 399.843 245.786 400.428C246.007 401.009 246.118 401.648 246.118 402.346ZM244.824 402.346C244.824 401.774 244.746 401.26 244.59 400.805C244.434 400.35 244.213 399.967 243.927 399.655C243.641 399.339 243.295 399.096 242.887 398.927C242.48 398.758 242.025 398.673 241.522 398.673C241.024 398.673 240.571 398.758 240.164 398.927C239.756 399.096 239.408 399.339 239.117 399.655C238.831 399.967 238.61 400.35 238.454 400.805C238.298 401.26 238.22 401.774 238.22 402.346C238.22 402.918 238.298 403.431 238.454 403.886C238.61 404.337 238.831 404.721 239.117 405.037C239.408 405.349 239.756 405.589 240.164 405.758C240.571 405.923 241.024 406.005 241.522 406.005C242.025 406.005 242.48 405.923 242.887 405.758C243.295 405.589 243.641 405.349 243.927 405.037C244.213 404.721 244.434 404.337 244.59 403.886C244.746 403.431 244.824 402.918 244.824 402.346ZM257.613 397.685V407H256.508V400.155C256.508 400.064 256.511 399.967 256.515 399.863C256.524 399.759 256.532 399.653 256.541 399.544L253.343 405.368C253.243 405.563 253.092 405.661 252.888 405.661H252.706C252.502 405.661 252.351 405.563 252.251 405.368L248.988 399.518C249.014 399.748 249.027 399.96 249.027 400.155V407H247.922V397.685H248.851C248.964 397.685 249.051 397.696 249.111 397.718C249.172 397.74 249.231 397.8 249.287 397.9L252.504 403.633C252.556 403.737 252.606 403.845 252.654 403.958C252.706 404.071 252.754 404.185 252.797 404.302C252.84 404.185 252.886 404.071 252.933 403.958C252.981 403.841 253.033 403.73 253.089 403.626L256.248 397.9C256.3 397.8 256.357 397.74 256.417 397.718C256.482 397.696 256.571 397.685 256.684 397.685H257.613ZM262.745 402.515C263.104 402.515 263.421 402.467 263.694 402.372C263.971 402.277 264.203 402.144 264.389 401.975C264.58 401.802 264.723 401.596 264.818 401.358C264.913 401.12 264.961 400.857 264.961 400.571C264.961 399.978 264.777 399.514 264.409 399.18C264.045 398.847 263.49 398.68 262.745 398.68H261.25V402.515H262.745ZM262.745 397.685C263.334 397.685 263.845 397.755 264.279 397.893C264.716 398.028 265.078 398.221 265.364 398.472C265.65 398.723 265.862 399.027 266.001 399.382C266.144 399.737 266.216 400.134 266.216 400.571C266.216 401.005 266.14 401.401 265.988 401.761C265.836 402.121 265.613 402.43 265.319 402.69C265.028 402.95 264.666 403.154 264.233 403.301C263.804 403.444 263.308 403.516 262.745 403.516H261.25V407H259.995V397.685H262.745ZM272.102 403.542L270.639 399.752C270.596 399.64 270.55 399.51 270.503 399.362C270.455 399.211 270.41 399.05 270.366 398.881C270.275 399.232 270.182 399.525 270.087 399.759L268.624 403.542H272.102ZM274.728 407H273.753C273.64 407 273.549 406.972 273.48 406.915C273.41 406.859 273.358 406.788 273.324 406.701L272.453 404.452H268.273L267.402 406.701C267.376 406.779 267.326 406.848 267.253 406.909C267.179 406.97 267.088 407 266.98 407H266.005L269.729 397.685H271.003L274.728 407ZM278.534 402.196C278.898 402.196 279.218 402.153 279.496 402.066C279.777 401.975 280.011 401.85 280.198 401.689C280.388 401.525 280.531 401.33 280.627 401.104C280.722 400.879 280.77 400.63 280.77 400.357C280.77 399.802 280.588 399.384 280.224 399.102C279.86 398.821 279.314 398.68 278.586 398.68H277.208V402.196H278.534ZM282.837 407H281.719C281.489 407 281.32 406.911 281.212 406.733L278.794 403.405C278.72 403.301 278.64 403.228 278.553 403.184C278.471 403.137 278.341 403.113 278.163 403.113H277.208V407H275.953V397.685H278.586C279.175 397.685 279.684 397.746 280.113 397.867C280.542 397.984 280.895 398.156 281.173 398.381C281.454 398.606 281.662 398.879 281.797 399.2C281.931 399.516 281.998 399.872 281.998 400.266C281.998 400.595 281.946 400.903 281.842 401.189C281.738 401.475 281.587 401.733 281.387 401.962C281.192 402.188 280.952 402.381 280.666 402.541C280.384 402.701 280.063 402.823 279.704 402.905C279.864 402.996 280.003 403.128 280.12 403.301L282.837 407ZM290.097 398.745H287.081V407H285.827V398.745H282.804V397.685H290.097V398.745ZM301.171 397.685V407H300.066V400.155C300.066 400.064 300.068 399.967 300.073 399.863C300.081 399.759 300.09 399.653 300.099 399.544L296.901 405.368C296.801 405.563 296.649 405.661 296.446 405.661H296.264C296.06 405.661 295.908 405.563 295.809 405.368L292.546 399.518C292.572 399.748 292.585 399.96 292.585 400.155V407H291.48V397.685H292.409C292.522 397.685 292.608 397.696 292.669 397.718C292.73 397.74 292.788 397.8 292.845 397.9L296.062 403.633C296.114 403.737 296.164 403.845 296.212 403.958C296.264 404.071 296.311 404.185 296.355 404.302C296.398 404.185 296.443 404.071 296.491 403.958C296.539 403.841 296.591 403.73 296.647 403.626L299.806 397.9C299.858 397.8 299.914 397.74 299.975 397.718C300.04 397.696 300.129 397.685 300.242 397.685H301.171ZM309.299 405.973L309.292 407H303.553V397.685H309.292V398.712H304.814V401.806H308.441V402.794H304.814V405.973H309.299ZM318.602 397.685V407H317.972C317.872 407 317.788 406.983 317.718 406.948C317.653 406.913 317.588 406.855 317.523 406.772L312.135 399.752C312.143 399.861 312.15 399.967 312.154 400.071C312.159 400.175 312.161 400.272 312.161 400.363V407H311.056V397.685H311.706C311.762 397.685 311.81 397.69 311.849 397.698C311.888 397.703 311.922 397.714 311.953 397.731C311.983 397.744 312.013 397.766 312.044 397.796C312.074 397.822 312.107 397.857 312.141 397.9L317.53 404.913C317.521 404.801 317.512 404.692 317.504 404.588C317.499 404.48 317.497 404.378 317.497 404.283V397.685H318.602ZM327.282 398.745H324.266V407H323.011V398.745H319.989V397.685H327.282V398.745Z" fill="white"/>
<path d="M579.954 399.141C579.915 399.206 579.872 399.256 579.824 399.291C579.781 399.321 579.727 399.336 579.662 399.336C579.588 399.336 579.501 399.3 579.402 399.226C579.302 399.152 579.176 399.072 579.025 398.985C578.877 398.894 578.697 398.812 578.485 398.738C578.277 398.665 578.024 398.628 577.725 398.628C577.443 398.628 577.194 398.667 576.977 398.745C576.765 398.819 576.585 398.92 576.438 399.05C576.295 399.18 576.186 399.334 576.113 399.512C576.039 399.685 576.002 399.874 576.002 400.077C576.002 400.337 576.065 400.554 576.191 400.727C576.321 400.896 576.49 401.042 576.698 401.163C576.91 401.284 577.148 401.39 577.413 401.481C577.681 401.568 577.954 401.659 578.232 401.754C578.513 401.85 578.786 401.958 579.051 402.079C579.319 402.196 579.558 402.346 579.766 402.528C579.978 402.71 580.147 402.933 580.273 403.197C580.403 403.462 580.468 403.787 580.468 404.172C580.468 404.58 580.398 404.963 580.26 405.323C580.121 405.678 579.917 405.988 579.649 406.252C579.384 406.517 579.057 406.725 578.667 406.876C578.281 407.028 577.842 407.104 577.348 407.104C576.741 407.104 576.191 406.996 575.697 406.779C575.203 406.558 574.78 406.261 574.429 405.888L574.793 405.29C574.828 405.243 574.869 405.204 574.917 405.173C574.969 405.139 575.025 405.121 575.086 405.121C575.142 405.121 575.205 405.145 575.274 405.193C575.348 405.236 575.43 405.293 575.521 405.362C575.612 405.431 575.716 405.507 575.833 405.589C575.95 405.672 576.082 405.748 576.23 405.817C576.381 405.886 576.552 405.945 576.743 405.992C576.934 406.036 577.148 406.057 577.387 406.057C577.686 406.057 577.952 406.016 578.186 405.934C578.42 405.852 578.617 405.737 578.778 405.589C578.942 405.438 579.068 405.258 579.155 405.05C579.241 404.842 579.285 404.61 579.285 404.354C579.285 404.073 579.22 403.843 579.09 403.665C578.964 403.483 578.797 403.332 578.589 403.21C578.381 403.089 578.143 402.987 577.874 402.905C577.605 402.818 577.332 402.732 577.055 402.645C576.778 402.554 576.505 402.45 576.236 402.333C575.967 402.216 575.729 402.064 575.521 401.878C575.313 401.692 575.144 401.46 575.014 401.182C574.888 400.901 574.826 400.554 574.826 400.142C574.826 399.813 574.888 399.495 575.014 399.187C575.144 398.879 575.33 398.606 575.573 398.368C575.82 398.13 576.121 397.939 576.477 397.796C576.836 397.653 577.248 397.581 577.712 397.581C578.232 397.581 578.704 397.664 579.129 397.828C579.558 397.993 579.935 398.231 580.26 398.543L579.954 399.141ZM587.994 405.973L587.988 407H582.248V397.685H587.988V398.712H583.509V401.806H587.136V402.794H583.509V405.973H587.994ZM596.087 405.076C596.156 405.076 596.217 405.104 596.269 405.16L596.769 405.7C596.388 406.142 595.924 406.486 595.378 406.733C594.837 406.981 594.18 407.104 593.409 407.104C592.742 407.104 592.135 406.989 591.589 406.759C591.043 406.525 590.577 406.2 590.191 405.784C589.806 405.364 589.507 404.861 589.294 404.276C589.082 403.691 588.976 403.048 588.976 402.346C588.976 401.644 589.086 401 589.307 400.415C589.528 399.83 589.838 399.328 590.237 398.907C590.64 398.487 591.121 398.162 591.68 397.932C592.239 397.698 592.856 397.581 593.532 397.581C594.195 397.581 594.78 397.688 595.287 397.9C595.794 398.112 596.241 398.4 596.626 398.764L596.21 399.343C596.184 399.386 596.15 399.423 596.106 399.453C596.067 399.479 596.013 399.492 595.944 399.492C595.866 399.492 595.771 399.451 595.658 399.369C595.545 399.282 595.398 399.187 595.216 399.083C595.034 398.979 594.806 398.886 594.533 398.803C594.26 398.717 593.925 398.673 593.526 398.673C593.045 398.673 592.605 398.758 592.206 398.927C591.808 399.092 591.463 399.332 591.173 399.648C590.887 399.965 590.664 400.35 590.503 400.805C590.343 401.26 590.263 401.774 590.263 402.346C590.263 402.927 590.345 403.444 590.51 403.899C590.679 404.354 590.906 404.74 591.192 405.056C591.483 405.368 591.823 405.607 592.213 405.771C592.607 405.936 593.032 406.018 593.487 406.018C593.764 406.018 594.013 406.003 594.234 405.973C594.46 405.938 594.666 405.886 594.852 405.817C595.043 405.748 595.218 405.661 595.378 405.557C595.543 405.449 595.706 405.321 595.866 405.173C595.94 405.108 596.013 405.076 596.087 405.076ZM606.66 402.346C606.66 403.044 606.549 403.685 606.328 404.27C606.107 404.851 605.795 405.351 605.392 405.771C604.989 406.192 604.504 406.519 603.936 406.753C603.373 406.983 602.749 407.098 602.064 407.098C601.38 407.098 600.756 406.983 600.192 406.753C599.629 406.519 599.146 406.192 598.743 405.771C598.34 405.351 598.028 404.851 597.807 404.27C597.586 403.685 597.475 403.044 597.475 402.346C597.475 401.648 597.586 401.009 597.807 400.428C598.028 399.843 598.34 399.341 598.743 398.92C599.146 398.496 599.629 398.166 600.192 397.932C600.756 397.698 601.38 397.581 602.064 397.581C602.749 397.581 603.373 397.698 603.936 397.932C604.504 398.166 604.989 398.496 605.392 398.92C605.795 399.341 606.107 399.843 606.328 400.428C606.549 401.009 606.66 401.648 606.66 402.346ZM605.366 402.346C605.366 401.774 605.288 401.26 605.132 400.805C604.976 400.35 604.755 399.967 604.469 399.655C604.183 399.339 603.837 399.096 603.429 398.927C603.022 398.758 602.567 398.673 602.064 398.673C601.566 398.673 601.113 398.758 600.706 398.927C600.298 399.096 599.95 399.339 599.659 399.655C599.373 399.967 599.152 400.35 598.996 400.805C598.84 401.26 598.762 401.774 598.762 402.346C598.762 402.918 598.84 403.431 598.996 403.886C599.152 404.337 599.373 404.721 599.659 405.037C599.95 405.349 600.298 405.589 600.706 405.758C601.113 405.923 601.566 406.005 602.064 406.005C602.567 406.005 603.022 405.923 603.429 405.758C603.837 405.589 604.183 405.349 604.469 405.037C604.755 404.721 604.976 404.337 605.132 403.886C605.288 403.431 605.366 402.918 605.366 402.346ZM616.01 397.685V407H615.38C615.28 407 615.196 406.983 615.126 406.948C615.061 406.913 614.996 406.855 614.931 406.772L609.543 399.752C609.552 399.861 609.558 399.967 609.562 400.071C609.567 400.175 609.569 400.272 609.569 400.363V407H608.464V397.685H609.114C609.17 397.685 609.218 397.69 609.257 397.698C609.296 397.703 609.331 397.714 609.361 397.731C609.391 397.744 609.422 397.766 609.452 397.796C609.482 397.822 609.515 397.857 609.549 397.9L614.938 404.913C614.929 404.801 614.921 404.692 614.912 404.588C614.908 404.48 614.905 404.378 614.905 404.283V397.685H616.01ZM626.465 402.346C626.465 403.044 626.354 403.678 626.133 404.25C625.912 404.822 625.6 405.312 625.197 405.719C624.794 406.127 624.309 406.443 623.741 406.668C623.178 406.889 622.554 407 621.869 407H618.392V397.685H621.869C622.554 397.685 623.178 397.798 623.741 398.023C624.309 398.244 624.794 398.561 625.197 398.972C625.6 399.38 625.912 399.869 626.133 400.441C626.354 401.013 626.465 401.648 626.465 402.346ZM625.171 402.346C625.171 401.774 625.093 401.263 624.937 400.812C624.781 400.361 624.56 399.98 624.274 399.668C623.988 399.356 623.641 399.118 623.234 398.953C622.827 398.788 622.372 398.706 621.869 398.706H619.653V405.979H621.869C622.372 405.979 622.827 405.897 623.234 405.732C623.641 405.568 623.988 405.332 624.274 405.024C624.56 404.712 624.781 404.331 624.937 403.88C625.093 403.429 625.171 402.918 625.171 402.346ZM638.146 405.076C638.216 405.076 638.276 405.104 638.328 405.16L638.829 405.7C638.448 406.142 637.984 406.486 637.438 406.733C636.896 406.981 636.24 407.104 635.468 407.104C634.801 407.104 634.194 406.989 633.648 406.759C633.102 406.525 632.637 406.2 632.251 405.784C631.865 405.364 631.566 404.861 631.354 404.276C631.142 403.691 631.035 403.048 631.035 402.346C631.035 401.644 631.146 401 631.367 400.415C631.588 399.83 631.898 399.328 632.296 398.907C632.699 398.487 633.18 398.162 633.739 397.932C634.298 397.698 634.916 397.581 635.592 397.581C636.255 397.581 636.84 397.688 637.347 397.9C637.854 398.112 638.3 398.4 638.686 398.764L638.27 399.343C638.244 399.386 638.209 399.423 638.166 399.453C638.127 399.479 638.073 399.492 638.003 399.492C637.925 399.492 637.83 399.451 637.717 399.369C637.605 399.282 637.457 399.187 637.275 399.083C637.093 398.979 636.866 398.886 636.593 398.803C636.32 398.717 635.984 398.673 635.585 398.673C635.104 398.673 634.665 398.758 634.266 398.927C633.867 399.092 633.523 399.332 633.232 399.648C632.946 399.965 632.723 400.35 632.563 400.805C632.403 401.26 632.322 401.774 632.322 402.346C632.322 402.927 632.405 403.444 632.569 403.899C632.738 404.354 632.966 404.74 633.252 405.056C633.542 405.368 633.882 405.607 634.272 405.771C634.667 405.936 635.091 406.018 635.546 406.018C635.824 406.018 636.073 406.003 636.294 405.973C636.519 405.938 636.725 405.886 636.911 405.817C637.102 405.748 637.278 405.661 637.438 405.557C637.603 405.449 637.765 405.321 637.925 405.173C637.999 405.108 638.073 405.076 638.146 405.076ZM648.719 402.346C648.719 403.044 648.609 403.685 648.388 404.27C648.167 404.851 647.855 405.351 647.452 405.771C647.049 406.192 646.563 406.519 645.996 406.753C645.432 406.983 644.808 407.098 644.124 407.098C643.439 407.098 642.815 406.983 642.252 406.753C641.688 406.519 641.205 406.192 640.802 405.771C640.399 405.351 640.087 404.851 639.866 404.27C639.645 403.685 639.535 403.044 639.535 402.346C639.535 401.648 639.645 401.009 639.866 400.428C640.087 399.843 640.399 399.341 640.802 398.92C641.205 398.496 641.688 398.166 642.252 397.932C642.815 397.698 643.439 397.581 644.124 397.581C644.808 397.581 645.432 397.698 645.996 397.932C646.563 398.166 647.049 398.496 647.452 398.92C647.855 399.341 648.167 399.843 648.388 400.428C648.609 401.009 648.719 401.648 648.719 402.346ZM647.426 402.346C647.426 401.774 647.348 401.26 647.192 400.805C647.036 400.35 646.815 399.967 646.529 399.655C646.243 399.339 645.896 399.096 645.489 398.927C645.081 398.758 644.626 398.673 644.124 398.673C643.625 398.673 643.173 398.758 642.765 398.927C642.358 399.096 642.009 399.339 641.719 399.655C641.433 399.967 641.212 400.35 641.056 400.805C640.9 401.26 640.822 401.774 640.822 402.346C640.822 402.918 640.9 403.431 641.056 403.886C641.212 404.337 641.433 404.721 641.719 405.037C642.009 405.349 642.358 405.589 642.765 405.758C643.173 405.923 643.625 406.005 644.124 406.005C644.626 406.005 645.081 405.923 645.489 405.758C645.896 405.589 646.243 405.349 646.529 405.037C646.815 404.721 647.036 404.337 647.192 403.886C647.348 403.431 647.426 402.918 647.426 402.346ZM660.215 397.685V407H659.11V400.155C659.11 400.064 659.112 399.967 659.116 399.863C659.125 399.759 659.134 399.653 659.142 399.544L655.944 405.368C655.845 405.563 655.693 405.661 655.489 405.661H655.307C655.104 405.661 654.952 405.563 654.852 405.368L651.589 399.518C651.615 399.748 651.628 399.96 651.628 400.155V407H650.523V397.685H651.453C651.566 397.685 651.652 397.696 651.713 397.718C651.774 397.74 651.832 397.8 651.888 397.9L655.106 403.633C655.158 403.737 655.208 403.845 655.255 403.958C655.307 404.071 655.355 404.185 655.398 404.302C655.442 404.185 655.487 404.071 655.535 403.958C655.583 403.841 655.635 403.73 655.691 403.626L658.85 397.9C658.902 397.8 658.958 397.74 659.019 397.718C659.084 397.696 659.173 397.685 659.285 397.685H660.215ZM665.346 402.515C665.706 402.515 666.022 402.467 666.295 402.372C666.573 402.277 666.804 402.144 666.991 401.975C667.181 401.802 667.324 401.596 667.42 401.358C667.515 401.12 667.563 400.857 667.563 400.571C667.563 399.978 667.379 399.514 667.01 399.18C666.646 398.847 666.092 398.68 665.346 398.68H663.851V402.515H665.346ZM665.346 397.685C665.936 397.685 666.447 397.755 666.88 397.893C667.318 398.028 667.68 398.221 667.966 398.472C668.252 398.723 668.464 399.027 668.603 399.382C668.746 399.737 668.817 400.134 668.817 400.571C668.817 401.005 668.741 401.401 668.59 401.761C668.438 402.121 668.215 402.43 667.92 402.69C667.63 402.95 667.268 403.154 666.835 403.301C666.406 403.444 665.91 403.516 665.346 403.516H663.851V407H662.597V397.685H665.346ZM674.703 403.542L673.241 399.752C673.198 399.64 673.152 399.51 673.104 399.362C673.057 399.211 673.011 399.05 672.968 398.881C672.877 399.232 672.784 399.525 672.688 399.759L671.226 403.542H674.703ZM677.329 407H676.354C676.242 407 676.151 406.972 676.081 406.915C676.012 406.859 675.96 406.788 675.925 406.701L675.054 404.452H670.875L670.004 406.701C669.978 406.779 669.928 406.848 669.854 406.909C669.781 406.97 669.69 407 669.581 407H668.606L672.331 397.685H673.605L677.329 407ZM681.135 402.196C681.499 402.196 681.82 402.153 682.097 402.066C682.379 401.975 682.613 401.85 682.799 401.689C682.99 401.525 683.133 401.33 683.228 401.104C683.324 400.879 683.371 400.63 683.371 400.357C683.371 399.802 683.189 399.384 682.825 399.102C682.461 398.821 681.915 398.68 681.187 398.68H679.809V402.196H681.135ZM685.438 407H684.32C684.091 407 683.922 406.911 683.813 406.733L681.395 403.405C681.322 403.301 681.241 403.228 681.155 403.184C681.072 403.137 680.942 403.113 680.765 403.113H679.809V407H678.555V397.685H681.187C681.777 397.685 682.286 397.746 682.715 397.867C683.144 397.984 683.497 398.156 683.774 398.381C684.056 398.606 684.264 398.879 684.398 399.2C684.533 399.516 684.6 399.872 684.6 400.266C684.6 400.595 684.548 400.903 684.444 401.189C684.34 401.475 684.188 401.733 683.989 401.962C683.794 402.188 683.553 402.381 683.267 402.541C682.986 402.701 682.665 402.823 682.305 402.905C682.466 402.996 682.604 403.128 682.721 403.301L685.438 407ZM692.699 398.745H689.683V407H688.428V398.745H685.406V397.685H692.699V398.745ZM703.773 397.685V407H702.668V400.155C702.668 400.064 702.67 399.967 702.674 399.863C702.683 399.759 702.691 399.653 702.7 399.544L699.502 405.368C699.402 405.563 699.251 405.661 699.047 405.661H698.865C698.661 405.661 698.51 405.563 698.41 405.368L695.147 399.518C695.173 399.748 695.186 399.96 695.186 400.155V407H694.081V397.685H695.011C695.123 397.685 695.21 397.696 695.271 397.718C695.331 397.74 695.39 397.8 695.446 397.9L698.664 403.633C698.716 403.737 698.765 403.845 698.813 403.958C698.865 404.071 698.913 404.185 698.956 404.302C698.999 404.185 699.045 404.071 699.093 403.958C699.14 403.841 699.192 403.73 699.249 403.626L702.408 397.9C702.46 397.8 702.516 397.74 702.577 397.718C702.642 397.696 702.73 397.685 702.843 397.685H703.773ZM711.9 405.973L711.894 407H706.154V397.685H711.894V398.712H707.415V401.806H711.042V402.794H707.415V405.973H711.9ZM721.204 397.685V407H720.573C720.474 407 720.389 406.983 720.32 406.948C720.255 406.913 720.19 406.855 720.125 406.772L714.736 399.752C714.745 399.861 714.751 399.967 714.756 400.071C714.76 400.175 714.762 400.272 714.762 400.363V407H713.657V397.685H714.307C714.364 397.685 714.411 397.69 714.45 397.698C714.489 397.703 714.524 397.714 714.554 397.731C714.585 397.744 714.615 397.766 714.645 397.796C714.676 397.822 714.708 397.857 714.743 397.9L720.131 404.913C720.123 404.801 720.114 404.692 720.105 404.588C720.101 404.48 720.099 404.378 720.099 404.283V397.685H721.204ZM729.884 398.745H726.868V407H725.613V398.745H722.591V397.685H729.884V398.745Z" fill="white"/>
<defs>
<linearGradient id="paint0_linear_8_30" x1="501" y1="1" x2="501" y2="349.918" gradientUnits="userSpaceOnUse">
<stop stop-color="#E4F4FD" stop-opacity="0.25"/>
<stop offset="1" stop-color="#1A1B1B" stop-opacity="0.49"/>
</linearGradient>
<linearGradient id="paint1_linear_8_30" x1="392.052" y1="415.014" x2="392.052" y2="540" gradientUnits="userSpaceOnUse">
<stop stop-color="#A4A4A4" stop-opacity="0.24"/>
<stop offset="1" stop-color="#CBDCE9" stop-opacity="0.1"/>
</linearGradient>
</defs>
</svg>
