<svg width="1002" height="845" viewBox="0 0 1002 845" fill="none" xmlns="http://www.w3.org/2000/svg">
<path d="M225.046 739.432L162.864 704.286M311.561 786.745L379.151 827.299M598.142 761.061V797.559M598.142 709.693V673.194M216.935 305.506L85.8113 228.453M679.25 86.5149L579.217 28.3877M767.116 132.476L873.908 190.603M968.534 367.688V342.004M968.534 415.001V437.982M316.968 232.509L457.555 405.539M316.968 232.509C330.858 241.72 349.739 253.949 369.538 266.304M316.968 232.509C317.477 238.355 317.754 243.997 317.835 249.421C317.902 253.845 317.839 258.123 317.666 262.248M384.558 540.718L389.965 470.425C390.417 472.004 388.998 472.293 386 471.482M384.558 540.718L442.305 502.221M384.558 540.718L385.279 529.904M142.587 328.486C186.669 356.539 253.518 398.232 306.628 429.447M142.587 332.542C144.655 337.713 147.436 345.813 149.961 355.297M309.069 332.542C306.54 330.976 304.184 329.614 302.099 328.486C303.443 326.246 305.011 323.069 306.628 319.024M309.069 332.542L379.151 272.266M309.069 332.542C313.309 335.168 318.037 338.368 322.801 342.004M379.151 272.266C417.547 295.933 456.91 318.35 468.369 319.024L515.902 367.688M379.151 272.266C375.934 270.284 372.724 268.292 369.538 266.304M322.801 342.004C337.908 353.533 353.38 369.437 354.819 385.262C357.662 387.981 361.346 392.119 365.263 397.428M322.801 342.004L389.965 282.525M334.542 347.411L404.835 290.636M344.004 358.226L419.705 300.099M354.819 371.744L430.519 308.209L500.813 393.373M358.874 385.262L448.093 314.968M365.263 397.428L461.61 319.024L515.902 385.262M365.263 397.428C370.285 404.235 375.69 412.969 380.194 423.112M379.151 409.594L468.369 332.542M380.194 423.112L481.887 336.597M380.194 423.112C382.27 427.786 384.154 432.76 385.722 437.982M385.722 437.982L494.054 350.115M385.722 437.982C387.026 442.326 388.111 446.841 388.905 451.5M388.905 451.5C389.358 454.159 389.716 456.864 389.965 459.611L389.605 465.018M388.905 451.5L500.813 362.281M389.605 465.018L412.946 447.03M389.605 465.018L388.614 479.887M515.902 367.688L525.145 377.151L461.61 489.35L442.305 502.221M515.902 367.688L424.687 437.982M488.646 401.483L392.669 286.581M476.48 409.594L354.819 262.248L314.532 290.636M314.532 290.636C313.648 295.444 312.638 299.883 311.561 303.928M314.532 290.636C315.009 288.039 315.449 285.334 315.842 282.525M311.561 303.928L424.687 437.982M311.561 303.928C309.993 309.82 308.285 314.878 306.628 319.024M424.687 437.982L412.946 447.03M438.63 431.223L315.842 282.525M315.842 282.525C316.718 276.268 317.362 269.495 317.666 262.248M317.666 262.248L320.994 266.304M450.796 424.464L320.994 266.304M306.628 319.024L369.538 266.304M320.994 266.304L339.949 252.786M412.946 447.03L410.135 443.389M365.263 385.262L410.135 443.389M162.864 347.411L169.623 355.297M317.835 435.996L277.766 474.48L268.304 470.425L169.623 355.297M317.835 435.996L386 519.09M317.835 435.996C314.179 433.872 310.439 431.687 306.628 429.447M317.835 435.996C327.606 441.669 336.774 446.894 345.084 451.5M386 519.09L388.614 479.887M386 519.09L385.279 529.904M380.194 540.718L369.538 527.64M198.01 371.744L156.105 405.539C156.641 399.105 156.413 392.206 155.684 385.262M158.808 383.91L184.492 362.281M152.897 367.688L169.623 355.297M152.897 367.688C152.008 363.394 151.006 359.226 149.961 355.297M152.897 367.688C154.081 373.406 155.064 379.35 155.684 385.262M152.897 350.115L158.808 342.004M247.086 459.611L233.157 451.5L277.766 415.001L369.538 527.64M247.086 459.611L289.932 424.464M247.086 459.611L256.373 465.018M256.373 465.018L306.628 429.447M256.373 465.018L293.988 486.92M289.932 479.887L334.542 443.389M298.161 489.35L339.949 513.682L330.486 502.221M298.161 489.35L345.084 451.5M298.161 489.35L293.988 486.92M345.084 451.5C364.52 462.272 379.256 469.658 386 471.482M330.486 502.221L243.971 397.428L202.066 431.223L185.844 423.112M330.486 502.221L369.538 470.425M344.004 509.627L386 471.482M354.819 519.09L461.61 431.714M488.646 409.594L482.038 415.001M369.538 527.64L481.887 439.041M494.054 429.447L481.887 439.041M412.946 513.682L388.614 479.887M450.796 489.35L410.135 443.389M442.305 502.221L392.669 437.982M424.687 509.627L392.669 470.425M385.279 529.904L388.614 527.334M476.48 459.611L468.369 465.862M476.48 451.5L461.61 431.714M461.61 431.714L470.472 424.464M481.887 439.041L470.472 424.464M470.472 424.464L482.038 415.001M488.646 424.464L482.038 415.001M500.813 415.001L494.054 405.539L506.22 397.428V401.483M388.614 527.334L450.796 431.714M388.614 527.334L468.369 465.862M293.988 486.92L210.176 377.151L169.623 415.001L185.844 423.112M225.046 447.03L222.066 443.389M149.961 355.297L222.066 443.389M185.844 423.112L155.684 385.262M184.492 415.001L225.046 385.262M222.066 443.389L261.545 409.594M461.61 479.887L434.575 447.03M468.369 465.862L442.305 437.982" stroke="#94A3B8" stroke-width="0.6"/>
<path d="M79.0522 425.816C81.2151 423.653 234.058 608.759 310.209 701.582L268.304 677.25L262.896 670.645M196.658 633.992L79.0522 496.109M196.658 633.992L334.542 520.441M196.658 633.992L208.825 641.011M169.623 617.771L310.209 505.572M183.141 628.585L319.672 513.682M208.825 641.011L231.805 654.269L224 644.807M208.825 641.011L349.411 528.552M224 644.807L79.0522 469.073V446.093L262.896 670.645M224 644.807L360.226 535.311M237.212 654.269L379.151 546.125M250.73 661.028L387.262 551.533M262.896 670.645L402.131 558.292" stroke="#9C9FA0"/>
<path d="M277.766 678.601L411.594 566.402L425.112 575.865L291.284 686.712M302.099 696.175L435.926 586.679M318.32 702.934L452.148 590.735M329.134 708.341L452.148 606.956M344.004 717.803L452.148 628.585M356.17 724.562L452.148 648.862M372.392 729.97L452.148 666.435M400.78 724.562L446.741 686.712M449.444 698.878L446.741 708.341M160.16 606.956L291.284 497.461M154.753 590.735L277.766 489.35M268.304 482.591L150.697 575.865M142.587 566.402L250.73 475.832M134.476 555.588L241.268 466.369M123.662 543.422L230.453 459.61M115.551 532.607L215.584 451.5M107.44 521.793L199.362 444.741M96.6256 515.034L184.492 437.982M88.5148 497.461L172.326 427.167M79.0522 486.646L160.16 417.705M81.7558 465.018L142.587 412.298M79.0522 444.741L130.42 405.539M79.0522 429.871L123.662 398.78M79.0522 412.298L107.44 390.669M79.0522 390.669L96.6256 381.206M79.0522 374.447L85.8112 371.744" stroke="#9C9FA0"/>
<path d="M472.425 320.376L452.148 504.22M392.669 286.581L389.965 456.907M312.913 586.679L380.503 456.907M237.213 543.422L219.639 382.558" stroke="#8C8C8C" stroke-opacity="0.65" stroke-width="2"/>
<path d="M892.833 293.34L998.273 354.17M879.315 271.711V168.974M573.809 102.736V0M77.7002 346.06V197.362M157.456 631.289V727.266M385.91 754.302V844.872" stroke="#FF09C9" stroke-width="0.5"/>
<path d="M895.537 404.187L990.163 458.259" stroke="#FF09C9" stroke-width="0.5"/>
<path d="M475.129 594.79L625.178 685.36" stroke="#FF09C9" stroke-width="0.5"/>
<path d="M79.0522 360.929L156.105 317.672M79.0522 360.929L158.238 408.217M79.0522 360.929V504.22C100.681 524.046 146.372 573.972 156.105 615.067C165.838 656.162 307.956 715.1 377.799 739.432L457.555 719.155M156.105 317.672L100.681 277.118L239.916 212.232L296.691 240.62M156.105 317.672L158.238 408.217M296.691 240.62L377.799 193.307L575.161 117.606M296.691 240.62V331.19C302.099 341.103 317.779 368.499 337.245 398.78M575.161 117.606L876.612 289.284M575.161 117.606V221.694M876.612 289.284L760.357 409.594M876.612 289.284L882.019 398.78M760.357 409.594L461.61 589.383M760.357 409.594L765.764 486.526M461.61 589.383L458.949 674.546M461.61 589.383L158.238 408.217M457.555 719.155L765.764 486.526M457.555 719.155L458.949 674.546M882.019 398.78L765.764 486.526M882.019 398.78H806.318M381.854 193.307V269.007L575.161 221.694M575.161 221.694L646.806 302.802M575.161 221.694C500.362 281.624 349.141 400.943 342.652 398.78C336.164 396.617 373.293 444.741 392.669 469.073L407.539 456.907L646.806 302.802M646.806 302.802L806.318 398.78M806.318 398.78L458.949 674.546M239.916 216.287C266.501 281.214 329.134 418.612 366.985 448.796" stroke="#FF09C9" stroke-width="3"/>
<path d="M4.70359 717.803L2 793.504H79.0524L58.7754 770.524L100.681 727.266L70.9416 696.175L24.9805 738.08L4.70359 717.803Z" stroke="#E879F9" stroke-width="2"/>
<path d="M80.0509 715.724C80.9555 716.671 81.6286 717.676 82.0704 718.738C82.5122 719.801 82.7238 720.87 82.7051 721.945C82.6865 723.02 82.4381 724.079 81.9601 725.12C81.4823 726.151 80.7789 727.11 79.85 727.997L75.1317 732.506L63.0547 719.868L67.773 715.359C68.7019 714.472 69.6947 713.816 70.7512 713.391C71.8079 712.955 72.8766 712.755 73.9571 712.791C75.0321 712.821 76.0903 713.081 77.1318 713.57C78.1733 714.06 79.1463 714.778 80.0509 715.724ZM78.2959 717.402C77.5542 716.625 76.7854 716.033 75.9894 715.624C75.1934 715.214 74.3991 714.984 73.6066 714.931C72.814 714.879 72.0346 715.005 71.2684 715.309C70.5023 715.614 69.7782 716.092 69.0961 716.744L66.0888 719.618L75.5194 729.487L78.5268 726.613C79.2088 725.961 79.7194 725.259 80.0586 724.508C80.3977 723.756 80.5619 722.986 80.551 722.198C80.5345 721.404 80.34 720.6 79.9673 719.786C79.5946 718.973 79.0375 718.178 78.2959 717.402Z" fill="#FF09C9"/>
<path d="M61.1734 721.666L69.3082 738.071L67.7736 739.538L55.3607 732.958C55.2414 732.892 55.1165 732.82 54.986 732.742C54.8613 732.659 54.7281 732.572 54.5864 732.483C54.6693 732.628 54.7467 732.768 54.8184 732.902C54.8902 733.036 54.9563 733.164 55.0168 733.286L61.0093 746.002L59.4747 747.468L43.4556 738.597L44.8755 737.241C45.0283 737.094 45.1913 737.012 45.3643 736.993C45.5431 736.968 45.7034 737 45.8452 737.09L56.8497 743.379C57.0426 743.499 57.2438 743.633 57.4532 743.781C57.6685 743.924 57.8922 744.082 58.1241 744.254C57.9686 744.009 57.8243 743.775 57.6913 743.554C57.5586 743.321 57.4456 743.102 57.3524 742.899L51.9305 731.275C51.8702 731.141 51.8508 730.985 51.8721 730.808C51.8936 730.618 51.9779 730.453 52.1249 730.313L52.6188 729.841C52.7716 729.695 52.9316 729.615 53.0987 729.602C53.2658 729.588 53.4291 729.618 53.5885 729.69L64.9458 735.643C65.1448 735.745 65.3492 735.865 65.5589 736.002C65.7745 736.133 65.9955 736.276 66.2221 736.431C66.0661 736.209 65.9214 735.993 65.7882 735.783C65.6549 735.572 65.5358 735.371 65.4309 735.179L59.6561 723.892C59.5844 723.758 59.5592 723.602 59.5805 723.425C59.6076 723.241 59.6947 723.079 59.8417 722.939L61.1734 721.666Z" fill="#FF09C9"/>
<path d="M37.8653 746.605L42.0876 751.024L47.2821 746.06L48.6137 747.453L43.4192 752.417L48.6107 757.85L46.8997 759.485L34.8228 746.847L42.6101 739.405L43.9417 740.799L37.8653 746.605Z" fill="#FF09C9"/>
<path d="M542.719 375.799L679.25 454.203L675.195 498.813V550.181L599.494 563.699L461.611 494.757" stroke="#FF09C9" stroke-dasharray="3 3"/>
<path d="M464.314 515.034L521.09 547.477L527.849 663.732L460.259 675.898" stroke="#FF09C9" stroke-dasharray="3 3"/>
<path d="M469.721 725.914L625.178 817.836" stroke="#FF09C9" stroke-width="0.5"/>
<path d="M160.16 417.705L239.916 548.829L312.913 589.383L450.796 502.868" stroke="#8C8C8C" stroke-opacity="0.65" stroke-width="2"/>
<path d="M77.7002 401.483L337.245 715.1L310.209 701.582M264.248 677.25L158.808 613.715M372.392 732.673L77.7002 377.151M88.5146 370.392L391.317 732.673L403.483 723.211L129.068 393.373L169.622 416.353L421.056 723.211L433.222 715.1L203.417 437.982L245.323 462.314L445.389 706.989L454.851 697.527L276.414 479.887M454.851 673.194L310.209 501.516M454.851 652.917L350.763 525.848M454.851 625.881L385.91 546.125M454.851 605.604L421.056 567.754" stroke="#9C9FA0"/>
<path d="M726.991 93.8235C727.902 93.6284 728.74 93.5308 729.504 93.5308C730.415 93.5308 731.22 93.665 731.92 93.9333C732.619 94.2017 733.2 94.5717 733.664 95.0434C734.136 95.5151 734.489 96.0721 734.725 96.7146C734.969 97.3571 735.091 98.0565 735.091 98.8128C735.091 99.7399 734.929 100.577 734.603 101.326C734.286 102.074 733.843 102.716 733.274 103.253C732.712 103.782 732.05 104.188 731.285 104.473C730.521 104.758 729.695 104.9 728.809 104.9C728.297 104.9 727.805 104.847 727.333 104.741C726.861 104.644 726.418 104.51 726.003 104.339C725.597 104.168 725.218 103.973 724.869 103.753C724.519 103.534 724.21 103.302 723.942 103.058L724.613 102.131C724.759 101.919 724.95 101.814 725.186 101.814C725.349 101.814 725.532 101.879 725.735 102.009C725.938 102.131 726.186 102.269 726.479 102.424C726.772 102.578 727.113 102.72 727.504 102.851C727.902 102.972 728.374 103.033 728.919 103.033C729.529 103.033 730.078 102.936 730.565 102.741C731.053 102.546 731.472 102.269 731.822 101.911C732.172 101.545 732.44 101.11 732.627 100.606C732.814 100.102 732.908 99.5365 732.908 98.9104C732.908 98.3655 732.826 97.8735 732.664 97.4343C732.509 96.9952 732.269 96.6211 731.944 96.3121C731.627 96.003 731.228 95.7631 730.748 95.5923C730.269 95.4216 729.708 95.3362 729.065 95.3362C728.626 95.3362 728.166 95.3728 727.687 95.4459C727.215 95.5191 726.731 95.6371 726.235 95.7997L724.869 95.3972L726.272 87.2241H734.554V88.1756C734.554 88.4846 734.457 88.7408 734.262 88.9441C734.075 89.1393 733.749 89.2369 733.286 89.2369H727.796L726.991 93.8235Z" fill="#94A3B8"/>
<path d="M726.991 93.8235C727.902 93.6284 728.74 93.5308 729.504 93.5308C730.415 93.5308 731.22 93.665 731.92 93.9333C732.619 94.2017 733.2 94.5717 733.664 95.0434C734.136 95.5151 734.489 96.0721 734.725 96.7146C734.969 97.3571 735.091 98.0565 735.091 98.8128C735.091 99.7399 734.929 100.577 734.603 101.326C734.286 102.074 733.843 102.716 733.274 103.253C732.712 103.782 732.05 104.188 731.285 104.473C730.521 104.758 729.695 104.9 728.809 104.9C728.297 104.9 727.805 104.847 727.333 104.741C726.861 104.644 726.418 104.51 726.003 104.339C725.597 104.168 725.218 103.973 724.869 103.753C724.519 103.534 724.21 103.302 723.942 103.058L724.613 102.131C724.759 101.919 724.95 101.814 725.186 101.814C725.349 101.814 725.532 101.879 725.735 102.009C725.938 102.131 726.186 102.269 726.479 102.424C726.772 102.578 727.113 102.72 727.504 102.851C727.902 102.972 728.374 103.033 728.919 103.033C729.529 103.033 730.078 102.936 730.565 102.741C731.053 102.546 731.472 102.269 731.822 101.911C732.172 101.545 732.44 101.11 732.627 100.606C732.814 100.102 732.908 99.5365 732.908 98.9104C732.908 98.3655 732.826 97.8735 732.664 97.4343C732.509 96.9952 732.269 96.6211 731.944 96.3121C731.627 96.003 731.228 95.7631 730.748 95.5923C730.269 95.4216 729.708 95.3362 729.065 95.3362C728.626 95.3362 728.166 95.3728 727.687 95.4459C727.215 95.5191 726.731 95.6371 726.235 95.7997L724.869 95.3972L726.272 87.2241H734.554V88.1756C734.554 88.4846 734.457 88.7408 734.262 88.9441C734.075 89.1393 733.749 89.2369 733.286 89.2369H727.796L726.991 93.8235Z" fill="#94A3B8"/>
<path d="M712.839 93.8235C713.75 93.6284 714.587 93.5308 715.352 93.5308C716.263 93.5308 717.068 93.665 717.767 93.9333C718.467 94.2017 719.048 94.5717 719.512 95.0434C719.983 95.5151 720.337 96.0721 720.573 96.7146C720.817 97.3571 720.939 98.0565 720.939 98.8128C720.939 99.7399 720.776 100.577 720.451 101.326C720.134 102.074 719.691 102.716 719.121 103.253C718.56 103.782 717.897 104.188 717.133 104.473C716.368 104.758 715.543 104.9 714.657 104.9C714.144 104.9 713.652 104.847 713.181 104.741C712.709 104.644 712.266 104.51 711.851 104.339C711.444 104.168 711.066 103.973 710.716 103.753C710.367 103.534 710.058 103.302 709.789 103.058L710.46 102.131C710.607 101.919 710.798 101.814 711.034 101.814C711.196 101.814 711.379 101.879 711.583 102.009C711.786 102.131 712.034 102.269 712.327 102.424C712.619 102.578 712.961 102.72 713.351 102.851C713.75 102.972 714.221 103.033 714.766 103.033C715.376 103.033 715.925 102.936 716.413 102.741C716.901 102.546 717.32 102.269 717.67 101.911C718.019 101.545 718.288 101.11 718.475 100.606C718.662 100.102 718.755 99.5365 718.755 98.9104C718.755 98.3655 718.674 97.8735 718.511 97.4343C718.357 96.9952 718.117 96.6211 717.792 96.3121C717.474 96.003 717.076 95.7631 716.596 95.5923C716.116 95.4216 715.555 95.3362 714.913 95.3362C714.474 95.3362 714.014 95.3728 713.534 95.4459C713.063 95.5191 712.579 95.6371 712.083 95.7997L710.716 95.3972L712.119 87.2241H720.402V88.1756C720.402 88.4846 720.305 88.7408 720.109 88.9441C719.922 89.1393 719.597 89.2369 719.133 89.2369H713.644L712.839 93.8235Z" fill="#94A3B8"/>
<path d="M712.839 93.8235C713.75 93.6284 714.587 93.5308 715.352 93.5308C716.263 93.5308 717.068 93.665 717.767 93.9333C718.467 94.2017 719.048 94.5717 719.512 95.0434C719.983 95.5151 720.337 96.0721 720.573 96.7146C720.817 97.3571 720.939 98.0565 720.939 98.8128C720.939 99.7399 720.776 100.577 720.451 101.326C720.134 102.074 719.691 102.716 719.121 103.253C718.56 103.782 717.897 104.188 717.133 104.473C716.368 104.758 715.543 104.9 714.657 104.9C714.144 104.9 713.652 104.847 713.181 104.741C712.709 104.644 712.266 104.51 711.851 104.339C711.444 104.168 711.066 103.973 710.716 103.753C710.367 103.534 710.058 103.302 709.789 103.058L710.46 102.131C710.607 101.919 710.798 101.814 711.034 101.814C711.196 101.814 711.379 101.879 711.583 102.009C711.786 102.131 712.034 102.269 712.327 102.424C712.619 102.578 712.961 102.72 713.351 102.851C713.75 102.972 714.221 103.033 714.766 103.033C715.376 103.033 715.925 102.936 716.413 102.741C716.901 102.546 717.32 102.269 717.67 101.911C718.019 101.545 718.288 101.11 718.475 100.606C718.662 100.102 718.755 99.5365 718.755 98.9104C718.755 98.3655 718.674 97.8735 718.511 97.4343C718.357 96.9952 718.117 96.6211 717.792 96.3121C717.474 96.003 717.076 95.7631 716.596 95.5923C716.116 95.4216 715.555 95.3362 714.913 95.3362C714.474 95.3362 714.014 95.3728 713.534 95.4459C713.063 95.5191 712.579 95.6371 712.083 95.7997L710.716 95.3972L712.119 87.2241H720.402V88.1756C720.402 88.4846 720.305 88.7408 720.109 88.9441C719.922 89.1393 719.597 89.2369 719.133 89.2369H713.644L712.839 93.8235Z" fill="#94A3B8"/>
<path d="M706.689 103.046V104.705H697.321V103.046H701.066V91.1276C701.066 90.7698 701.078 90.4079 701.102 90.042L697.991 92.7135C697.886 92.8029 697.78 92.8599 697.674 92.8842C697.569 92.9005 697.471 92.9005 697.382 92.8842C697.292 92.868 697.207 92.8355 697.125 92.7867C697.052 92.7379 696.995 92.685 696.955 92.6281L696.271 91.6888L701.48 87.1875H703.249V103.046H706.689Z" fill="#94A3B8"/>
<path d="M706.689 103.046V104.705H697.321V103.046H701.066V91.1276C701.066 90.7698 701.078 90.4079 701.102 90.042L697.991 92.7135C697.886 92.8029 697.78 92.8599 697.674 92.8842C697.569 92.9005 697.471 92.9005 697.382 92.8842C697.292 92.868 697.207 92.8355 697.125 92.7867C697.052 92.7379 696.995 92.685 696.955 92.6281L696.271 91.6888L701.48 87.1875H703.249V103.046H706.689Z" fill="#94A3B8"/>
<path d="M950.203 390.327C950.439 390.327 950.626 390.396 950.765 390.534C950.903 390.672 950.972 390.851 950.972 391.071V392.388H939.31V391.644C939.31 391.49 939.343 391.331 939.408 391.169C939.473 391.006 939.574 390.855 939.713 390.717L945.312 385.094C945.775 384.622 946.198 384.171 946.58 383.74C946.963 383.3 947.288 382.861 947.556 382.422C947.825 381.983 948.032 381.54 948.178 381.093C948.325 380.637 948.398 380.153 948.398 379.641C948.398 379.129 948.317 378.681 948.154 378.299C947.991 377.909 947.768 377.587 947.483 377.335C947.207 377.083 946.877 376.896 946.495 376.774C946.113 376.644 945.702 376.579 945.263 376.579C944.816 376.579 944.405 376.644 944.031 376.774C943.657 376.904 943.323 377.087 943.031 377.323C942.746 377.551 942.506 377.823 942.311 378.14C942.116 378.458 941.977 378.807 941.896 379.19C941.799 379.474 941.664 379.665 941.494 379.763C941.331 379.852 941.099 379.877 940.798 379.836L939.664 379.641C939.778 378.844 939.997 378.14 940.323 377.531C940.656 376.912 941.071 376.396 941.567 375.981C942.071 375.567 942.644 375.253 943.287 375.042C943.929 374.822 944.625 374.713 945.373 374.713C946.113 374.713 946.804 374.822 947.447 375.042C948.089 375.262 948.646 375.583 949.118 376.006C949.589 376.42 949.959 376.929 950.228 377.531C950.496 378.132 950.63 378.815 950.63 379.58C950.63 380.23 950.533 380.836 950.338 381.397C950.142 381.95 949.878 382.479 949.545 382.983C949.211 383.488 948.825 383.98 948.386 384.459C947.955 384.939 947.495 385.423 947.007 385.911L942.396 390.62C942.722 390.53 943.051 390.461 943.384 390.412C943.718 390.355 944.039 390.327 944.348 390.327H950.203Z" fill="#95ADBD"/>
<path d="M931.086 390.851C931.656 390.851 932.164 390.774 932.611 390.62C933.067 390.457 933.449 390.233 933.758 389.949C934.075 389.656 934.315 389.31 934.477 388.912C934.648 388.505 934.734 388.058 934.734 387.57C934.734 386.968 934.632 386.456 934.429 386.033C934.234 385.602 933.965 385.252 933.624 384.984C933.29 384.716 932.904 384.52 932.465 384.398C932.026 384.268 931.566 384.203 931.086 384.203C930.606 384.203 930.147 384.268 929.708 384.398C929.269 384.52 928.878 384.716 928.537 384.984C928.203 385.252 927.935 385.602 927.732 386.033C927.536 386.456 927.439 386.968 927.439 387.57C927.439 388.058 927.52 388.505 927.683 388.912C927.854 389.31 928.094 389.656 928.403 389.949C928.72 390.233 929.102 390.457 929.549 390.62C930.005 390.774 930.517 390.851 931.086 390.851ZM931.086 376.396C930.566 376.396 930.106 376.473 929.708 376.628C929.317 376.782 928.988 376.994 928.72 377.262C928.459 377.531 928.26 377.844 928.122 378.201C927.992 378.559 927.927 378.941 927.927 379.348C927.927 379.747 927.984 380.133 928.098 380.507C928.211 380.881 928.394 381.215 928.647 381.507C928.899 381.792 929.224 382.024 929.622 382.203C930.029 382.373 930.517 382.459 931.086 382.459C931.656 382.459 932.139 382.373 932.538 382.203C932.945 382.024 933.274 381.792 933.526 381.507C933.778 381.215 933.961 380.881 934.075 380.507C934.189 380.133 934.246 379.747 934.246 379.348C934.246 378.941 934.177 378.559 934.038 378.201C933.908 377.844 933.709 377.531 933.441 377.262C933.18 376.994 932.851 376.782 932.453 376.628C932.062 376.473 931.607 376.396 931.086 376.396ZM933.587 383.276C934.677 383.585 935.514 384.102 936.1 384.825C936.685 385.549 936.978 386.476 936.978 387.607C936.978 388.371 936.832 389.062 936.539 389.68C936.254 390.29 935.852 390.811 935.331 391.242C934.819 391.673 934.201 392.006 933.477 392.242C932.753 392.47 931.956 392.584 931.086 392.584C930.216 392.584 929.419 392.47 928.695 392.242C927.972 392.006 927.349 391.673 926.829 391.242C926.308 390.811 925.906 390.29 925.621 389.68C925.337 389.062 925.194 388.371 925.194 387.607C925.194 386.476 925.487 385.549 926.073 384.825C926.658 384.102 927.496 383.585 928.586 383.276C927.667 382.935 926.971 382.426 926.5 381.751C926.036 381.068 925.804 380.255 925.804 379.312C925.804 378.669 925.93 378.067 926.182 377.506C926.435 376.945 926.792 376.457 927.256 376.042C927.719 375.628 928.272 375.302 928.915 375.066C929.566 374.831 930.289 374.713 931.086 374.713C931.875 374.713 932.595 374.831 933.245 375.066C933.896 375.302 934.453 375.628 934.917 376.042C935.38 376.457 935.738 376.945 935.99 377.506C936.242 378.067 936.368 378.669 936.368 379.312C936.368 380.255 936.132 381.068 935.661 381.751C935.197 382.426 934.506 382.935 933.587 383.276Z" fill="#95ADBD"/>
<path d="M1000.11 384.413C1000.11 382.672 999.886 380.981 999.439 379.338C998.999 377.695 998.353 376.134 997.499 374.654C997.434 374.532 997.393 374.426 997.377 374.337C997.361 374.239 997.365 374.158 997.389 374.093C997.414 374.019 997.45 373.958 997.499 373.91C997.556 373.853 997.617 373.804 997.682 373.763L998.646 373.166C999.256 374.109 999.772 375.04 1000.19 375.959C1000.63 376.878 1000.97 377.801 1001.23 378.728C1001.5 379.647 1001.7 380.578 1001.82 381.522C1001.94 382.465 1002 383.429 1002 384.413C1002 385.405 1001.94 386.373 1001.82 387.316C1001.7 388.251 1001.5 389.182 1001.23 390.109C1000.97 391.037 1000.63 391.96 1000.19 392.879C999.772 393.797 999.256 394.725 998.646 395.66L997.682 395.074C997.617 395.034 997.556 394.985 997.499 394.928C997.45 394.879 997.414 394.818 997.389 394.745C997.365 394.68 997.361 394.599 997.377 394.501C997.393 394.403 997.434 394.294 997.499 394.172C998.353 392.691 998.999 391.13 999.439 389.487C999.886 387.845 1000.11 386.153 1000.11 384.413Z" fill="#CDF856"/>
<path d="M994.471 390.024C994.707 390.024 994.894 390.093 995.033 390.231C995.171 390.37 995.24 390.549 995.24 390.768V392.086H983.578V391.341C983.578 391.187 983.611 391.028 983.676 390.866C983.741 390.703 983.842 390.553 983.981 390.414L989.58 384.791C990.043 384.319 990.466 383.868 990.848 383.437C991.231 382.998 991.556 382.558 991.824 382.119C992.093 381.68 992.3 381.237 992.447 380.79C992.593 380.334 992.666 379.85 992.666 379.338C992.666 378.826 992.585 378.378 992.422 377.996C992.259 377.606 992.036 377.285 991.751 377.033C991.475 376.78 991.145 376.593 990.763 376.471C990.381 376.341 989.97 376.276 989.531 376.276C989.084 376.276 988.673 376.341 988.299 376.471C987.925 376.602 987.591 376.784 987.299 377.02C987.014 377.248 986.774 377.52 986.579 377.838C986.384 378.155 986.246 378.504 986.164 378.887C986.067 379.171 985.932 379.362 985.762 379.46C985.599 379.55 985.367 379.574 985.066 379.533L983.932 379.338C984.046 378.541 984.265 377.838 984.591 377.228C984.924 376.61 985.339 376.093 985.835 375.678C986.339 375.264 986.912 374.951 987.555 374.739C988.197 374.52 988.893 374.41 989.641 374.41C990.381 374.41 991.072 374.52 991.715 374.739C992.357 374.959 992.914 375.28 993.386 375.703C993.857 376.118 994.228 376.626 994.496 377.228C994.764 377.83 994.898 378.513 994.898 379.277C994.898 379.928 994.801 380.534 994.606 381.095C994.41 381.648 994.146 382.176 993.813 382.68C993.479 383.185 993.093 383.677 992.654 384.157C992.223 384.636 991.763 385.12 991.275 385.608L986.664 390.317C986.99 390.227 987.319 390.158 987.652 390.109C987.986 390.053 988.307 390.024 988.616 390.024H994.471Z" fill="#CDF856"/>
<path d="M969.865 379.338C969.979 378.541 970.199 377.838 970.524 377.228C970.849 376.61 971.26 376.093 971.756 375.678C972.26 375.264 972.833 374.951 973.476 374.739C974.126 374.52 974.826 374.41 975.574 374.41C976.314 374.41 976.997 374.516 977.623 374.727C978.25 374.938 978.786 375.239 979.234 375.63C979.689 376.02 980.043 376.492 980.295 377.045C980.547 377.598 980.673 378.212 980.673 378.887C980.673 379.44 980.6 379.936 980.453 380.375C980.315 380.806 980.112 381.184 979.844 381.509C979.583 381.835 979.266 382.111 978.892 382.339C978.518 382.567 978.099 382.754 977.636 382.9C978.774 383.193 979.628 383.697 980.197 384.413C980.775 385.12 981.063 386.007 981.063 387.072C981.063 387.877 980.909 388.601 980.6 389.243C980.299 389.886 979.884 390.435 979.356 390.89C978.827 391.337 978.209 391.683 977.501 391.927C976.802 392.163 976.05 392.281 975.245 392.281C974.318 392.281 973.525 392.167 972.866 391.939C972.207 391.703 971.65 391.382 971.195 390.976C970.739 390.569 970.365 390.089 970.072 389.536C969.78 388.975 969.532 388.369 969.328 387.719L970.268 387.328C970.512 387.222 970.747 387.194 970.975 387.243C971.211 387.292 971.382 387.426 971.488 387.645C971.593 387.873 971.723 388.145 971.878 388.463C972.041 388.78 972.26 389.085 972.537 389.378C972.813 389.67 973.163 389.918 973.586 390.122C974.017 390.325 974.562 390.427 975.22 390.427C975.83 390.427 976.363 390.329 976.818 390.134C977.282 389.931 977.664 389.67 977.965 389.353C978.274 389.036 978.506 388.682 978.66 388.292C978.815 387.901 978.892 387.515 978.892 387.133C978.892 386.661 978.831 386.23 978.709 385.84C978.587 385.45 978.359 385.112 978.026 384.827C977.693 384.543 977.233 384.319 976.648 384.157C976.07 383.994 975.326 383.913 974.415 383.913V382.339C975.163 382.331 975.798 382.249 976.318 382.095C976.847 381.94 977.274 381.729 977.599 381.461C977.932 381.192 978.172 380.871 978.319 380.497C978.473 380.123 978.551 379.708 978.551 379.253C978.551 378.748 978.469 378.309 978.307 377.935C978.152 377.561 977.937 377.252 977.66 377.008C977.384 376.764 977.054 376.581 976.672 376.459C976.298 376.337 975.891 376.276 975.452 376.276C975.013 376.276 974.602 376.341 974.22 376.471C973.846 376.602 973.512 376.784 973.22 377.02C972.935 377.248 972.695 377.52 972.5 377.838C972.305 378.155 972.167 378.504 972.085 378.887C971.98 379.171 971.845 379.362 971.683 379.46C971.528 379.55 971.3 379.574 971 379.533L969.865 379.338Z" fill="#CDF856"/>
<path d="M964.764 384.413C964.764 386.153 964.983 387.845 965.422 389.487C965.87 391.13 966.52 392.691 967.374 394.172C967.504 394.424 967.537 394.615 967.472 394.745C967.407 394.883 967.313 394.993 967.191 395.074L966.227 395.66C965.617 394.725 965.097 393.797 964.666 392.879C964.243 391.96 963.897 391.037 963.629 390.109C963.369 389.182 963.178 388.251 963.056 387.316C962.934 386.373 962.873 385.405 962.873 384.413C962.873 383.429 962.934 382.465 963.056 381.522C963.178 380.578 963.369 379.647 963.629 378.728C963.897 377.801 964.243 376.878 964.666 375.959C965.097 375.04 965.617 374.109 966.227 373.166L967.191 373.763C967.313 373.845 967.407 373.954 967.472 374.093C967.537 374.223 967.504 374.41 967.374 374.654C966.52 376.134 965.87 377.695 965.422 379.338C964.983 380.981 964.764 382.672 964.764 384.413Z" fill="#CDF856"/>
<path d="M590.643 736.357V738.016H581.275V736.357H585.02V724.439C585.02 724.081 585.032 723.719 585.056 723.353L581.946 726.024C581.84 726.114 581.734 726.171 581.629 726.195C581.523 726.211 581.425 726.211 581.336 726.195C581.246 726.179 581.161 726.146 581.08 726.098C581.007 726.049 580.95 725.996 580.909 725.939L580.226 725L585.435 720.498H587.203V736.357H590.643Z" fill="#95ADBD"/>
<path d="M576.113 735.954C576.349 735.954 576.536 736.023 576.674 736.161C576.812 736.3 576.881 736.479 576.881 736.698V738.016H565.219V737.271C565.219 737.117 565.252 736.958 565.317 736.796C565.382 736.633 565.484 736.483 565.622 736.344L571.221 730.721C571.685 730.249 572.108 729.798 572.49 729.367C572.872 728.928 573.197 728.488 573.466 728.049C573.734 727.61 573.941 727.167 574.088 726.72C574.234 726.264 574.307 725.78 574.307 725.268C574.307 724.756 574.226 724.308 574.063 723.926C573.901 723.536 573.677 723.215 573.393 722.962C573.116 722.71 572.787 722.523 572.404 722.401C572.022 722.271 571.612 722.206 571.172 722.206C570.725 722.206 570.314 722.271 569.94 722.401C569.566 722.531 569.233 722.714 568.94 722.95C568.655 723.178 568.416 723.45 568.22 723.768C568.025 724.085 567.887 724.434 567.806 724.817C567.708 725.101 567.574 725.292 567.403 725.39C567.24 725.479 567.009 725.504 566.708 725.463L565.573 725.268C565.687 724.471 565.907 723.768 566.232 723.158C566.565 722.54 566.98 722.023 567.476 721.608C567.98 721.194 568.554 720.881 569.196 720.669C569.839 720.45 570.534 720.34 571.282 720.34C572.022 720.34 572.713 720.45 573.356 720.669C573.998 720.889 574.555 721.21 575.027 721.633C575.499 722.048 575.869 722.556 576.137 723.158C576.406 723.759 576.54 724.443 576.54 725.207C576.54 725.858 576.442 726.463 576.247 727.025C576.052 727.578 575.788 728.106 575.454 728.61C575.121 729.115 574.734 729.607 574.295 730.086C573.864 730.566 573.405 731.05 572.917 731.538L568.306 736.247C568.631 736.157 568.96 736.088 569.294 736.039C569.627 735.982 569.948 735.954 570.258 735.954H576.113Z" fill="#95ADBD"/>
<path d="M562.339 736.357V738.016H552.97V736.357H556.715V724.439C556.715 724.081 556.727 723.719 556.752 723.353L553.641 726.024C553.535 726.114 553.43 726.171 553.324 726.195C553.218 726.211 553.121 726.211 553.031 726.195C552.942 726.179 552.856 726.146 552.775 726.098C552.702 726.049 552.645 725.996 552.604 725.939L551.921 725L557.13 720.498H558.899V736.357H562.339Z" fill="#95ADBD"/>
<path d="M640.532 730.472C640.532 728.732 640.308 727.04 639.861 725.398C639.422 723.755 638.775 722.194 637.922 720.713C637.856 720.591 637.816 720.486 637.8 720.396C637.783 720.299 637.787 720.217 637.812 720.152C637.836 720.079 637.873 720.018 637.922 719.969C637.978 719.912 638.039 719.864 638.105 719.823L639.068 719.225C639.678 720.169 640.195 721.1 640.617 722.019C641.048 722.938 641.394 723.861 641.654 724.788C641.923 725.707 642.118 726.638 642.24 727.581C642.362 728.525 642.423 729.488 642.423 730.472C642.423 731.464 642.362 732.432 642.24 733.376C642.118 734.311 641.923 735.242 641.654 736.169C641.394 737.096 641.048 738.019 640.617 738.938C640.195 739.857 639.678 740.784 639.068 741.719L638.105 741.134C638.039 741.093 637.978 741.044 637.922 740.988C637.873 740.939 637.836 740.878 637.812 740.805C637.787 740.739 637.783 740.658 637.8 740.561C637.816 740.463 637.856 740.353 637.922 740.231C638.775 738.751 639.422 737.19 639.861 735.547C640.308 733.904 640.532 732.213 640.532 730.472Z" fill="#CDF856"/>
<path d="M636.041 720.665V721.641C636.041 721.917 636.008 722.145 635.943 722.324C635.886 722.503 635.829 722.653 635.773 722.775L628.527 737.377C628.421 737.588 628.274 737.771 628.087 737.926C627.9 738.072 627.652 738.145 627.343 738.145H625.782L633.125 723.727C633.231 723.523 633.341 723.336 633.455 723.165C633.569 722.995 633.691 722.832 633.821 722.677H624.696C624.558 722.677 624.436 722.625 624.33 722.519C624.224 722.405 624.172 722.279 624.172 722.141V720.665H636.041Z" fill="#CDF856"/>
<path d="M617.607 731.839V724.629C617.607 724.418 617.615 724.186 617.631 723.934C617.648 723.682 617.672 723.426 617.705 723.165L611.337 731.839H617.607ZM622.157 731.839V733.083C622.157 733.213 622.116 733.323 622.035 733.412C621.962 733.502 621.844 733.546 621.681 733.546H619.51V738.145H617.607V733.546H609.849C609.686 733.546 609.544 733.502 609.422 733.412C609.308 733.315 609.235 733.197 609.202 733.058L608.983 731.948L617.485 720.665H619.51V731.839H622.157Z" fill="#CDF856"/>
<path d="M605.186 730.472C605.186 732.213 605.406 733.904 605.845 735.547C606.292 737.19 606.943 738.751 607.797 740.231C607.927 740.483 607.959 740.674 607.894 740.805C607.829 740.943 607.736 741.053 607.614 741.134L606.65 741.719C606.04 740.784 605.52 739.857 605.089 738.938C604.666 738.019 604.32 737.096 604.052 736.169C603.791 735.242 603.6 734.311 603.478 733.376C603.356 732.432 603.295 731.464 603.295 730.472C603.295 729.488 603.356 728.525 603.478 727.581C603.6 726.638 603.791 725.707 604.052 724.788C604.32 723.861 604.666 722.938 605.089 722.019C605.52 721.1 606.04 720.169 606.65 719.225L607.614 719.823C607.736 719.904 607.829 720.014 607.894 720.152C607.959 720.282 607.927 720.469 607.797 720.713C606.943 722.194 606.292 723.755 605.845 725.398C605.406 727.04 605.186 728.732 605.186 730.472Z" fill="#CDF856"/>
<path d="M732.605 127.528C732.605 125.788 732.382 124.096 731.934 122.454C731.495 120.811 730.849 119.249 729.995 117.769C729.93 117.647 729.889 117.542 729.873 117.452C729.857 117.355 729.861 117.273 729.885 117.208C729.909 117.135 729.946 117.074 729.995 117.025C730.052 116.968 730.113 116.92 730.178 116.879L731.141 116.281C731.751 117.225 732.268 118.156 732.691 119.075C733.122 119.994 733.467 120.917 733.728 121.844C733.996 122.763 734.191 123.694 734.313 124.637C734.435 125.581 734.496 126.544 734.496 127.528C734.496 128.52 734.435 129.488 734.313 130.432C734.191 131.367 733.996 132.298 733.728 133.225C733.467 134.152 733.122 135.075 732.691 135.994C732.268 136.913 731.751 137.84 731.141 138.775L730.178 138.19C730.113 138.149 730.052 138.1 729.995 138.043C729.946 137.995 729.909 137.934 729.885 137.86C729.861 137.795 729.857 137.714 729.873 137.617C729.889 137.519 729.93 137.409 729.995 137.287C730.849 135.807 731.495 134.246 731.934 132.603C732.382 130.96 732.605 129.269 732.605 127.528Z" fill="#CDF856"/>
<path d="M727.346 133.542V135.201H717.977V133.542H721.722V121.624C721.722 121.266 721.734 120.904 721.759 120.538L718.648 123.21C718.542 123.299 718.437 123.356 718.331 123.381C718.225 123.397 718.128 123.397 718.038 123.381C717.949 123.364 717.863 123.332 717.782 123.283C717.709 123.234 717.652 123.182 717.611 123.125L716.928 122.185L722.137 117.684H723.906V133.542H727.346Z" fill="#CDF856"/>
<path d="M707.826 133.591C708.412 133.591 708.94 133.497 709.412 133.31C709.892 133.123 710.298 132.863 710.632 132.53C710.973 132.196 711.234 131.802 711.413 131.346C711.6 130.891 711.693 130.395 711.693 129.858C711.693 129.289 711.604 128.777 711.425 128.321C711.246 127.858 710.99 127.467 710.656 127.15C710.331 126.825 709.941 126.577 709.485 126.406C709.03 126.235 708.53 126.15 707.985 126.15C707.399 126.15 706.871 126.251 706.399 126.455C705.927 126.65 705.525 126.918 705.191 127.26C704.866 127.593 704.614 127.984 704.435 128.431C704.264 128.87 704.179 129.33 704.179 129.809C704.179 130.371 704.26 130.883 704.423 131.346C704.585 131.81 704.821 132.208 705.13 132.542C705.447 132.875 705.83 133.136 706.277 133.323C706.732 133.502 707.249 133.591 707.826 133.591ZM706.557 124.271C706.403 124.466 706.252 124.658 706.106 124.845C705.968 125.023 705.834 125.202 705.704 125.381C706.118 125.097 706.574 124.877 707.07 124.723C707.566 124.568 708.107 124.491 708.692 124.491C709.4 124.491 710.067 124.609 710.693 124.845C711.319 125.072 711.864 125.41 712.327 125.857C712.799 126.296 713.173 126.841 713.45 127.492C713.726 128.134 713.864 128.87 713.864 129.7C713.864 130.505 713.718 131.253 713.425 131.944C713.133 132.635 712.722 133.237 712.193 133.75C711.673 134.262 711.042 134.664 710.302 134.957C709.571 135.25 708.761 135.396 707.875 135.396C706.997 135.396 706.2 135.258 705.484 134.982C704.768 134.697 704.158 134.298 703.654 133.786C703.158 133.266 702.772 132.639 702.495 131.908C702.227 131.168 702.093 130.342 702.093 129.431C702.093 128.667 702.259 127.854 702.593 126.992C702.934 126.121 703.475 125.194 704.215 124.21L708.656 118.245C708.769 118.099 708.924 117.977 709.119 117.879C709.322 117.773 709.554 117.721 709.814 117.721H711.742L706.557 124.271Z" fill="#CDF856"/>
<path d="M697.259 127.528C697.259 129.269 697.479 130.96 697.918 132.603C698.365 134.246 699.016 135.807 699.87 137.287C700 137.539 700.033 137.73 699.968 137.86C699.902 137.999 699.809 138.109 699.687 138.19L698.723 138.775C698.113 137.84 697.593 136.913 697.162 135.994C696.739 135.075 696.393 134.152 696.125 133.225C695.865 132.298 695.674 131.367 695.552 130.432C695.43 129.488 695.369 128.52 695.369 127.528C695.369 126.544 695.43 125.581 695.552 124.637C695.674 123.694 695.865 122.763 696.125 121.844C696.393 120.917 696.739 119.994 697.162 119.075C697.593 118.156 698.113 117.225 698.723 116.281L699.687 116.879C699.809 116.96 699.902 117.07 699.968 117.208C700.033 117.338 700 117.525 699.87 117.769C699.016 119.249 698.365 120.811 697.918 122.454C697.479 124.096 697.259 125.788 697.259 127.528Z" fill="#CDF856"/>
<path d="M258.992 298.23C259.106 297.433 259.326 296.73 259.651 296.12C259.976 295.502 260.387 294.986 260.883 294.571C261.387 294.156 261.961 293.843 262.603 293.631C263.254 293.412 263.953 293.302 264.701 293.302C265.441 293.302 266.124 293.408 266.751 293.619C267.377 293.831 267.914 294.132 268.361 294.522C268.816 294.912 269.17 295.384 269.422 295.937C269.674 296.49 269.8 297.104 269.8 297.779C269.8 298.332 269.727 298.828 269.581 299.267C269.442 299.698 269.239 300.076 268.971 300.402C268.711 300.727 268.393 301.003 268.019 301.231C267.645 301.459 267.226 301.646 266.763 301.792C267.901 302.085 268.755 302.589 269.325 303.305C269.902 304.012 270.191 304.899 270.191 305.964C270.191 306.769 270.036 307.493 269.727 308.136C269.426 308.778 269.011 309.327 268.483 309.782C267.954 310.23 267.336 310.575 266.629 310.819C265.929 311.055 265.177 311.173 264.372 311.173C263.445 311.173 262.652 311.059 261.993 310.831C261.334 310.596 260.777 310.274 260.322 309.868C259.867 309.461 259.492 308.981 259.2 308.428C258.907 307.867 258.659 307.261 258.456 306.611L259.395 306.22C259.639 306.115 259.875 306.086 260.102 306.135C260.338 306.184 260.509 306.318 260.615 306.538C260.72 306.765 260.851 307.038 261.005 307.355C261.168 307.672 261.387 307.977 261.664 308.27C261.94 308.563 262.29 308.811 262.713 309.014C263.144 309.217 263.689 309.319 264.347 309.319C264.957 309.319 265.49 309.221 265.946 309.026C266.409 308.823 266.791 308.563 267.092 308.245C267.401 307.928 267.633 307.574 267.788 307.184C267.942 306.794 268.019 306.407 268.019 306.025C268.019 305.554 267.958 305.123 267.836 304.732C267.714 304.342 267.487 304.004 267.153 303.72C266.82 303.435 266.36 303.211 265.775 303.049C265.197 302.886 264.453 302.805 263.542 302.805V301.231C264.291 301.223 264.925 301.142 265.445 300.987C265.974 300.833 266.401 300.621 266.726 300.353C267.06 300.085 267.3 299.763 267.446 299.389C267.6 299.015 267.678 298.6 267.678 298.145C267.678 297.641 267.596 297.202 267.434 296.827C267.279 296.453 267.064 296.144 266.787 295.9C266.511 295.656 266.181 295.473 265.799 295.351C265.425 295.229 265.018 295.168 264.579 295.168C264.14 295.168 263.729 295.234 263.347 295.364C262.973 295.494 262.64 295.677 262.347 295.913C262.062 296.14 261.822 296.413 261.627 296.73C261.432 297.047 261.294 297.397 261.212 297.779C261.107 298.064 260.973 298.255 260.81 298.352C260.655 298.442 260.428 298.466 260.127 298.426L258.992 298.23Z" fill="#95ADBD"/>
<path d="M250.305 309.368C250.89 309.368 251.419 309.274 251.891 309.087C252.371 308.9 252.777 308.64 253.111 308.306C253.452 307.973 253.712 307.579 253.891 307.123C254.078 306.668 254.172 306.172 254.172 305.635C254.172 305.066 254.082 304.553 253.903 304.098C253.725 303.634 253.468 303.244 253.135 302.927C252.81 302.602 252.419 302.353 251.964 302.183C251.508 302.012 251.008 301.927 250.463 301.927C249.878 301.927 249.349 302.028 248.878 302.231C248.406 302.427 248.003 302.695 247.67 303.037C247.345 303.37 247.093 303.76 246.914 304.208C246.743 304.647 246.657 305.106 246.657 305.586C246.657 306.147 246.739 306.66 246.901 307.123C247.064 307.587 247.3 307.985 247.609 308.319C247.926 308.652 248.308 308.912 248.756 309.099C249.211 309.278 249.727 309.368 250.305 309.368ZM249.036 300.048C248.882 300.243 248.731 300.434 248.585 300.621C248.447 300.8 248.312 300.979 248.182 301.158C248.597 300.873 249.052 300.654 249.549 300.499C250.045 300.345 250.585 300.268 251.171 300.268C251.878 300.268 252.545 300.385 253.172 300.621C253.798 300.849 254.343 301.186 254.806 301.634C255.278 302.073 255.652 302.618 255.928 303.268C256.205 303.911 256.343 304.647 256.343 305.476C256.343 306.281 256.197 307.03 255.904 307.721C255.611 308.412 255.201 309.014 254.672 309.526C254.152 310.039 253.521 310.441 252.781 310.734C252.049 311.027 251.24 311.173 250.354 311.173C249.475 311.173 248.678 311.035 247.963 310.758C247.247 310.474 246.637 310.075 246.133 309.563C245.637 309.042 245.251 308.416 244.974 307.684C244.706 306.944 244.572 306.119 244.572 305.208C244.572 304.443 244.738 303.63 245.072 302.768C245.413 301.898 245.954 300.971 246.694 299.987L251.134 294.022C251.248 293.875 251.403 293.753 251.598 293.656C251.801 293.55 252.033 293.497 252.293 293.497H254.221L249.036 300.048Z" fill="#95ADBD"/>
<path d="M241.142 308.916C241.378 308.916 241.565 308.985 241.703 309.124C241.841 309.262 241.91 309.441 241.91 309.66V310.978H230.249V310.234C230.249 310.079 230.281 309.921 230.346 309.758C230.411 309.595 230.513 309.445 230.651 309.307L236.25 303.683C236.714 303.211 237.137 302.76 237.519 302.329C237.901 301.89 238.226 301.451 238.495 301.012C238.763 300.572 238.971 300.129 239.117 299.682C239.263 299.227 239.336 298.743 239.336 298.23C239.336 297.718 239.255 297.271 239.093 296.888C238.93 296.498 238.706 296.177 238.422 295.925C238.145 295.673 237.816 295.486 237.434 295.364C237.051 295.234 236.641 295.168 236.201 295.168C235.754 295.168 235.343 295.234 234.969 295.364C234.595 295.494 234.262 295.677 233.969 295.913C233.684 296.14 233.445 296.413 233.249 296.73C233.054 297.047 232.916 297.397 232.835 297.779C232.737 298.064 232.603 298.255 232.432 298.352C232.269 298.442 232.038 298.466 231.737 298.426L230.602 298.23C230.716 297.433 230.936 296.73 231.261 296.12C231.594 295.502 232.009 294.986 232.505 294.571C233.009 294.156 233.583 293.843 234.225 293.631C234.868 293.412 235.563 293.302 236.311 293.302C237.051 293.302 237.743 293.412 238.385 293.631C239.027 293.851 239.585 294.172 240.056 294.595C240.528 295.01 240.898 295.518 241.166 296.12C241.435 296.722 241.569 297.405 241.569 298.169C241.569 298.82 241.471 299.426 241.276 299.987C241.081 300.54 240.817 301.069 240.483 301.573C240.15 302.077 239.763 302.569 239.324 303.049C238.893 303.529 238.434 304.012 237.946 304.5L233.335 309.209C233.66 309.12 233.989 309.05 234.323 309.002C234.656 308.945 234.978 308.916 235.287 308.916H241.142Z" fill="#95ADBD"/>
<path d="M277.111 335.921C277.111 334.181 276.888 332.489 276.44 330.846C276.001 329.204 275.355 327.642 274.501 326.162C274.436 326.04 274.395 325.934 274.379 325.845C274.362 325.747 274.366 325.666 274.391 325.601C274.415 325.528 274.452 325.467 274.501 325.418C274.558 325.361 274.619 325.312 274.684 325.272L275.647 324.674C276.257 325.617 276.774 326.548 277.197 327.467C277.628 328.386 277.973 329.309 278.233 330.237C278.502 331.155 278.697 332.087 278.819 333.03C278.941 333.973 279.002 334.937 279.002 335.921C279.002 336.913 278.941 337.881 278.819 338.824C278.697 339.76 278.502 340.691 278.233 341.618C277.973 342.545 277.628 343.468 277.197 344.387C276.774 345.306 276.257 346.233 275.647 347.168L274.684 346.583C274.619 346.542 274.558 346.493 274.501 346.436C274.452 346.387 274.415 346.326 274.391 346.253C274.366 346.188 274.362 346.107 274.379 346.009C274.395 345.912 274.436 345.802 274.501 345.68C275.355 344.2 276.001 342.638 276.44 340.996C276.888 339.353 277.111 337.661 277.111 335.921Z" fill="#CDF856"/>
<path d="M261.019 330.846C261.133 330.049 261.353 329.346 261.678 328.736C262.003 328.118 262.414 327.602 262.91 327.187C263.414 326.772 263.987 326.459 264.63 326.248C265.281 326.028 265.98 325.918 266.728 325.918C267.468 325.918 268.151 326.024 268.777 326.235C269.404 326.447 269.94 326.748 270.388 327.138C270.843 327.528 271.197 328 271.449 328.553C271.701 329.106 271.827 329.72 271.827 330.395C271.827 330.948 271.754 331.444 271.608 331.883C271.469 332.314 271.266 332.693 270.998 333.018C270.737 333.343 270.42 333.62 270.046 333.847C269.672 334.075 269.253 334.262 268.79 334.408C269.928 334.701 270.782 335.205 271.351 335.921C271.929 336.629 272.217 337.515 272.217 338.58C272.217 339.385 272.063 340.109 271.754 340.752C271.453 341.394 271.038 341.943 270.51 342.399C269.981 342.846 269.363 343.191 268.655 343.435C267.956 343.671 267.204 343.789 266.399 343.789C265.472 343.789 264.679 343.675 264.02 343.448C263.361 343.212 262.804 342.891 262.349 342.484C261.893 342.077 261.519 341.598 261.227 341.044C260.934 340.483 260.686 339.877 260.482 339.227L261.422 338.837C261.666 338.731 261.902 338.702 262.129 338.751C262.365 338.8 262.536 338.934 262.642 339.154C262.747 339.381 262.877 339.654 263.032 339.971C263.195 340.288 263.414 340.593 263.691 340.886C263.967 341.179 264.317 341.427 264.74 341.63C265.171 341.833 265.716 341.935 266.374 341.935C266.984 341.935 267.517 341.837 267.972 341.642C268.436 341.439 268.818 341.179 269.119 340.862C269.428 340.544 269.66 340.191 269.814 339.8C269.969 339.41 270.046 339.024 270.046 338.641C270.046 338.17 269.985 337.739 269.863 337.348C269.741 336.958 269.513 336.62 269.18 336.336C268.847 336.051 268.387 335.828 267.802 335.665C267.224 335.502 266.48 335.421 265.569 335.421V333.847C266.317 333.839 266.952 333.758 267.472 333.603C268.001 333.449 268.428 333.237 268.753 332.969C269.087 332.701 269.326 332.379 269.473 332.005C269.627 331.631 269.705 331.216 269.705 330.761C269.705 330.257 269.623 329.818 269.461 329.444C269.306 329.07 269.091 328.761 268.814 328.517C268.538 328.273 268.208 328.09 267.826 327.968C267.452 327.846 267.045 327.785 266.606 327.785C266.167 327.785 265.756 327.85 265.374 327.98C265 328.11 264.667 328.293 264.374 328.529C264.089 328.756 263.849 329.029 263.654 329.346C263.459 329.663 263.321 330.013 263.239 330.395C263.134 330.68 262.999 330.871 262.837 330.968C262.682 331.058 262.455 331.082 262.154 331.042L261.019 330.846Z" fill="#CDF856"/>
<path d="M258.699 334.86C258.699 336.389 258.533 337.714 258.199 338.837C257.874 339.951 257.427 340.874 256.858 341.606C256.288 342.338 255.613 342.882 254.833 343.24C254.06 343.598 253.23 343.777 252.344 343.777C251.449 343.777 250.616 343.598 249.843 343.24C249.079 342.882 248.412 342.338 247.843 341.606C247.273 340.874 246.826 339.951 246.501 338.837C246.176 337.714 246.013 336.389 246.013 334.86C246.013 333.331 246.176 332.005 246.501 330.883C246.826 329.761 247.273 328.834 247.843 328.102C248.412 327.362 249.079 326.813 249.843 326.455C250.616 326.097 251.449 325.918 252.344 325.918C253.23 325.918 254.06 326.097 254.833 326.455C255.613 326.813 256.288 327.362 256.858 328.102C257.427 328.834 257.874 329.761 258.199 330.883C258.533 332.005 258.699 333.331 258.699 334.86ZM256.443 334.86C256.443 333.526 256.329 332.408 256.101 331.505C255.882 330.594 255.581 329.862 255.198 329.309C254.824 328.756 254.389 328.362 253.893 328.126C253.397 327.882 252.881 327.76 252.344 327.76C251.807 327.76 251.291 327.882 250.795 328.126C250.299 328.362 249.864 328.756 249.49 329.309C249.115 329.862 248.815 330.594 248.587 331.505C248.367 332.408 248.257 333.526 248.257 334.86C248.257 336.194 248.367 337.312 248.587 338.214C248.815 339.117 249.115 339.845 249.49 340.398C249.864 340.951 250.299 341.349 250.795 341.593C251.291 341.829 251.807 341.947 252.344 341.947C252.881 341.947 253.397 341.829 253.893 341.593C254.389 341.349 254.824 340.951 255.198 340.398C255.581 339.845 255.882 339.117 256.101 338.214C256.329 337.312 256.443 336.194 256.443 334.86Z" fill="#CDF856"/>
<path d="M243.547 341.935V343.594H234.178V341.935H237.923V330.017C237.923 329.659 237.936 329.297 237.96 328.931L234.849 331.603C234.744 331.692 234.638 331.749 234.532 331.774C234.427 331.79 234.329 331.79 234.239 331.774C234.15 331.757 234.065 331.725 233.983 331.676C233.91 331.627 233.853 331.574 233.813 331.517L233.129 330.578L238.338 326.077H240.107V341.935H243.547Z" fill="#CDF856"/>
<path d="M227.613 335.921C227.613 337.661 227.833 339.353 228.272 340.996C228.719 342.638 229.37 344.2 230.224 345.68C230.354 345.932 230.386 346.123 230.321 346.253C230.256 346.392 230.163 346.501 230.041 346.583L229.077 347.168C228.467 346.233 227.947 345.306 227.516 344.387C227.093 343.468 226.747 342.545 226.479 341.618C226.218 340.691 226.027 339.76 225.905 338.824C225.783 337.881 225.722 336.913 225.722 335.921C225.722 334.937 225.783 333.973 225.905 333.03C226.027 332.087 226.218 331.155 226.479 330.237C226.747 329.309 227.093 328.386 227.516 327.467C227.947 326.548 228.467 325.617 229.077 324.674L230.041 325.272C230.163 325.353 230.256 325.463 230.321 325.601C230.386 325.731 230.354 325.918 230.224 326.162C229.37 327.642 228.719 329.204 228.272 330.846C227.833 332.489 227.613 334.181 227.613 335.921Z" fill="#CDF856"/>
<path d="M278.935 748.336C278.935 749.865 278.769 751.191 278.435 752.313C278.11 753.427 277.663 754.35 277.093 755.082C276.524 755.814 275.849 756.359 275.068 756.717C274.296 757.075 273.466 757.253 272.58 757.253C271.685 757.253 270.852 757.075 270.079 756.717C269.315 756.359 268.648 755.814 268.079 755.082C267.509 754.35 267.062 753.427 266.737 752.313C266.411 751.191 266.249 749.865 266.249 748.336C266.249 746.807 266.411 745.482 266.737 744.36C267.062 743.237 267.509 742.31 268.079 741.578C268.648 740.838 269.315 740.289 270.079 739.931C270.852 739.574 271.685 739.395 272.58 739.395C273.466 739.395 274.296 739.574 275.068 739.931C275.849 740.289 276.524 740.838 277.093 741.578C277.663 742.31 278.11 743.237 278.435 744.36C278.769 745.482 278.935 746.807 278.935 748.336ZM276.679 748.336C276.679 747.003 276.565 745.884 276.337 744.982C276.117 744.071 275.817 743.339 275.434 742.786C275.06 742.233 274.625 741.838 274.129 741.603C273.633 741.359 273.117 741.237 272.58 741.237C272.043 741.237 271.527 741.359 271.031 741.603C270.535 741.838 270.099 742.233 269.725 742.786C269.351 743.339 269.05 744.071 268.823 744.982C268.603 745.884 268.493 747.003 268.493 748.336C268.493 749.67 268.603 750.788 268.823 751.691C269.05 752.594 269.351 753.321 269.725 753.874C270.099 754.427 270.535 754.826 271.031 755.07C271.527 755.306 272.043 755.424 272.58 755.424C273.117 755.424 273.633 755.306 274.129 755.07C274.625 754.826 275.06 754.427 275.434 753.874C275.817 753.321 276.117 752.594 276.337 751.691C276.565 750.788 276.679 749.67 276.679 748.336Z" fill="#95ADBD"/>
<path d="M260.27 750.764V743.554C260.27 743.343 260.278 743.111 260.294 742.859C260.31 742.607 260.335 742.351 260.367 742.091L254 750.764H260.27ZM264.82 750.764V752.008C264.82 752.138 264.779 752.248 264.698 752.337C264.625 752.427 264.507 752.472 264.344 752.472H262.173V757.07H260.27V752.472H252.511C252.349 752.472 252.206 752.427 252.084 752.337C251.971 752.24 251.897 752.122 251.865 751.984L251.645 750.874L260.148 739.59H262.173V750.764H264.82Z" fill="#95ADBD"/>
<path d="M249.63 755.411V757.07H240.262V755.411H244.007V743.493C244.007 743.136 244.019 742.774 244.044 742.408L240.933 745.079C240.827 745.169 240.721 745.226 240.616 745.25C240.51 745.266 240.412 745.266 240.323 745.25C240.234 745.234 240.148 745.201 240.067 745.152C239.994 745.104 239.937 745.051 239.896 744.994L239.213 744.055L244.422 739.553H246.19V755.411H249.63Z" fill="#95ADBD"/>
<path d="M276.174 780.154C276.174 778.413 275.95 776.722 275.503 775.079C275.064 773.436 274.418 771.875 273.564 770.395C273.499 770.273 273.458 770.167 273.442 770.078C273.425 769.98 273.429 769.899 273.454 769.834C273.478 769.76 273.515 769.699 273.564 769.651C273.621 769.594 273.682 769.545 273.747 769.504L274.71 768.906C275.32 769.85 275.837 770.781 276.26 771.7C276.691 772.619 277.036 773.542 277.296 774.469C277.565 775.388 277.76 776.319 277.882 777.263C278.004 778.206 278.065 779.17 278.065 780.154C278.065 781.146 278.004 782.113 277.882 783.057C277.76 783.992 277.565 784.923 277.296 785.85C277.036 786.777 276.691 787.7 276.26 788.619C275.837 789.538 275.32 790.465 274.71 791.401L273.747 790.815C273.682 790.774 273.621 790.726 273.564 790.669C273.515 790.62 273.478 790.559 273.454 790.486C273.429 790.421 273.425 790.339 273.442 790.242C273.458 790.144 273.499 790.034 273.564 789.912C274.418 788.432 275.064 786.871 275.503 785.228C275.95 783.585 276.174 781.894 276.174 780.154Z" fill="#CDF856"/>
<path d="M262.912 776.945C263.823 776.75 264.661 776.653 265.425 776.653C266.336 776.653 267.141 776.787 267.84 777.055C268.54 777.324 269.121 777.694 269.585 778.165C270.057 778.637 270.41 779.194 270.646 779.836C270.89 780.479 271.012 781.178 271.012 781.935C271.012 782.862 270.849 783.699 270.524 784.448C270.207 785.196 269.764 785.838 269.194 786.375C268.633 786.903 267.971 787.31 267.206 787.595C266.442 787.879 265.616 788.022 264.73 788.022C264.217 788.022 263.725 787.969 263.254 787.863C262.782 787.766 262.339 787.631 261.924 787.461C261.517 787.29 261.139 787.095 260.79 786.875C260.44 786.655 260.131 786.424 259.863 786.18L260.533 785.253C260.68 785.041 260.871 784.935 261.107 784.935C261.269 784.935 261.452 785.001 261.656 785.131C261.859 785.253 262.107 785.391 262.4 785.545C262.693 785.7 263.034 785.842 263.425 785.972C263.823 786.094 264.295 786.155 264.84 786.155C265.45 786.155 265.998 786.058 266.486 785.863C266.974 785.667 267.393 785.391 267.743 785.033C268.093 784.667 268.361 784.232 268.548 783.728C268.735 783.224 268.829 782.658 268.829 782.032C268.829 781.487 268.747 780.995 268.585 780.556C268.43 780.117 268.19 779.743 267.865 779.434C267.548 779.125 267.149 778.885 266.669 778.714C266.19 778.543 265.628 778.458 264.986 778.458C264.547 778.458 264.087 778.495 263.608 778.568C263.136 778.641 262.652 778.759 262.156 778.922L260.79 778.519L262.192 770.346H270.475V771.297C270.475 771.606 270.378 771.863 270.183 772.066C269.996 772.261 269.67 772.359 269.207 772.359H263.717L262.912 776.945Z" fill="#CDF856"/>
<path d="M248.76 776.945C249.671 776.75 250.508 776.653 251.273 776.653C252.184 776.653 252.989 776.787 253.688 777.055C254.387 777.324 254.969 777.694 255.432 778.165C255.904 778.637 256.258 779.194 256.494 779.836C256.738 780.479 256.86 781.178 256.86 781.935C256.86 782.862 256.697 783.699 256.372 784.448C256.055 785.196 255.611 785.838 255.042 786.375C254.481 786.903 253.818 787.31 253.054 787.595C252.289 787.879 251.464 788.022 250.577 788.022C250.065 788.022 249.573 787.969 249.101 787.863C248.63 787.766 248.187 787.631 247.772 787.461C247.365 787.29 246.987 787.095 246.637 786.875C246.288 786.655 245.979 786.424 245.71 786.18L246.381 785.253C246.528 785.041 246.719 784.935 246.954 784.935C247.117 784.935 247.3 785.001 247.503 785.131C247.707 785.253 247.955 785.391 248.248 785.545C248.54 785.7 248.882 785.842 249.272 785.972C249.671 786.094 250.142 786.155 250.687 786.155C251.297 786.155 251.846 786.058 252.334 785.863C252.822 785.667 253.241 785.391 253.591 785.033C253.94 784.667 254.209 784.232 254.396 783.728C254.583 783.224 254.676 782.658 254.676 782.032C254.676 781.487 254.595 780.995 254.432 780.556C254.278 780.117 254.038 779.743 253.712 779.434C253.395 779.125 252.997 778.885 252.517 778.714C252.037 778.543 251.476 778.458 250.834 778.458C250.394 778.458 249.935 778.495 249.455 778.568C248.983 778.641 248.5 778.759 248.004 778.922L246.637 778.519L248.04 770.346H256.323V771.297C256.323 771.606 256.225 771.863 256.03 772.066C255.843 772.261 255.518 772.359 255.054 772.359H249.565L248.76 776.945Z" fill="#CDF856"/>
<path d="M240.829 780.154C240.829 781.894 241.048 783.585 241.487 785.228C241.935 786.871 242.585 788.432 243.439 789.912C243.569 790.165 243.602 790.356 243.537 790.486C243.472 790.624 243.378 790.734 243.256 790.815L242.292 791.401C241.682 790.465 241.162 789.538 240.731 788.619C240.308 787.7 239.962 786.777 239.694 785.85C239.434 784.923 239.243 783.992 239.121 783.057C238.999 782.113 238.938 781.146 238.938 780.154C238.938 779.17 238.999 778.206 239.121 777.262C239.243 776.319 239.434 775.388 239.694 774.469C239.962 773.542 240.308 772.619 240.731 771.7C241.162 770.781 241.682 769.85 242.292 768.906L243.256 769.504C243.378 769.585 243.472 769.695 243.537 769.834C243.602 769.964 243.569 770.151 243.439 770.395C242.585 771.875 241.935 773.436 241.487 775.079C241.048 776.722 240.829 778.413 240.829 780.154Z" fill="#CDF856"/>
<path d="M442.685 432.575L440.935 429.586L439.221 432.596L442.685 432.575ZM285.729 343.617L440.19 431.5L440.487 430.979L286.026 343.095L285.729 343.617Z" fill="#95ADBD"/>
<path d="M85.8113 229.805L87.5299 232.813L89.2753 229.821L85.8113 229.805ZM215.735 305.247L88.2946 230.907L87.9923 231.425L215.433 305.765L215.735 305.247Z" fill="#95ADBD"/>
</svg>
