<svg width="42" height="40" viewBox="0 0 42 40" fill="none" xmlns="http://www.w3.org/2000/svg">
<path d="M31.095 16.2361C32.4646 17.0127 32.4414 18.9939 31.0541 19.7382L3.26835 34.6466C1.92689 35.3664 0.305113 34.3831 0.322899 32.8609L0.678822 2.39898C0.696608 0.876735 2.34092 -0.0683228 3.66519 0.68258L31.095 16.2361Z" fill="#FF09C9"/>
<path fill-rule="evenodd" clip-rule="evenodd" d="M32.4187 13.2106L41.1113 15.5427C41.6447 15.6858 41.9611 16.2343 41.818 16.7677L39.4859 25.4603C39.3428 25.9937 38.7943 26.3101 38.2609 26.167C37.7275 26.0239 37.4111 25.4754 37.5542 24.942L39.2607 18.5812L14.5001 32.8662L13.5007 31.1338L38.2613 16.8488L31.9005 15.1423C31.367 14.9991 31.0506 14.4507 31.1938 13.9173C31.3369 13.3839 31.8853 13.0675 32.4187 13.2106Z" fill="#95ADBD"/>
<path fill-rule="evenodd" clip-rule="evenodd" d="M16.4551 39.1723L10.1432 37.5284C9.7559 37.4275 9.52369 37.0317 9.62457 36.6444L11.2685 30.3325C11.3694 29.9452 11.7652 29.713 12.1525 29.8138C12.5398 29.9147 12.772 30.3105 12.6712 30.6978L11.4682 35.3166L22.2716 28.9779L23.0051 30.228L12.2017 36.5667L16.8204 37.7697C17.2078 37.8706 17.44 38.2663 17.3391 38.6537C17.2382 39.041 16.8424 39.2732 16.4551 39.1723Z" fill="#FF7C03"/>
</svg>




